<svg id="Layer_1" data-name="Layer 1" xmlns="http://www.w3.org/2000/svg" viewBox="0 0 2203.84 2456.32"><defs><style>.cls-1{fill:#fea726;}.cls-2{opacity:0.3;}.cls-3{fill:#650000;}.cls-4{fill:#fff;}.cls-5{opacity:0.7;}.cls-6{fill:#f76d9b;}</style></defs><path class="cls-1" d="M1295.76,3133s-286.07,114.11-208.93,239.47,440.36-38.57,564.11-176.79S1295.76,3133,1295.76,3133Z" transform="translate(-779.02 -980.88)"/><g class="cls-2"><path class="cls-3" d="M1638.54,3124.12a117.43,117.43,0,0,1-12.6,16.59c-118.27,132.09-455.23,287.64-552.19,191.75.68,13.13,4.76,26.52,13.08,40,77.14,125.36,440.36-38.57,564.11-176.79C1685,3157.63,1673.32,3135.8,1638.54,3124.12Z" transform="translate(-779.02 -980.88)"/></g><path class="cls-3" d="M1190.74,3437.2q-11.21,0-21.73-.93c-46.65-4.18-80-22.1-99.21-53.29-17.1-27.77-20.7-57.15-10.72-87.31,33.87-102.25,221.31-178,229.27-181.21a19.91,19.91,0,0,1,4.29-1.18c.86-.14,86.36-13.52,175.07-18.74,170.46-10,206.22,18.23,218.26,40.36,11.61,21.32,4.83,46.27-20.13,74.15C1569.33,3316.84,1338.86,3437.2,1190.74,3437.2Zm110.35-284.75c-51,20.75-181.12,86.55-204,155.82-6.18,18.67-4,36.26,6.81,53.75,12.21,19.84,35.33,31.42,68.71,34.41q9.15.81,18.93.81c135.63,0,355.44-115.35,444.54-214.87,13-14.5,16.79-24.69,14.8-28.34-1.63-3-20.55-29-180.78-19.56C1391.16,3139.11,1314.91,3150.35,1301.09,3152.45Z" transform="translate(-779.02 -980.88)"/><path class="cls-1" d="M2466.12,3133S2752.19,3247.14,2675,3372.5s-440.35-38.57-564.1-176.79S2466.12,3133,2466.12,3133Z" transform="translate(-779.02 -980.88)"/><g class="cls-2"><path class="cls-3" d="M2123.34,3124.12a115.93,115.93,0,0,0,12.6,16.59c118.26,132.09,455.22,287.64,552.19,191.75-.69,13.13-4.76,26.52-13.09,40-77.14,125.36-440.35-38.57-564.1-176.79C2076.84,3157.63,2088.55,3135.8,2123.34,3124.12Z" transform="translate(-779.02 -980.88)"/></g><path class="cls-3" d="M2571.13,3437.2c-148.12,0-378.58-120.35-475.09-228.15-25-27.88-31.74-52.83-20.14-74.15,12-22.13,47.77-50.38,218.26-40.36,88.72,5.22,174.22,18.6,175.07,18.74a19.91,19.91,0,0,1,4.29,1.18c8,3.17,195.41,79,229.27,181.21,10,30.16,6.38,59.54-10.71,87.31-19.19,31.19-52.57,49.11-99.21,53.29C2585.85,3436.89,2578.59,3437.2,2571.13,3437.2ZM2228,3132.42c-101.84,0-115.63,19.07-117,21.61-2,3.65,1.82,13.84,14.81,28.34,93.37,104.29,330.31,226,463.46,214.06,33.38-3,56.5-14.57,68.71-34.41,10.76-17.49,13-35.08,6.82-53.75-22.92-69.27-153-135.07-204-155.82-13.85-2.11-90.32-13.37-169.24-18C2267.28,3133,2246.24,3132.42,2228,3132.42Z" transform="translate(-779.02 -980.88)"/><path class="cls-4" d="M2747.39,2352s-5.3,95.05,22.4,172.65c9.25,25.85,16.95,52.2,21.7,79.25,29.25,165.9,65.2,646.15-491.45,669.85-65.2,2.8-130.5-1.95-194.9-12.35-50.65-8.15-134.9-19.05-224.2-19.05s-173.55,10.9-224.2,19.05c-64.4,10.4-129.7,15.15-194.9,12.35-556.65-23.7-520.7-503.95-491.45-669.85,4.75-27.05,12.45-53.4,21.7-79.25,8.6-24.05,14-49.75,17.4-73.75a564.72,564.72,0,0,0,5-98.9S822.74,2282.46,801,2001.41c-1.65-21.2-2.35-43.6-1.9-67.3,6.4-334.8,278.45-433.95,282.8-435.55h0a.15.15,0,0,0,0-.1c-29-79.55-41.8-155.9-46-222-1.4-22-1.85-43-1.65-62.45a191.43,191.43,0,0,1,182.4-189.35c164.7-8.1,280,64,280,64,171.45-90,384.3-87.85,384.3-87.85s212.85-2.15,384.3,87.85c0,0,115.25-72.15,280-64a191.43,191.43,0,0,1,182.4,189.35c.85,78-9,178.4-47.7,284.5,0,0,276.4,98,282.85,435.55S2747.39,2352,2747.39,2352Z" transform="translate(-779.02 -980.88)"/><path class="cls-1" d="M2727.59,1214.06a191.43,191.43,0,0,0-182.4-189.35c-164.7-8.1-280,64-280,64-171.45-90-384.3-87.85-384.3-87.85s-212.85-2.15-384.3,87.85c0,0-115.25-72.15-280-64a191.43,191.43,0,0,0-182.4,189.35c-.85,78,9,178.35,47.65,284.4a.15.15,0,0,1,0,.1s115.9-72.87,259.55,29c236.54,167.67,396.55,36.49,539.4,36.49s303.57,116,539.4-36.49c147.86-95.6,259.55-29,259.55-29a.15.15,0,0,1,.05-.1C2718.64,1392.41,2728.44,1292,2727.59,1214.06Z" transform="translate(-779.02 -980.88)"/><ellipse class="cls-4" cx="1608.86" cy="1383.44" rx="42.86" ry="62.06" transform="translate(-1172.68 1104.15) rotate(-60)"/><ellipse class="cls-4" cx="2153.02" cy="1383.44" rx="62.06" ry="42.86" transform="translate(-1182.29 280.97) rotate(-30)"/><g class="cls-2"><path class="cls-3" d="M2300,3153.71c-65.2,2.8-130.5-1.95-194.9-12.35-50.65-8.15-134.9-19.05-224.2-19.05s-173.55,10.9-224.2,19.05c-64.4,10.4-129.7,15.15-194.9,12.35-388.17-16.52-488.15-255-503.21-454.18-14.58,206.73,31.87,554.12,503.21,574.18,65.2,2.8,130.5-1.95,194.9-12.35,50.65-8.15,134.9-19.05,224.2-19.05s173.55,10.9,224.2,19.05c64.4,10.4,129.7,15.15,194.9,12.35,471.34-20.06,517.79-367.45,503.2-574.18C2788.18,2898.67,2688.2,3137.19,2300,3153.71Z" transform="translate(-779.02 -980.88)"/></g><g class="cls-2"><path class="cls-3" d="M1198.24,2442.06s-83.75,22.55-188.75,8.8a564.72,564.72,0,0,0,5-98.9S822.74,2282.46,801,2001.41c0,0,62.4,144.85,305.1,291.1C1106.14,2292.51,1134.49,2379.46,1198.24,2442.06Z" transform="translate(-779.02 -980.88)"/></g><g class="cls-2"><path class="cls-3" d="M2563.64,2442.06s83.75,22.55,188.75,8.8a564.72,564.72,0,0,1-5-98.9s191.75-69.5,213.45-350.55c0,0-62.4,144.85-305.1,291.1C2655.74,2292.51,2627.39,2379.46,2563.64,2442.06Z" transform="translate(-779.02 -980.88)"/></g><g class="cls-2"><path class="cls-3" d="M1009,2191.45a158.58,158.58,0,0,1,.52-29.58,225.74,225.74,0,0,1,4.89-29.12,248.32,248.32,0,0,1,20.6-56.08c18.16-36,46.64-68.36,82.31-90.59a211.73,211.73,0,0,1,57.1-25.4c9.9-3.27,20.15-4.75,30.24-6.71q7.62-.92,15.26-1.58c2.54-.21,5.07-.53,7.61-.64l7.59-.15c40.52-.49,79.81,7.65,114.94,24.25a7.16,7.16,0,0,1-2.83,13.64h0c-37.76,1.15-73.61,2.66-107.37,9.33-8.54,1.07-16.61,4-24.87,5.55-8,2.69-16.08,4.68-23.72,7.85-7.83,2.71-15.2,6.32-22.69,9.61-3.6,1.94-7.16,3.94-10.82,5.75s-7,4.19-10.53,6.23c-27.65,17.3-51.92,40.25-73.35,67.37s-40,58.08-57.36,91.52l-.12.23a3.9,3.9,0,0,1-7.35-1.48Z" transform="translate(-779.02 -980.88)"/></g><g class="cls-2"><path class="cls-3" d="M2745.45,2192.7c-17.33-33.44-36-64.35-57.37-91.52s-45.7-50.07-73.35-67.37c-3.52-2-6.87-4.41-10.52-6.23s-7.22-3.81-10.82-5.75c-7.49-3.29-14.87-6.9-22.69-9.61-7.64-3.17-15.77-5.16-23.73-7.85-8.26-1.6-16.32-4.48-24.86-5.55-33.77-6.67-69.62-8.18-107.37-9.33h0a7.17,7.17,0,0,1-2.84-13.64c35.14-16.6,74.43-24.74,114.94-24.25l7.6.15c2.53.11,5.06.43,7.61.64q7.62.66,15.26,1.58c10.08,2,20.33,3.44,30.23,6.71a211.93,211.93,0,0,1,57.11,25.4c35.66,22.23,64.15,54.6,82.3,90.59a247.36,247.36,0,0,1,20.6,56.08,225.77,225.77,0,0,1,4.9,29.12,160.31,160.31,0,0,1,.52,29.58,3.9,3.9,0,0,1-7.35,1.48Z" transform="translate(-779.02 -980.88)"/></g><g class="cls-2"><path class="cls-3" d="M1341.49,1527.46c-131.55-89.4-259.5-28.9-259.5-28.9a.15.15,0,0,0,0-.1c-29-79.55-41.8-155.9-46-222,66,108.85,139.3,148.15,139.3,148.15C1313.39,1425.16,1340.69,1524.36,1341.49,1527.46Z" transform="translate(-779.02 -980.88)"/></g><g class="cls-2"><path class="cls-3" d="M2420.39,1527.46c131.55-89.4,259.5-28.9,259.5-28.9a.15.15,0,0,1,.05-.1c29-79.55,41.8-155.9,46-222-66.05,108.85-139.3,148.15-139.3,148.15C2448.49,1425.16,2421.19,1524.36,2420.39,1527.46Z" transform="translate(-779.02 -980.88)"/></g><g class="cls-2"><path class="cls-3" d="M2096.91,1610.27s15.62,57.85-65.54,76.34-104.46-73.78-104.46-73.78l-46-2.56-46,2.56s-23.3,92.26-104.46,73.78-65.54-76.34-65.54-76.34-87.94,46.6-26.07,149.06c0,0,14.55,230.49,242,230.49s242-230.49,242-230.49C2184.85,1656.87,2096.91,1610.27,2096.91,1610.27Z" transform="translate(-779.02 -980.88)"/></g><g class="cls-5"><path class="cls-4" d="M1216.69,1069.71c164.7-8.1,241.93,45.29,241.93,45.29,100.59-30.74,210.69-48.19,293.25-57.86a1127.15,1127.15,0,0,1,260.72-.42c81.56,9.43,189.69,26.78,290.67,58.28,0,0,77.23-53.39,241.93-45.29a191.43,191.43,0,0,1,182,179.28c.37-12.06.5-23.75.38-34.93a191.43,191.43,0,0,0-182.4-189.35c-164.7-8.1-280,64-280,64-171.45-90-384.3-87.85-384.3-87.85s-212.85-2.15-384.3,87.85c0,0-115.25-72.15-280-64a191.43,191.43,0,0,0-182.4,189.35c-.13,11.18,0,22.87.37,34.93A191.44,191.44,0,0,1,1216.69,1069.71Z" transform="translate(-779.02 -980.88)"/></g><path class="cls-3" d="M1072.5,1481c2-1.1,3.34-1.77,4.84-2.54s3-1.46,4.4-2.12c2.89-1.39,5.81-2.65,8.73-3.74,5.81-2.42,11.71-4.25,17.64-6.15a243.25,243.25,0,0,1,36.18-7.63c24.4-3.11,49.25-3.16,73.37,1,6.1.54,12,2.39,17.93,3.65l8.88,2.09c3,.67,5.8,1.81,8.7,2.7l17.24,5.69c5.56,2.37,11,4.91,16.47,7.49,11.1,4.67,20.8,12,30.73,18.5a61.68,61.68,0,0,1,7,5.54c2.28,1.92,4.5,3.93,6.69,6,4.4,4,8.65,8.14,12.68,12.47a4.45,4.45,0,0,1-4.44,7.31l-.39-.12c-5.7-1.58-11.17-3.35-16.48-5.28-5.44-1.68-10.33-4.28-15.81-5.64-5.28-1.73-10.58-3.32-15.73-5.11-2.59-.85-5.11-1.89-7.72-2.63l-7.87-2.12c-20.51-6.79-41.61-10.42-62.57-12.46l-15.77-1c-5.26.07-10.51.28-15.75.24a273.64,273.64,0,0,0-31.23,3,292,292,0,0,0-30.57,6.42c-4.91,1.57-10,2.85-14.75,4.6-2.45.8-4.8,1.69-7.13,2.56-1.18.43-2.36.86-3.41,1.31l-2.85,1.18-1.63.67A20,20,0,0,1,1072.5,1481Z" transform="translate(-779.02 -980.88)"/><path class="cls-3" d="M1024.48,2334.63c.14.11,1.15.68,1.87,1.06l2.43,1.33,5.17,2.69c3.54,1.79,7.17,3.56,10.9,5.25,7.44,3.4,15.15,6.57,23.05,9.58,8,2.76,16,5.77,24.39,8.24l25.61,8.07.07,0a3.77,3.77,0,0,1,2.46,4.73,3.82,3.82,0,0,1-2.53,2.48c-4.51,1.33-9.08,2.44-13.7,3.38-4.61.78-9.28,1.59-14,2a172.18,172.18,0,0,1-28.37.28,181.79,181.79,0,0,1-28.48-4.22,140.92,140.92,0,0,1-14.15-4c-2.34-.81-4.7-1.63-7.06-2.63-1.18-.5-2.36-1-3.59-1.55s-2.24-1.05-4.05-2l-1.68-.91a20.11,20.11,0,1,1,19.08-35.4A20.93,20.93,0,0,1,1024.48,2334.63Z" transform="translate(-779.02 -980.88)"/><path class="cls-3" d="M2670.36,1516.17l-2.85-1.18c-1.05-.45-2.23-.88-3.41-1.31-2.33-.87-4.67-1.76-7.13-2.56-4.78-1.75-9.84-3-14.75-4.6a291.51,291.51,0,0,0-30.57-6.42,273.68,273.68,0,0,0-31.22-3c-5.24,0-10.49-.17-15.76-.24l-15.76,1c-21,2-42.07,5.67-62.58,12.46l-7.87,2.12c-2.61.74-5.12,1.78-7.72,2.63-5.15,1.79-10.45,3.38-15.73,5.11-5.47,1.36-10.36,4-15.81,5.64-5.31,1.93-10.78,3.7-16.47,5.28l-.39.11a4.44,4.44,0,0,1-4.44-7.3c4-4.33,8.27-8.48,12.68-12.47,2.18-2,4.4-4,6.68-6a61.79,61.79,0,0,1,7-5.54c9.92-6.45,19.63-13.83,30.72-18.5,5.43-2.58,10.91-5.12,16.47-7.49l17.24-5.69c2.9-.89,5.74-2,8.7-2.7l8.88-2.09c5.95-1.26,11.84-3.11,17.93-3.65,24.12-4.19,49-4.14,73.37-1a243.65,243.65,0,0,1,36.19,7.63c5.92,1.9,11.82,3.73,17.64,6.15,2.91,1.09,5.83,2.35,8.73,3.74,1.44.66,2.89,1.33,4.4,2.12s2.87,1.44,4.83,2.54a20,20,0,0,1-17.37,35.88Z" transform="translate(-779.02 -980.88)"/><path class="cls-3" d="M2757.34,2369.3c-1.8,1-2.77,1.42-4.05,2s-2.4,1-3.59,1.55c-2.36,1-4.71,1.82-7.06,2.63a141.49,141.49,0,0,1-14.14,4,182.14,182.14,0,0,1-28.48,4.22,172.16,172.16,0,0,1-28.37-.28c-4.69-.37-9.36-1.18-14-2-4.62-.94-9.19-2.05-13.7-3.38a3.77,3.77,0,0,1-.09-7.2l.09,0,25.62-8.07c8.35-2.47,16.42-5.48,24.38-8.24,7.91-3,15.62-6.18,23.05-9.58,3.73-1.69,7.37-3.46,10.9-5.25l5.17-2.69,2.43-1.33c.72-.38,1.73-1,1.87-1.06a20.11,20.11,0,1,1,24.19,32.12,19.68,19.68,0,0,1-2.45,1.59Z" transform="translate(-779.02 -980.88)"/><path class="cls-3" d="M2605.2,1498.17a20,20,0,0,1-19.31-14.85c-6.39-23.94-17.57-50.66-17.68-50.93a20,20,0,0,1,36.88-15.5c.5,1.2,12.33,29.47,19.44,56.12a20,20,0,0,1-19.33,25.16Z" transform="translate(-779.02 -980.88)"/><path class="cls-3" d="M1156.68,1498.17a20,20,0,0,1-19.34-25.16c7.11-26.65,18.94-54.92,19.44-56.12a20,20,0,0,1,36.88,15.5c-.11.27-11.28,27-17.67,50.93A20,20,0,0,1,1156.68,1498.17Z" transform="translate(-779.02 -980.88)"/><path class="cls-3" d="M1507.2,1105.74a93.71,93.71,0,0,1-10.2,4.74c-3.54,1.43-7.15,2.77-10.84,4s-7.43,2.36-11.23,3.38a109,109,0,0,1-12,2.33l-.48.06a7.61,7.61,0,0,1-8.09-10.4,63.42,63.42,0,0,1,6.34-11.71,99,99,0,0,1,7.72-9.85,119.48,119.48,0,0,1,8.43-8.81,77.55,77.55,0,0,1,9.28-7.7l0,0a20,20,0,0,1,22.6,33C1508.24,1105.12,1507.71,1105.45,1507.2,1105.74Z" transform="translate(-779.02 -980.88)"/><path class="cls-3" d="M2275.77,1071.76a76.87,76.87,0,0,1,9.29,7.7,121.47,121.47,0,0,1,8.42,8.81,99,99,0,0,1,7.72,9.85,64,64,0,0,1,6.35,11.71,7.62,7.62,0,0,1-8.06,10.41l-.52-.07a108.85,108.85,0,0,1-12-2.33c-3.81-1-7.6-2.09-11.24-3.38s-7.29-2.55-10.84-4a94.59,94.59,0,0,1-10.2-4.74,20,20,0,1,1,19.55-35q.78.43,1.5.93Z" transform="translate(-779.02 -980.88)"/><path class="cls-3" d="M1880.94,1681c89.28,109,196.08,52.1,196.08,52.1s26.06,235.31-196.08,239.6c-222.15-4.29-196.09-239.6-196.09-239.6S1791.65,1790,1880.94,1681Z" transform="translate(-779.02 -980.88)"/><path class="cls-3" d="M1955.58,1581.61c-10.18-34.29-74.64-35.63-74.64-35.63s-64.47,1.34-74.65,35.63,42.68,62.67,74.65,62.67S1965.76,1615.89,1955.58,1581.61Z" transform="translate(-779.02 -980.88)"/><path class="cls-6" d="M1737.76,1916s128.08-168.11,286.34,0C2024.1,1916,1879.23,2042.53,1737.76,1916Z" transform="translate(-779.02 -980.88)"/><path class="cls-4" d="M1880.94,1681c27.89,42.15,90,64,90,64v3.55c0,48.69-39,88.6-87.71,89.15l-2.33,0-2.34,0c-48.68-.55-87.71-40.46-87.71-89.15V1745S1853.05,1723.13,1880.94,1681Z" transform="translate(-779.02 -980.88)"/><path class="cls-3" d="M1880.94,1852.68h-2.43c-56.62-.64-102.62-47.37-102.62-104.16V1745a15,15,0,0,1,10-14.15c.56-.2,57.8-20.77,82.51-58.1a15,15,0,0,1,25,0c24.7,37.33,81.94,57.9,82.52,58.11a15,15,0,0,1,10,14.14v3.55c0,56.79-46,103.52-102.54,104.16ZM1806.18,1755c3.28,37.44,34.59,67.22,72.59,67.65h4.41c37.93-.43,69.23-30.21,72.52-67.65-16.82-7.18-50.53-23.76-74.76-49.94C1856.71,1731.26,1823,1747.84,1806.18,1755Z" transform="translate(-779.02 -980.88)"/><path class="cls-3" d="M1895.94,1681a188.11,188.11,0,0,1,1.51,26c0,8.68-.41,17.37-1.12,26a241.92,241.92,0,0,1-3.42,26.05c-1.79,8.68-3.79,17.36-7.33,26a5,5,0,0,1-9.29,0c-3.54-8.69-5.54-17.37-7.33-26a241.88,241.88,0,0,1-3.41-26.05c-.72-8.68-1.15-17.37-1.12-26a185.06,185.06,0,0,1,1.51-26,15.15,15.15,0,0,1,30,0Z" transform="translate(-779.02 -980.88)"/><path class="cls-3" d="M1880.94,1990.18h-.34c-68.22-1.31-121.59-23.37-158.64-65.56-66.66-75.9-55-188.69-54.5-193.46a17.49,17.49,0,0,1,25.62-13.51c3.81,2,95.6,48.36,174.32-47.75a17.51,17.51,0,0,1,27.08,0c78.71,96.12,170.5,49.74,174.37,47.71a17.53,17.53,0,0,1,25.56,13.55c.53,4.77,12.16,117.56-54.5,193.46-37,42.19-90.42,64.25-158.64,65.56Zm-179.47-232.31c.35,33.86,6.82,98.26,46.93,143.81,30.22,34.32,74.81,52.31,132.54,53.49,57.72-1.18,102.32-19.17,132.54-53.49,40.1-45.55,46.58-109.94,46.92-143.82-37.74,10.85-112.22,19.21-179.46-50.54C1813.69,1777.08,1739.21,1768.69,1701.47,1757.87Z" transform="translate(-779.02 -980.88)"/><path class="cls-3" d="M1900.94,1632.77V1681l-3-10.59,1.09,1.45c.41.58.9,1.19,1.41,1.82,1,1.25,2,2.49,3.08,3.73,2.07,2.52,4.45,4.87,6.66,7.34a164.69,164.69,0,0,0,14.77,13.44,149.74,149.74,0,0,0,33.55,20.62,152.21,152.21,0,0,0,37.66,10.12l9.86.57c1.64.08,3.28.26,4.94.28l5-.27,10-.44,9.84-1.42,4.93-.69c1.65-.25,3.12-.82,4.69-1.2l9.34-2.52,8.63-3.62,2.18-.88,1.93-1.19,3.9-2.34a60.7,60.7,0,0,0,23.82-25.71c5.22-10.77,6.91-23.27,6.71-36.13a126.28,126.28,0,0,0-7.83-40.6l-.08-.22a4,4,0,0,1,5.84-4.74c14.42,8.88,24.29,24.48,28.74,41.35s3.07,35.77-3.51,52.91-18.76,32.36-33.53,42.93l-5.65,3.83-2.84,1.88-3,1.49-12,5.84c-4.09,1.48-8.23,2.82-12.37,4.21-2.07.63-4.14,1.47-6.22,1.92l-6.25,1.31c-4.17.84-8.35,1.75-12.55,2.5l-12.67,1.12-6.35.52c-2.13.06-4.28,0-6.41-.08l-12.86-.34a166.48,166.48,0,0,1-93.81-38.91,192.18,192.18,0,0,1-18.4-17.58c-2.81-3.2-5.6-6.4-8.2-9.85-1.33-1.66-2.62-3.44-3.9-5.24-.63-.88-1.27-1.79-1.92-2.78l-2.11-3.25h0a19.1,19.1,0,0,1-3-10.35v-48.45a20,20,0,0,1,40,0Z" transform="translate(-779.02 -980.88)"/><path class="cls-3" d="M1900.94,1632.77v48.46a18.92,18.92,0,0,1-3,10.34h0l-2.1,3.25c-.65,1-1.29,1.9-1.93,2.78-1.28,1.8-2.56,3.58-3.9,5.24-2.6,3.45-5.38,6.65-8.2,9.85a191,191,0,0,1-18.4,17.58,166.48,166.48,0,0,1-93.81,38.91l-12.85.34c-2.14,0-4.29.14-6.41.08l-6.35-.52-12.68-1.12c-4.19-.75-8.37-1.66-12.55-2.5l-6.24-1.31c-2.08-.45-4.16-1.29-6.23-1.92-4.14-1.39-8.28-2.73-12.37-4.21l-12-5.84-3-1.49-2.85-1.88-5.65-3.83c-14.77-10.57-27-25.7-33.53-42.93s-8-35.9-3.51-52.91,14.32-32.47,28.74-41.35a4,4,0,0,1,5.85,4.72l-.08.24a126.31,126.31,0,0,0-7.84,40.6c-.19,12.86,1.49,25.36,6.71,36.13a60.76,60.76,0,0,0,23.82,25.71l3.9,2.34,1.93,1.19,2.18.88,8.64,3.62,9.33,2.52c1.57.38,3,1,4.69,1.2l4.94.69,9.83,1.42,10,.44,5,.27c1.65,0,3.29-.2,4.94-.28l9.85-.57a152.21,152.21,0,0,0,37.66-10.12,150,150,0,0,0,33.56-20.62,164.57,164.57,0,0,0,14.76-13.44c2.22-2.47,4.59-4.82,6.66-7.34,1.11-1.24,2.1-2.48,3.08-3.73.51-.63,1-1.24,1.41-1.82l1.09-1.45-3,10.59v-48.21a20,20,0,0,1,40,0Z" transform="translate(-779.02 -980.88)"/><path class="cls-3" d="M1424.58,1590c-1.73-12.67-.06-24.61,3.66-36.4a98.8,98.8,0,0,1,18.25-32.9c8.23-10.09,19.25-18.07,30.9-24.71l9.12-4.37c3-1.51,6.3-2.29,9.47-3.44,6.36-2.42,12.89-3.42,19.44-4.58a121.41,121.41,0,0,1,77.38,13.14,115.87,115.87,0,0,1,30.93,24.59c2.19,2.4,4.25,4.9,6.26,7.43s3.81,5.21,5.58,7.91a95.55,95.55,0,0,1,5,8.37c.79,1.4,1.53,3,2.27,4.45.37.73.74,1.53,1.11,2.38l1.24,2.9a21.48,21.48,0,0,1-38.8,18.42c0,.1-.34-.31-.63-.67l-.88-1.12c-.63-.81-1.21-1.6-1.93-2.43l-4.17-4.87c-2.88-3.22-6-6.18-9.14-9.07a91.58,91.58,0,0,0-20.46-13.83c-7.28-3.35-14.67-6.27-22.71-7.4a32.62,32.62,0,0,0-6-.77c-2.05-.16-4.07-.48-6.15-.58l-6.34.14a31.42,31.42,0,0,0-6.25.31c-4.06.5-8.22.8-12,2-1.92.54-4,.7-5.84,1.5s-3.73,1.43-5.63,2.09a87.4,87.4,0,0,0-21.15,12.7,206.37,206.37,0,0,0-20.26,18.46c-6.7,7-13.65,14.89-20.87,23l-.58.66a6.16,6.16,0,0,1-10.7-3.26Z" transform="translate(-779.02 -980.88)"/><path class="cls-3" d="M2326,1592.55c-7.22-8.1-14.16-16-20.86-23a207.58,207.58,0,0,0-20.27-18.46,87.34,87.34,0,0,0-21.14-12.7c-1.91-.66-3.78-1.37-5.64-2.09s-3.92-1-5.84-1.5c-3.82-1.16-8-1.46-12-2a31.38,31.38,0,0,0-6.25-.31l-6.34-.14c-2.07.1-4.1.42-6.15.58a32.51,32.51,0,0,0-6,.77c-8,1.13-15.44,4-22.72,7.4a91.3,91.3,0,0,0-20.45,13.83c-3.12,2.89-6.26,5.85-9.14,9.07l-4.18,4.87c-.72.83-1.3,1.62-1.93,2.43l-.88,1.12c-.28.36-.59.77-.62.67a21.48,21.48,0,0,1-38.81-18.42l1.25-2.9c.36-.85.73-1.65,1.1-2.38.74-1.5,1.48-3,2.27-4.45,1.51-2.92,3.21-5.66,5-8.37s3.68-5.3,5.58-7.91,4.07-5,6.26-7.43a115.87,115.87,0,0,1,30.93-24.59,121.42,121.42,0,0,1,77.39-13.14c6.54,1.16,13.08,2.16,19.44,4.58,3.16,1.15,6.42,1.93,9.46,3.44l9.12,4.37c11.65,6.64,22.67,14.62,30.9,24.71a98.62,98.62,0,0,1,18.25,32.9c3.73,11.79,5.39,23.73,3.66,36.4a6.16,6.16,0,0,1-10.69,3.27Z" transform="translate(-779.02 -980.88)"/><path class="cls-6" d="M1175.22,1424.64s55.72-138.75,193.93-244.82c0,0-55.63-39.93-132.82-42.87-52.56-2-97.08,38.75-98.94,91.32C1135.65,1277.78,1142.05,1347.14,1175.22,1424.64Z" transform="translate(-779.02 -980.88)"/><g class="cls-2"><path class="cls-3" d="M1176,1262.14c1.71-48.68,43-86.42,91.63-84.56,32.34,1.23,60.57,9.48,81.82,18.14,6.41-5.36,12.95-10.68,19.75-15.9,0,0-55.63-39.93-132.82-42.87-52.56-2-97.08,38.75-98.94,91.32-1.74,49.51,4.66,118.87,37.83,196.37,0,0,5.31-13.19,16.66-34.49A415.82,415.82,0,0,1,1176,1262.14Z" transform="translate(-779.02 -980.88)"/></g><path class="cls-3" d="M1175.22,1444.63a20,20,0,0,1-18.38-12.11c-35.63-83.23-41.11-157.4-39.43-205a113.58,113.58,0,0,1,36.5-79.76A114.74,114.74,0,0,1,1237.1,1117c82.25,3.13,141.24,44.83,143.71,46.6a20,20,0,0,1,.52,32.11c-131.9,101.23-187,235.1-187.56,236.43a20,20,0,0,1-18.34,12.52Zm57.38-287.75a75.17,75.17,0,0,0-51.47,20.22,73.93,73.93,0,0,0-23.75,51.87c-1.24,35.18,1.82,86.33,20.36,145,25.48-46.56,75.25-123.1,156.09-191.42-21.72-10.69-56.78-24.08-98.26-25.66Q1234.09,1156.88,1232.6,1156.88Z" transform="translate(-779.02 -980.88)"/><path class="cls-6" d="M2586.65,1424.64s-55.71-138.75-193.93-244.82c0,0,55.63-39.93,132.82-42.87,52.56-2,97.09,38.75,98.94,91.32C2626.22,1277.78,2619.83,1347.14,2586.65,1424.64Z" transform="translate(-779.02 -980.88)"/><g class="cls-2"><path class="cls-3" d="M2585.93,1262.14c-1.72-48.68-42.95-86.42-91.63-84.56-32.35,1.23-60.58,9.48-81.83,18.14-6.4-5.36-12.95-10.68-19.75-15.9,0,0,55.63-39.93,132.82-42.87,52.56-2,97.09,38.75,98.94,91.32,1.74,49.51-4.65,118.87-37.83,196.37,0,0-5.3-13.19-16.65-34.49A415.82,415.82,0,0,0,2585.93,1262.14Z" transform="translate(-779.02 -980.88)"/></g><path class="cls-3" d="M2586.65,1444.64h-.22a20,20,0,0,1-18.33-12.53c-.64-1.58-55.78-135.29-187.55-236.43a20,20,0,0,1,.51-32.11c2.47-1.77,61.46-43.47,143.72-46.6a115.08,115.08,0,0,1,119.69,110.59c1.67,47.56-3.81,121.73-39.43,205A20,20,0,0,1,2586.65,1444.64ZM2428,1182.6c80.85,68.32,130.61,144.86,156.09,191.42,18.54-58.72,21.6-109.87,20.36-145a73.89,73.89,0,0,0-23.75-51.87,75,75,0,0,0-54.43-20.16C2484.83,1158.52,2449.77,1171.91,2428,1182.6Z" transform="translate(-779.02 -980.88)"/><path class="cls-3" d="M1498.41,3294.5q-18.92,0-37.44-.79c-187.7-8-327.77-67.89-416.29-178.05-131.86-164.1-115.49-393.28-94-515.28,4.53-25.7,11.9-52.67,22.54-82.48,20.38-57.05,21.93-125.42,21.63-152.72-20.74-10-63.41-34.44-105.47-82.39-52.19-59.48-113.68-168.32-110.23-349.06,3.45-181.23,83.49-295,150-358.43,51-48.69,101.48-75.79,127.7-87.85-29.31-86.65-43.65-178.6-42.63-273.61,1.21-111.77,89.69-203.62,201.45-209.12,143-7,249.18,43.63,281.48,61.28,171.92-86.21,375.24-85.21,384-85.11,8.35-.1,211.64-1.09,383.54,85.11,32.3-17.65,138.51-68.35,281.48-61.28,111.76,5.5,200.25,97.35,201.45,209.12,1,95-13.31,187-42.63,273.61,26.22,12.06,76.67,39.16,127.71,87.85,66.54,63.48,146.58,177.2,150,358.43,3.44,180.74-58,289.58-110.23,349.06-42.07,47.95-84.74,72.4-105.47,82.39-.31,27.29,1.25,95.66,21.62,152.72,10.64,29.81,18,56.78,22.54,82.48,21.5,122,37.88,351.18-94,515.28-88.52,110.16-228.58,170.06-416.29,178.05-63.38,2.7-130.31-1.54-199-12.6-53.2-8.58-134.73-18.79-221-18.79s-167.82,10.21-221,18.79A1017.44,1017.44,0,0,1,1498.41,3294.5ZM1242.25,1044.07c-8.07,0-16.24.19-24.57.6-90.66,4.46-162.44,79-163.42,169.6-1,96.77,14.62,190.12,46.53,277.43a20,20,0,0,1-12.1,25.72c-.63.23-67.08,24.5-133.14,88-88,84.57-133.85,195.28-136.4,329-2.51,131.89,31.65,242.61,98.79,320.18,50.66,58.53,102.92,78.32,103.44,78.51a20.12,20.12,0,0,1,13.1,17.67c.22,4.05,5.17,100-23.57,180.5-9.88,27.66-16.69,52.51-20.83,76-16.36,92.85-40.75,325.82,85.79,483.28,81,100.78,211.12,155.67,386.8,163.15,60.7,2.6,124.91-1.5,190.89-12.13,54.64-8.81,138.45-19.3,227.38-19.3s172.73,10.49,227.37,19.3c66,10.63,130.21,14.73,190.89,12.13,175.68-7.48,305.83-62.37,386.81-163.15,126.53-157.46,102.14-390.43,85.78-483.28-4.13-23.46-10.94-48.31-20.82-76-28.75-80.5-23.8-176.45-23.57-180.5a20,20,0,0,1,13.15-17.69c.46-.17,52.73-20,103.39-78.49,67.14-77.57,101.3-188.29,98.79-320.18-2.55-133.77-48.44-244.48-136.4-329-66.07-63.52-132.52-87.79-133.18-88a20,20,0,0,1-12.07-25.71c31.92-87.31,47.57-180.66,46.53-277.43-1-90.64-72.75-165.14-163.42-169.6-155.91-7.67-267.27,60.36-268.38,61a20.07,20.07,0,0,1-19.89.74c-165.05-86.66-372.67-85.62-374.78-85.57-2.38.08-210.42-.94-375.19,85.57a20,20,0,0,1-19.91-.76C1485,1105.06,1385.17,1044.07,1242.25,1044.07Z" transform="translate(-779.02 -980.88)"/><path class="cls-4" d="M1131.83,2030.53c-174.23,137.73,88.39,438.75,88.39,438.75l273.22-204.1S1300.58,1897.14,1131.83,2030.53Z" transform="translate(-779.02 -980.88)"/><path class="cls-3" d="M1216.13,2472.85c-19.93-10.48-34.43-25.78-47.42-42.14-13.18-16.24-24.36-34-34.83-52.1s-20.91-36.28-30.47-55a547,547,0,0,1-25.51-58,357.1,357.1,0,0,1-17.36-61.81c-3.87-21.28-5.72-43.29-3.89-65.56a174.52,174.52,0,0,1,18.63-64.79l4-7.58c1.37-2.49,3.13-4.74,4.69-7.12l4.85-7,2.43-3.51,2.79-3.2,11.29-12.67,12.56-11.18a149.13,149.13,0,0,1,60.2-32c22.69-5.87,46.92-5.09,68.86.7s42.16,15.63,60.52,27.25a362.25,362.25,0,0,1,50.64,39.67c31.17,28.91,58,61.3,82.73,95q9.23,12.64,18,25.57c5.84,8.62,12.19,16.92,18.07,25.54a157.18,157.18,0,0,1,15,27.47c3.92,9.8,6.77,20.18,6.33,32.3a6.26,6.26,0,0,1-6.48,6,6.33,6.33,0,0,1-2.93-.85l-.21-.13c-10.1-6-17.45-13.38-24-21.22a213,213,0,0,1-17.13-24.95c-5.11-8.68-10-17.52-15.69-25.85s-11.46-16.57-17.38-24.7c-23.75-32.42-49.54-63.39-78.53-90.26a331.08,331.08,0,0,0-46-36.11c-16.22-10.27-33.41-18.6-51.1-23.16s-35.73-5.06-52.8-.68a116.77,116.77,0,0,0-47.29,25.4c-29.11,23.57-46.43,57.65-49.64,94.93-1.52,18.65,0,37.82,3.48,56.82a323.64,323.64,0,0,0,15.88,56.41,511.85,511.85,0,0,0,24,54.52,525.11,525.11,0,0,0,30,52c11.11,16.74,22.82,33.05,33.66,50,11.1,16.8,21.53,34.1,28.17,54.83l.07.21a5.81,5.81,0,0,1-8.25,6.92Z" transform="translate(-779.02 -980.88)"/><path class="cls-3" d="M1114.61,2079.93c.84,2.63,1.84,6.52,2.75,9.89l2.88,10.58c2,7.09,4,14.24,6.23,21.39s4.51,14.37,7,21.64c2.27,7.46,5,14.75,7.16,23l0,.19a4.11,4.11,0,0,1-6.12,4.54,90.14,90.14,0,0,1-19.74-16.55,121.58,121.58,0,0,1-15.09-20.72,136.37,136.37,0,0,1-11.09-23.19,123,123,0,0,1-3.89-12.35,88.53,88.53,0,0,1-2.39-13.46,16.27,16.27,0,0,1,31.7-6.51Z" transform="translate(-779.02 -980.88)"/><path class="cls-3" d="M1206.43,2017c.84,2.63,1.84,6.52,2.75,9.88l2.88,10.59c2,7.08,4,14.23,6.23,21.38s4.51,14.37,7.06,21.64c2.26,7.46,5,14.75,7.15,23l0,.18a4.12,4.12,0,0,1-6.12,4.55,90.42,90.42,0,0,1-19.74-16.56,121.58,121.58,0,0,1-15.09-20.72,137,137,0,0,1-11.09-23.18,124,124,0,0,1-3.88-12.36,88.49,88.49,0,0,1-2.4-13.46,16.27,16.27,0,0,1,31.7-6.5Z" transform="translate(-779.02 -980.88)"/><path class="cls-4" d="M2630,2030.53c174.24,137.73-88.39,438.75-88.39,438.75l-273.21-204.1S2461.29,1897.14,2630,2030.53Z" transform="translate(-779.02 -980.88)"/><path class="cls-3" d="M2537.56,2465.72c6.65-20.73,17.07-38,28.18-54.83,10.84-17,22.55-33.28,33.65-50a525.11,525.11,0,0,0,30-52,514,514,0,0,0,24-54.52,324.48,324.48,0,0,0,15.87-56.41c3.47-19,5-38.17,3.49-56.82-3.21-37.28-20.54-71.36-49.65-94.93a116.65,116.65,0,0,0-47.29-25.4c-17.07-4.38-35.14-4-52.8.68s-34.87,12.89-51.1,23.16a331,331,0,0,0-46,36.11c-29,26.87-54.79,57.84-78.54,90.26-5.92,8.13-11.74,16.35-17.37,24.7s-10.59,17.17-15.69,25.85a214.19,214.19,0,0,1-17.13,24.95c-6.51,7.84-13.86,15.26-23.95,21.22l-.2.11a6.25,6.25,0,0,1-8.56-2.2,6.36,6.36,0,0,1-.86-3c-.45-12.12,2.41-22.5,6.32-32.3a157.18,157.18,0,0,1,15-27.47c5.89-8.62,12.23-16.92,18.08-25.54s11.87-17.14,18-25.57c24.67-33.67,51.55-66.06,82.72-95a362.84,362.84,0,0,1,50.64-39.67c18.37-11.62,38.45-21.54,60.52-27.25s46.17-6.57,68.86-.7a149.07,149.07,0,0,1,60.2,32l12.57,11.18,11.28,12.67,2.79,3.2,2.44,3.51,4.84,7c1.56,2.38,3.33,4.63,4.69,7.12l4,7.58a174.54,174.54,0,0,1,18.64,64.79c1.82,22.27,0,44.28-3.9,65.56a356.21,356.21,0,0,1-17.36,61.81,542.94,542.94,0,0,1-25.51,58c-9.55,18.73-20,36.87-30.47,55s-21.64,35.86-34.83,52.1c-13,16.36-27.48,31.66-47.42,42.14a5.81,5.81,0,0,1-8.25-6.91Z" transform="translate(-779.02 -980.88)"/><path class="cls-3" d="M2679.47,2084.86a89.74,89.74,0,0,1-2.4,13.46,120.47,120.47,0,0,1-3.89,12.35,136.37,136.37,0,0,1-11.09,23.19,121,121,0,0,1-15.09,20.72,89.91,89.91,0,0,1-19.74,16.55,4.11,4.11,0,0,1-6.12-4.53l.06-.2c2.12-8.22,4.89-15.51,7.15-23,2.54-7.27,4.73-14.54,7.06-21.64s4.25-14.3,6.22-21.39l2.89-10.58c.9-3.37,1.91-7.26,2.75-9.89l.5-1.57a16.27,16.27,0,0,1,31.7,6.5Z" transform="translate(-779.02 -980.88)"/><path class="cls-3" d="M2587.65,2021.94a89.74,89.74,0,0,1-2.4,13.46,121.44,121.44,0,0,1-3.89,12.36,136.27,136.27,0,0,1-11.09,23.18,121,121,0,0,1-15.09,20.72,90.19,90.19,0,0,1-19.74,16.56,4.12,4.12,0,0,1-6.12-4.53l.06-.2c2.12-8.23,4.89-15.52,7.15-23,2.54-7.27,4.73-14.54,7.06-21.64s4.25-14.3,6.22-21.38l2.88-10.59c.91-3.36,1.92-7.25,2.75-9.88l.51-1.58a16.27,16.27,0,0,1,31.7,6.5Z" transform="translate(-779.02 -980.88)"/></svg>