<svg xmlns="http://www.w3.org/2000/svg" viewBox="0 0 662.74 346.85"><defs><style>.cls-1{fill:#8c614c;}.cls-2{fill:#68473a;}.cls-3{fill:#ef6a87;}.cls-4{fill:#ce5d7b;}.cls-5{fill:#fff;opacity:0.47;}.cls-6{fill:#aa735e;}</style></defs><g id="Layer_2" data-name="Layer 2"><g id="Layer_2-2" data-name="Layer 2"><path class="cls-1" d="M138.27,102.33c10.26-9,23.5-13.85,36.56-17.9,4.29-10.86-.34-24.86,7.27-33.71,2.81-3.27,6.86-5.17,10.83-6.87a225.28,225.28,0,0,1,48.8-14.58L246,10.58,309.88.46c2.83-.45,5.85-.87,8.47.28,4.5,2,5.9,7.53,8.61,11.63,7.19,10.9,23.35,10.87,35.72,6.71S387.07,7.8,400.1,8.64C414,9.55,425.54,19.31,436,28.58c10.73,9.56,22.52,23.42,16.6,36.51,11.49.75,23.27,1.56,33.77,6.28S506,85.6,506.85,97.08l30.51,7a344.49,344.49,0,0,1,11.4,64.53c-38.48-.62-79.22-.67-112.34,19-17,10.09-30.82,24.76-47,36.1s-36.73,19.4-55.65,13.63c-25.95-7.92-40.14-38.79-66.43-45.5s-52.06,13.41-79.11,13.4c-21.21,0-41.78-13.78-49.86-33.41C128.23,147.19,113.51,124.13,138.27,102.33Z"/><path class="cls-2" d="M537.36,104.07l-30.51-7c-.88-11.48-10-21-20.52-25.71s-22.28-5.53-33.77-6.28C458.48,52,446.69,38.14,436,28.58,425.54,19.31,414,9.55,400.1,8.64c-13-.84-25,6.27-37.42,10.44-1.15.38-2.34.74-3.54,1.05,3.46,2.68,6.79,5.59,10,8.45,10.73,9.56,22.52,23.42,16.6,36.51,11.49.75,23.26,1.56,33.76,6.28S439.15,85.6,440,97.08l30.51,7A344.49,344.49,0,0,1,482,168.6c-38.49-.62-79.22-.67-112.34,19-17,10.09-30.82,24.76-47,36.1q-3.1,2.17-6.41,4.16a56.21,56.21,0,0,0,17.58,9.47c18.92,5.77,39.44-2.29,55.65-13.63s30-26,47-36.1c33.12-19.62,73.86-19.57,112.34-19A344.49,344.49,0,0,0,537.36,104.07Z"/><path class="cls-2" d="M200.51,191.78c-13.7-3.49-27.31.33-41,4.78a53.93,53.93,0,0,0,28.74,8.62c9.7,0,19.24-2.58,28.7-5.58A50.73,50.73,0,0,0,200.51,191.78Z"/><path class="cls-3" d="M629.36,303.93,574.84,151.27a31.5,31.5,0,0,0-29.67-20.91H117.57A31.5,31.5,0,0,0,87.9,151.27L33.38,303.93H0v42.92H662.74V303.93Z"/><path class="cls-4" d="M629.36,303.93,574.84,151.27a31.5,31.5,0,0,0-29.67-20.91H491.49a31.51,31.51,0,0,1,29.67,20.91l54.52,152.66h33.38v42.92h53.68V303.93Z"/><polygon class="cls-4" points="575.68 303.93 219.73 303.93 587.85 269.6 575.68 303.93"/><path class="cls-5" d="M106.25,166.05c2,2.67,6.62,3.23,10.6,3.48A929,929,0,0,0,241,169c5.24-.37,10.75-.86,15-3.23s6.75-7.28,3.85-10.7c-2.63-3.11-8.12-3.63-12.91-3.85L221.1,150l-34.85-1.63c-19-.89-37.84-1.48-56.83-.29C119.54,148.74,96.69,153.51,106.25,166.05Z"/><path class="cls-5" d="M280.78,153.12c-3.55,1.24-3.47,6.83-.63,9.28s7,2.59,10.7,2.45c3.33-.12,6.79-.39,9.69-2s5-5.07,4.21-8.3c-1.33-5.09-8.27-5.94-13.39-4.75a42.47,42.47,0,0,0-11.5,4.5Z"/><path class="cls-5" d="M13.78,321.32a4,4,0,0,0-.92,2.57,4.18,4.18,0,0,0,1.93,2.66c5.23,3.94,11.93,5.51,18.48,5.67s13-1,19.52-2a443.35,443.35,0,0,1,123.37-1.54c11.89,1.52,23.8,3.53,35.77,3,4.64-.19,10.24-1.54,11.54-6,.95-3.29-1.05-6.74-3.48-9.15-5.83-5.78-14.3-8.21-22.51-8.5s-16.34,1.36-24.45,2.64c-44.24,7-89.13,3.41-133.68,3.27C30.06,314,19.84,312.53,13.78,321.32Z"/><path class="cls-6" d="M217.28,58.79a7.68,7.68,0,0,0-3.3,3.05c-1,2-.14,4.53,1.2,6.36,4,5.48,11.43,6.89,18,8.54a103,103,0,0,1,18,6.34c3.84,1.76,7.77,3.81,12,3.72,6.9-.15,12.88-7.13,11.86-14-.62-4.16-3.41-7.75-6.83-10.18a38.8,38.8,0,0,0-11.47-5.05C243,53.46,230.42,51.15,217.28,58.79Z"/><path class="cls-6" d="M162.07,105.51c-2.11,1.52-4.31,3.32-4.87,5.86-.89,4,2.89,7.74,6.89,8.48s8-.62,11.95-1.78a133.09,133.09,0,0,1,44.49-5.41c3.07.15,6.7.16,8.5-2.33a6.46,6.46,0,0,0,1.07-3.06C231,99.6,224.19,93,217,90.2,197.93,82.69,177.29,94.53,162.07,105.51Z"/><path class="cls-6" d="M279.06,95.88a24.73,24.73,0,0,0-2.56,7l-2.7,10.62c-.28,1.13-.51,2.49.3,3.32a3.49,3.49,0,0,0,2.19.74A317.12,317.12,0,0,0,314,118.9a6.39,6.39,0,0,0,3.35-.69,6.58,6.58,0,0,0,2.28-3.38c1.56-3.88,3.15-7.85,3.3-12C323.71,83.45,287.46,82.29,279.06,95.88Z"/><path class="cls-6" d="M265.72,18.87a76.46,76.46,0,0,1,39.91,3.25c3.53,1.28,7.65,2.77,10.8.74,3-1.92,3.45-6.47,1.56-9.48s-5.5-4.58-9-4.93-7.09.35-10.59.93c-11.5,1.93-23,1.06-34.41,2.4C253.87,13,253.71,21.12,265.72,18.87Z"/><path class="cls-6" d="M298.27,45.46C296,50.26,296,55.78,296.1,61.09c0,3.83.39,8.26,3.5,10.49,2.79,2,6.67,1.35,9.89.14,3-1.13,6.07-2.94,7.13-6,.72-2.07.36-4.35.57-6.54.48-5.06,4.12-9.43,8.55-11.91s9.59-3.36,14.65-3.79a21.05,21.05,0,0,0,6.61-1.2c14-6-11-16.88-18.13-15.68C318.52,28.37,303,35.5,298.27,45.46Z"/></g></g></svg>