<svg xmlns="http://www.w3.org/2000/svg" viewBox="0 0 192.45 180.9"><defs><style>.cls-1,.cls-12,.cls-13,.cls-15,.cls-18,.cls-19,.cls-20,.cls-4,.cls-7,.cls-8{fill:none;}.cls-1,.cls-4{stroke:#ffb149;}.cls-1,.cls-19,.cls-20,.cls-4,.cls-7,.cls-8{stroke-miterlimit:10;}.cls-1{stroke-width:1.07px;}.cls-2{fill:#fff;}.cls-3{fill:#f6a134;}.cls-4{stroke-width:0.95px;}.cls-5{fill:#fecbc8;}.cls-6{fill:#f4dec9;}.cls-7{stroke:#775efa;}.cls-8{stroke:#9c89fd;stroke-width:0.93px;}.cls-9{fill:#9c89fd;}.cls-10{fill:#febb64;}.cls-11{fill:#1e1a19;}.cls-12,.cls-15,.cls-18,.cls-19,.cls-20{stroke:#1e1a19;}.cls-12,.cls-15,.cls-18{stroke-linecap:round;stroke-linejoin:round;}.cls-12{stroke-width:0.67px;}.cls-14{fill:#fcbfbe;}.cls-15{stroke-width:0.31px;}.cls-16{fill:#504e4f;}.cls-17{fill:#5b5a5b;}.cls-18{stroke-width:0.21px;}.cls-19{stroke-width:0.25px;}.cls-20{stroke-width:0.19px;}</style></defs><g id="Layer_2" data-name="Layer 2"><g id="OBJECTS"><line class="cls-1" x1="155.89" y1="155.21" x2="171.19" y2="106.14"/><path class="cls-2" d="M173.74,106.55c6.31,4.13,9.49,10.43,7.1,14.07s-9.43,3.25-15.74-.87-9.49-10.43-7.1-14.08S167.43,102.42,173.74,106.55Z"/><path class="cls-3" d="M172.3,109.29c1.8,1.18,2.72,2.95,2.07,3.95s-2.65.87-4.45-.31-2.73-2.94-2.07-4S170.5,108.11,172.3,109.29Z"/><rect class="cls-3" x="176.05" y="112.66" width="0.32" height="10.39" transform="translate(-35.05 100.32) rotate(-29.03)"/><polygon class="cls-3" points="170.27 122.24 171.65 112.63 171.34 112.59 169.96 122.19 170.27 122.24"/><polygon class="cls-3" points="160.34 115.66 169.36 111.73 169.23 111.43 160.22 115.36 160.34 115.66"/><polygon class="cls-3" points="168.86 110.23 168.95 109.92 157.53 106.61 157.44 106.92 168.86 110.23"/><polygon class="cls-3" points="169.97 109.38 170.25 109.22 167.08 103.49 166.8 103.65 169.97 109.38"/><rect class="cls-3" x="172.16" y="108.5" width="3.36" height="0.32" transform="translate(-17.86 181.33) rotate(-52.77)"/><polygon class="cls-3" points="180.53 113.95 180.6 113.64 173.41 111.97 173.33 112.28 180.53 113.95"/><line class="cls-4" x1="154.09" y1="159.39" x2="188.63" y2="129.52"/><path class="cls-2" d="M190.41,131c3,6.05,2.53,12.28-1,13.92s-8.8-1.94-11.77-8-2.53-12.28,1-13.92S187.44,125,190.41,131Z"/><path class="cls-3" d="M188,132.4c.85,1.73.75,3.49-.23,3.94s-2.45-.58-3.3-2.3-.74-3.49.23-3.94S187.18,130.68,188,132.4Z"/><polygon class="cls-3" points="186.82 145.27 187.11 145.28 187.38 136.08 187.09 136.07 186.82 145.27"/><polygon class="cls-3" points="180.48 141.22 185.99 134.62 185.76 134.44 180.25 141.04 180.48 141.22"/><polygon class="cls-3" points="175.84 131.64 184.63 132.87 184.67 132.59 175.87 131.36 175.84 131.64"/><polygon class="cls-3" points="184.94 131.51 185.15 131.32 177.84 123.52 177.63 123.71 184.94 131.51"/><polygon class="cls-3" points="186.19 131.38 186.48 131.4 186.68 125.61 186.39 125.59 186.19 131.38"/><polygon class="cls-3" points="188.16 133.31 190.97 132.24 190.87 131.98 188.05 133.05 188.16 133.31"/><polygon class="cls-3" points="192.25 139.74 192.45 139.54 187.65 134.94 187.45 135.14 192.25 139.74"/><path class="cls-5" d="M154.22,134.53c1.89-3.53,4.23-7.13,7.9-8.74a13.48,13.48,0,0,1-.28,4,71.64,71.64,0,0,1-7,19.49c-1.37,2.69-7.44,16.36-10.39,16.08C144.56,155.07,149.44,143.46,154.22,134.53Z"/><path class="cls-5" d="M164.92,139.43c3-2.6,6.54-5.1,10.54-5.27a13.7,13.7,0,0,1-1.71,3.63,71.85,71.85,0,0,1-13.6,15.61c-2.26,2-12.89,12.53-15.53,11.2C148.46,155.05,157.22,146,164.92,139.43Z"/><path class="cls-5" d="M166.44,151.11c3-1.21,6.29-2.23,9.38-1.33a10.7,10.7,0,0,1-2.23,2.33,58,58,0,0,1-14.36,8.45c-2.24.95-13,6.28-14.71,4.58C149.89,158.83,158.88,154.17,166.44,151.11Z"/><line class="cls-1" x1="36.56" y1="154.11" x2="21.25" y2="105.04"/><path class="cls-2" d="M18.71,105.44c-6.31,4.13-9.49,10.43-7.1,14.08s9.43,3.25,15.74-.88,9.48-10.43,7.1-14.07S25,101.32,18.71,105.44Z"/><path class="cls-3" d="M20.15,108.19c-1.8,1.18-2.73,3-2.07,4s2.65.87,4.45-.31,2.72-3,2.07-4S22,107,20.15,108.19Z"/><rect class="cls-3" x="11.04" y="116.59" width="10.39" height="0.32" transform="translate(-93.72 74.28) rotate(-60.97)"/><polygon class="cls-3" points="22.17 121.13 20.79 111.53 21.11 111.48 22.49 121.09 22.17 121.13"/><polygon class="cls-3" points="32.1 114.56 23.09 110.62 23.21 110.33 32.23 114.26 32.1 114.56"/><polygon class="cls-3" points="23.58 109.13 23.49 108.82 34.92 105.51 35 105.82 23.58 109.13"/><polygon class="cls-3" points="22.48 108.27 22.2 108.12 25.36 102.39 25.64 102.55 22.48 108.27"/><rect class="cls-3" x="18.45" y="105.88" width="0.32" height="3.36" transform="translate(-61.28 33.18) rotate(-37.23)"/><polygon class="cls-3" points="11.92 112.85 11.85 112.54 19.04 110.87 19.11 111.18 11.92 112.85"/><line class="cls-4" x1="38.35" y1="158.29" x2="3.82" y2="128.41"/><path class="cls-2" d="M2,129.9c-3,6-2.52,12.28,1,13.92s8.81-1.94,11.78-8,2.52-12.27-1-13.91S5,123.85,2,129.9Z"/><path class="cls-3" d="M4.41,131.3c-.84,1.72-.74,3.49.23,3.94s2.45-.58,3.3-2.3.75-3.49-.23-3.94S5.26,129.58,4.41,131.3Z"/><polygon class="cls-3" points="5.62 144.17 5.33 144.18 5.07 134.98 5.35 134.97 5.62 144.17"/><polygon class="cls-3" points="11.97 140.12 6.46 133.52 6.68 133.34 12.19 139.94 11.97 140.12"/><polygon class="cls-3" points="16.61 130.54 7.81 131.77 7.78 131.49 16.57 130.26 16.61 130.54"/><polygon class="cls-3" points="7.51 130.41 7.3 130.22 14.61 122.41 14.82 122.6 7.51 130.41"/><polygon class="cls-3" points="6.26 130.28 5.97 130.29 5.77 124.5 6.06 124.49 6.26 130.28"/><polygon class="cls-3" points="4.29 132.21 1.47 131.14 1.58 130.87 4.39 131.94 4.29 132.21"/><polygon class="cls-3" points="0.2 138.64 0 138.44 4.8 133.83 5 134.03 0.2 138.64"/><path class="cls-5" d="M38.23,133.43c-1.89-3.53-4.23-7.13-7.9-8.74a13.16,13.16,0,0,0,.28,4,71.62,71.62,0,0,0,7,19.49C39,150.87,45,164.54,48,164.26,47.88,154,43,142.36,38.23,133.43Z"/><path class="cls-5" d="M27.52,138.33c-3-2.61-6.53-5.11-10.53-5.27a13.24,13.24,0,0,0,1.71,3.63A72.08,72.08,0,0,0,32.3,152.3c2.26,2,12.88,12.53,15.53,11.19C44,153.94,35.22,144.91,27.52,138.33Z"/><path class="cls-5" d="M26,150c-3-1.21-6.29-2.23-9.39-1.34A10.81,10.81,0,0,0,18.86,151a57.77,57.77,0,0,0,14.36,8.45c2.23.95,13,6.28,14.71,4.58C42.56,157.73,33.57,153.07,26,150Z"/><path class="cls-6" d="M142.58,163.84c-27.82-1.1-55.66-2.21-83.54-2.14a165.32,165.32,0,0,0-20.93,1,48.5,48.5,0,0,0-10.44,2.37,3.22,3.22,0,0,0-1.27.71c-1.76,2,4.22,2.88,6,3.85.1.05.22.13.19.22s-.16.12-.28.15c-1.83.49-3.75.75-5.67,1.07a23,23,0,0,0-5.55,1.75c-.65.29-1.34.65-1.47,1.15-.24.91,1.43,1.53,2.84,1.83a154.16,154.16,0,0,0,17.26,2.36,616.13,616.13,0,0,0,93.45,1.52c7.16-.43,14.52-1,20.79-3.23,2.15-.76,4.14-1.69,6.39-2.31,5.85-1.59,12.92-.92,18.46-2.9a2.82,2.82,0,0,0,1.4-.83c.42-.67-.34-1.39-1.14-1.9-4.57-2.9-9.62-2.51-15.4-3.08C156.62,164.72,149.73,164.12,142.58,163.84Z"/><path class="cls-7" d="M26.56,166.31H163.18a13.11,13.11,0,0,0,9.71-21.92L101.44,73.22"/><line class="cls-8" x1="23.94" y1="57.44" x2="28.09" y2="57.44"/><line class="cls-8" x1="21.25" y1="73.18" x2="26.63" y2="72.41"/><line class="cls-8" x1="22.13" y1="88.81" x2="28.38" y2="87.09"/><circle class="cls-8" cx="98.08" cy="77.18" r="76.71"/><ellipse class="cls-8" cx="98.84" cy="71.72" rx="72.25" ry="70.09"/><line class="cls-8" x1="26.02" y1="101.8" x2="32.15" y2="98.73"/><line class="cls-8" x1="41.71" y1="129.19" x2="48.29" y2="121.8"/><line class="cls-8" x1="71.4" y1="149.12" x2="76.95" y2="138.53"/><line class="cls-8" x1="112.7" y1="152.49" x2="112.7" y2="140.52"/><line class="cls-8" x1="146.36" y1="124.51" x2="152.67" y2="131.06"/><line class="cls-8" x1="167.35" y1="92.96" x2="172.86" y2="94.33"/><line class="cls-8" x1="171.06" y1="73.36" x2="174.66" y2="72.7"/><path class="cls-9" d="M103.78,71.12a4.95,4.95,0,1,1-4.94-4.94A4.95,4.95,0,0,1,103.78,71.12Z"/><line class="cls-8" x1="98.98" y1="0.47" x2="98.98" y2="141.78"/><line class="cls-8" x1="98.98" y1="0.47" x2="98.98" y2="141.78"/><line class="cls-8" x1="148.94" y1="21.16" x2="48.29" y2="121.8"/><line class="cls-8" x1="171.08" y1="71.12" x2="26.59" y2="71.12"/><line class="cls-8" x1="149.52" y1="121.67" x2="49.01" y2="21.16"/><line class="cls-8" x1="160.14" y1="108.82" x2="165.87" y2="113.12"/><line class="cls-8" x1="130.3" y1="134.83" x2="132.73" y2="145.63"/><line class="cls-8" x1="95.37" y1="141.81" x2="93.22" y2="153.73"/><line class="cls-8" x1="62.98" y1="132.59" x2="57.3" y2="141.81"/><line class="cls-8" x1="33.09" y1="117.95" x2="39.85" y2="112.2"/><line class="cls-8" x1="31.27" y1="39.47" x2="34" y2="40.76"/><path class="cls-2" d="M146.68,141.18v.24c0,6.72-1.58,13.62-5.61,19-12.79,17-43.93,16.71-62.69,13.42-7.61-1.33-15.49-3.58-21.47-7.88A23,23,0,0,1,47,149.41c-1.15-9.19,1.83-18.41,5.67-26.83.24-.52.48-1,.73-1.53,3.5-7.38,7.84-14.59,10.22-22.41.71-2.32,1.29-4.67,1.83-7,1.38-6.05,2.43-12.2,4.28-18.13,1.72-5.51,4.13-11,8.48-14.82S88.16,53.32,93.76,53c.79,0,1.58-.07,2.38-.08a58.6,58.6,0,0,1,6.6.25c1.2.13,2.4.29,3.58.5,9.1,1.6,17.49,6.12,21.5,14.77,3.32,7.22,3.41,15.32,5.15,23a39.47,39.47,0,0,0,1.23,4.41c.85,2.48,1.76,4.92,2.67,7.34C141.59,115.57,146.66,127.35,146.68,141.18Z"/><path class="cls-10" d="M97.31,66.09a32.79,32.79,0,0,1-14,21,26,26,0,0,1-14.13,4.83,12.15,12.15,0,0,1-3.76-.32c1.38-6.05,2.43-12.2,4.28-18.13,1.72-5.51,4.13-11,8.48-14.82S88.16,53.32,93.76,53c.79,0,1.58-.07,2.38-.08s1.43,6.06,1.48,6.72A26.13,26.13,0,0,1,97.31,66.09Z"/><path class="cls-10" d="M133,91.44c-8.44-2.58-19.56-4.54-24.92-11.56-4.41-5.77-3.78-16-4.81-23.18-.19-1.3-.44-2.49-.5-3.52,1.2.13,2.4.29,3.58.5,9.1,1.6,17.49,6.12,21.5,14.77C131.14,75.67,131.23,83.77,133,91.44Z"/><path class="cls-10" d="M57.2,152.07c.24,3.49,1.08,7,.68,10.46a11,11,0,0,1-1,3.42A23,23,0,0,1,47,149.41c-1.15-9.19,1.83-18.41,5.67-26.83.24-.52.48-1,.73-1.53,3.36,2.49,4.61,10,4.67,13.07C58.19,140.11,56.79,146.09,57.2,152.07Z"/><path class="cls-10" d="M146.68,141.18a3.77,3.77,0,0,1-1.61-.38c-3.12-1.5-3.67-5.62-4-9.06a72,72,0,0,0-3.38-15.27c-.94-2.81-2.09-5.66-2.07-8.63a9.78,9.78,0,0,1,1.3-4.65C141.59,115.57,146.66,127.35,146.68,141.18Z"/><path class="cls-10" d="M70.25,76.71S50.13,73.51,56.63,53.4s27.64-2.24,26.91,5.18S70.25,76.71,70.25,76.71Z"/><path class="cls-10" d="M129.26,78.28s20.22-2.49,14.42-22.82-27.54-3.2-27.06,4.24S129.26,78.28,129.26,78.28Z"/><path class="cls-11" d="M88.65,78.21a3.13,3.13,0,1,1-3.13-3.13A3.13,3.13,0,0,1,88.65,78.21Z"/><path class="cls-11" d="M115.28,78.21a3.13,3.13,0,1,1-3.13-3.13A3.13,3.13,0,0,1,115.28,78.21Z"/><path class="cls-12" d="M96.72,85.12s2.33,1.28,3.54,1.12a8.74,8.74,0,0,0,3-1.41"/><line class="cls-12" x1="100.12" y1="91.48" x2="100.12" y2="86.24"/><circle class="cls-5" cx="78.75" cy="88.61" r="6.83"/><circle class="cls-5" cx="119.49" cy="88.61" r="6.83"/><path class="cls-13" d="M150.33,108.65l.57,2.17"/><path class="cls-14" d="M59.14,171.48a6.61,6.61,0,0,0-3.06,2c.16.56.87.73,1.45.76a29.25,29.25,0,0,0,5.29-.3l8.46-1a3.41,3.41,0,0,0,1.73-.52c-.06.05-3-1.59-3.29-1.72a16.89,16.89,0,0,0-3.81-1.14C63.7,169.29,61.16,170.66,59.14,171.48Z"/><path class="cls-14" d="M133.88,171.48a6.51,6.51,0,0,1,3.06,2c-.16.56-.86.73-1.45.76a29.35,29.35,0,0,1-5.29-.3l-8.46-1a3.4,3.4,0,0,1-1.72-.52c.06.05,3-1.59,3.29-1.72a17,17,0,0,1,3.8-1.14C129.33,169.29,131.87,170.66,133.88,171.48Z"/><path class="cls-15" d="M140.43,151a5.09,5.09,0,0,0,.58-2"/><path class="cls-15" d="M142.32,146.44a3.72,3.72,0,0,1,0,2.4"/><path class="cls-15" d="M142.2,150.41a18.86,18.86,0,0,1-1,2.7"/><path class="cls-15" d="M72.37,77.07a5.37,5.37,0,0,0-.58,2"/><path class="cls-15" d="M70.49,81.68a3.82,3.82,0,0,1,0-2.41"/><path class="cls-15" d="M70.6,77.7a18.82,18.82,0,0,1,1-2.7"/><path class="cls-16" d="M104.56,112.43c-.13.56-.28,1.11-.46,1.66a4.82,4.82,0,0,1-1.94,2.84,3.35,3.35,0,0,1-.47.21,4,4,0,0,1-1.38.23,5,5,0,0,1-1-.09,6.26,6.26,0,0,1-2.22-.88,6.9,6.9,0,0,1-1.78-1.61,1.64,1.64,0,0,1-.2-.26,12.38,12.38,0,0,1-1.63-3.62,25.25,25.25,0,0,1-1.2-10.46,16.07,16.07,0,0,1,4.31-9.35l.33-.34a8.22,8.22,0,0,1,3-2.06,2.37,2.37,0,0,1,2.59.58A7.36,7.36,0,0,1,104.29,93c.15.75.25,1.48.35,2.15C105.43,100.92,106,106.79,104.56,112.43Z"/><path class="cls-17" d="M102.16,116.93a3.35,3.35,0,0,1-.47.21,4,4,0,0,1-1.38.23c0-.59,0-1.15,0-1.63q-.35-4.59-.49-9.18c-.19-5.94-.13-11.89.16-17.81v0a2.5,2.5,0,0,1,1.62,0c.11,1.58.11,3.18.12,4.77q0,7.47,0,15C101.69,110.68,102.14,113.94,102.16,116.93Z"/><path class="cls-17" d="M97.14,116.4a6.9,6.9,0,0,1-1.78-1.61,1.64,1.64,0,0,1-.2-.26q-.27-4-.4-8-.2-6.51,0-13a16.71,16.71,0,0,1,1.9-2.44c0,.78,0,1.55,0,2.33q0,7.47,0,15C96.68,110.54,97.08,113.56,97.14,116.4Z"/><path class="cls-17" d="M104.56,112.43q-.18-2.93-.27-5.87-.21-6.77,0-13.54c.15.75.25,1.48.35,2.15C105.43,100.92,106,106.79,104.56,112.43Z"/><path class="cls-5" d="M90.63,96.77c.33-.21.76-.41,1.07-.19a17.16,17.16,0,0,1-1.15,1.76A7.57,7.57,0,0,1,94,96.68a.4.4,0,0,1,.34,0c.17.14,0,.41-.13.57l-1.8,1.91a3.51,3.51,0,0,1,2.23-.51.53.53,0,0,1,.39.26.6.6,0,0,1-.17.54c-1.18,1.65-2.47,3.22-3.78,4.77a5.92,5.92,0,0,1-2.8,2.19c.49-.13-1.73-5.16-2.17-5.53s1.49-1.73,2-2.23A19.92,19.92,0,0,1,90.63,96.77Z"/><path class="cls-18" d="M69.45,106.76s11.73-8.5,16.07-6.07,4,17.6-1.12,26.1-7.28,11.1-13.35,14.42"/><path class="cls-18" d="M71.15,141.14a5.93,5.93,0,0,1,2.31-.47c.22,0,.52.1.49.32a.41.41,0,0,1-.22.25,5.5,5.5,0,0,1-1.79.69.73.73,0,0,1,.55.32.56.56,0,0,1-.32.69,1.51,1.51,0,0,1-.82.07l-1.08-.09"/><path class="cls-18" d="M68.16,105.36a3.86,3.86,0,0,1,1.11-2c.12-.12.34-.23.45-.1a.25.25,0,0,1,.06.18,5.09,5.09,0,0,1-.65,2.59l.75-1a.22.22,0,0,1,.15-.1.11.11,0,0,1,.1,0c.21.18.12.53,0,.79a5.57,5.57,0,0,1-.74,1.12"/><path class="cls-5" d="M108.64,97.18c-.32-.21-.75-.41-1.07-.19a20.45,20.45,0,0,0,1.15,1.76,7.29,7.29,0,0,0-3.47-1.66.35.35,0,0,0-.33,0c-.17.14,0,.41.13.56l1.8,1.92a3.48,3.48,0,0,0-2.23-.51.5.5,0,0,0-.39.26c-.07.18,0,.38.16.54,1.19,1.64,2.48,3.21,3.78,4.77.78.92,2,2.31,3.15,2.61-.49-.12,1.89-5.61,1.82-6-.15-.74-1.48-1.74-2-2.23A18.45,18.45,0,0,0,108.64,97.18Z"/><path class="cls-18" d="M130.27,106.76s-11.74-8.5-16.08-6.07-4,17.6,1.12,26.1,7.28,11.1,13.35,14.42"/><path class="cls-18" d="M128.57,141.14a5.93,5.93,0,0,0-2.31-.47c-.22,0-.53.1-.5.32s.13.19.22.25a5.47,5.47,0,0,0,1.8.69.72.72,0,0,0-.55.32.55.55,0,0,0,.31.69,1.55,1.55,0,0,0,.83.07l1.07-.09"/><path class="cls-18" d="M131.56,105.36a3.88,3.88,0,0,0-1.12-2c-.12-.12-.33-.23-.45-.1a.39.39,0,0,0-.06.18,5.2,5.2,0,0,0,.66,2.59l-.76-1s-.08-.1-.14-.1a.1.1,0,0,0-.1,0c-.22.18-.13.53,0,.79a6,6,0,0,0,.73,1.12"/><path class="cls-5" d="M127.45,54.52c2.76-1.94,6.45-3.21,9.5-1.77a7.58,7.58,0,0,1,2.65,2.19c2.27,2.91,2.64,6.88,2.27,10.56a11.59,11.59,0,0,1-1,4.14c-1.1,2.16-3.22,3.6-5.34,4.79-1.24.7-2.68,1.36-4,.95-1.86-.57-2.57-2.75-3.24-4.58-1.27-3.5-3.74-5.8-5.45-8.94C121.18,59,125.34,56,127.45,54.52Z"/><path class="cls-10" d="M130.23,64.48a.92.92,0,0,1,.48.39,5.25,5.25,0,0,1,.56,3.26c0,.89-.07,1.77-.11,2.65a5.89,5.89,0,0,1,4.38-3A3.08,3.08,0,0,1,137,68a2.51,2.51,0,0,1,1.1.86,3.86,3.86,0,0,1,.22,4,6.44,6.44,0,0,1-3.06,2.79,8.13,8.13,0,0,1-1.93.65c-2.92.57-6.46-1.13-6.93-4.32C126.2,70.45,128.31,63.94,130.23,64.48Z"/><path class="cls-18" d="M130.72,78.28a25.54,25.54,0,0,0-7.09-10.44"/><path class="cls-18" d="M130.27,71.63c-.19.23.86,3.94.45,6.65"/><path class="cls-5" d="M59.26,68.19a12.48,12.48,0,0,1-2-11.3A11.32,11.32,0,0,1,67.7,49.66a12.79,12.79,0,0,1,11,6.77,2,2,0,0,1,.29.94,1.86,1.86,0,0,1-.47,1.06c-1.08,1.44-2.53,2.56-3.67,4A23.83,23.83,0,0,0,71.77,68c-.73,1.67-1.44,3.34-2.18,5-.85,1.92-1.2,1.7-3.08.84A18.2,18.2,0,0,1,59.26,68.19Z"/><path class="cls-10" d="M61.08,70.38a2.19,2.19,0,0,1-.39-1.23,1.67,1.67,0,0,1,1.25-1.36,4.11,4.11,0,0,1,1.94,0,18.7,18.7,0,0,1,3.43,1,5.7,5.7,0,0,1,.33-5.43A3.16,3.16,0,0,1,69.2,62c1.38-.47,2.85.55,3.66,1.77a11.3,11.3,0,0,1,1.6,4.67C75.75,77.19,64.25,75.79,61.08,70.38Z"/><path class="cls-18" d="M74.56,66.09A20.5,20.5,0,0,0,68.9,76.41"/><path class="cls-18" d="M70.26,67.84s-1.48,2.6-1.36,8.57"/><path class="cls-16" d="M132.42,177.84l-.76-.2a2.44,2.44,0,0,1-1.29-.74.83.83,0,0,1-.09-.16,1,1,0,0,1-.08-.47,1.65,1.65,0,0,1,.06-.32,1.85,1.85,0,0,1,.46-.72,2.79,2.79,0,0,1,.79-.55l.13-.06a7.09,7.09,0,0,1,1.73-.44,15.92,15.92,0,0,1,4.92-.1,9.94,9.94,0,0,1,3.18,1,8,8,0,0,1,1.11.71l.15.12a2.81,2.81,0,0,1,.9,1.05.66.66,0,0,1,0,.55.91.91,0,0,1-.31.31,4.32,4.32,0,0,1-1.79.48l-1,.06A29.53,29.53,0,0,1,132.42,177.84Z"/><path class="cls-17" d="M130.37,176.9a.83.83,0,0,1-.09-.16,1,1,0,0,1-.08-.47l.76,0c1.44,0,2.88,0,4.31.1q4.18.16,8.34.57h0a.66.66,0,0,1,0,.55c-.75,0-1.49-.06-2.24-.1l-7-.43C133.31,176.93,131.77,177,130.37,176.9Z"/><path class="cls-17" d="M130.72,175.23a2.79,2.79,0,0,1,.79-.55l.13-.06c1.25,0,2.49,0,3.74.1,2,.08,4.07.2,6.09.37a8,8,0,0,1,1.11.71l-1.09-.06-7-.43C133.47,175.25,132.05,175.29,130.72,175.23Z"/><path class="cls-17" d="M132.42,177.84c.92,0,1.84,0,2.76.08q3.18.12,6.34.39l-1,.06A29.53,29.53,0,0,1,132.42,177.84Z"/><ellipse class="cls-10" cx="144.73" cy="178.9" rx="6.61" ry="2"/><line class="cls-19" x1="138.13" y1="178.9" x2="151.34" y2="178.9"/><path class="cls-10" d="M154.33,175.07c0,.85-2.29,1.55-5.12,1.55s-5.13-.7-5.13-1.55,2.3-1.55,5.13-1.55S154.33,174.21,154.33,175.07Z"/><line class="cls-20" x1="144.08" y1="175.07" x2="154.33" y2="175.07"/><path class="cls-16" d="M46,178.55l-.93-.24a3,3,0,0,1-1.56-.89,1.28,1.28,0,0,1-.11-.2,1.11,1.11,0,0,1-.09-.57,1.22,1.22,0,0,1,.07-.38,2.14,2.14,0,0,1,.56-.87,3.2,3.2,0,0,1,1-.67l.16-.07a8.13,8.13,0,0,1,2.09-.54,19.47,19.47,0,0,1,5.95-.12,12.12,12.12,0,0,1,3.85,1.22,9.85,9.85,0,0,1,1.34.86c.06,0,.12.09.18.15a3.47,3.47,0,0,1,1.09,1.27.76.76,0,0,1,0,.66,1.12,1.12,0,0,1-.38.37,5.06,5.06,0,0,1-2.16.59c-.43,0-.85,0-1.23.07A35.86,35.86,0,0,1,46,178.55Z"/><path class="cls-17" d="M43.5,177.42a1.28,1.28,0,0,1-.11-.2,1.11,1.11,0,0,1-.09-.57l.92,0c1.74,0,3.48.05,5.21.12,3.37.13,6.74.36,10.09.69h0a.76.76,0,0,1,0,.66c-.9,0-1.81-.07-2.71-.12l-8.47-.51C47.05,177.45,45.19,177.51,43.5,177.42Z"/><path class="cls-17" d="M43.93,175.4a3.2,3.2,0,0,1,1-.67l.16-.07c1.51,0,3,.06,4.52.11q3.69.15,7.37.45a9.85,9.85,0,0,1,1.34.86L57,176l-8.47-.52C47.26,175.42,45.54,175.47,43.93,175.4Z"/><path class="cls-17" d="M46,178.55c1.11,0,2.22,0,3.33.1,2.56.1,5.12.25,7.67.47-.43,0-.85,0-1.23.07A35.86,35.86,0,0,1,46,178.55Z"/><path class="cls-10" d="M62.11,179.25c0,.85-2.29,1.55-5.12,1.55s-5.13-.7-5.13-1.55,2.3-1.55,5.13-1.55S62.11,178.39,62.11,179.25Z"/><line class="cls-20" x1="51.86" y1="179.25" x2="62.11" y2="179.25"/><path class="cls-10" d="M46,179.25c0,.85-2.3,1.55-5.13,1.55s-5.12-.7-5.12-1.55,2.29-1.55,5.12-1.55S46,178.39,46,179.25Z"/><line class="cls-20" x1="35.74" y1="179.25" x2="45.99" y2="179.25"/></g></g></svg>