<svg xmlns="http://www.w3.org/2000/svg" viewBox="0 0 335.51 227.96"><defs><style>.cls-1{fill:#002d48;}.cls-2{fill:#fee38b;}.cls-3{fill:#015d88;}.cls-4{fill:#615142;}.cls-5{fill:#4e4032;}.cls-6{fill:#f1a38c;}.cls-7{fill:#dd795c;}.cls-8{fill:#705d4e;}.cls-9{fill:#211705;}.cls-10{fill:#fff;}.cls-11{fill:#3b2f21;}</style></defs><g id="Layer_2" data-name="Layer 2"><g id="Capa_1" data-name="Capa 1"><rect class="cls-1" x="7.31" y="189.85" width="320.88" height="30.21"/><rect class="cls-2" x="7.31" y="195.21" width="320.88" height="24.85"/><polygon class="cls-3" points="312.53 211.34 161.11 211.34 175.86 119.27 177.42 119.52 162.96 209.76 310.68 209.76 296.22 119.52 297.78 119.27 312.53 211.34"/><rect class="cls-3" x="236.2" y="59.63" width="1.23" height="119.71"/><rect class="cls-3" x="176.97" y="118.87" width="119.71" height="1.23"/><rect class="cls-3" x="176.97" y="118.87" width="119.71" height="1.23" transform="translate(-15.12 202.47) rotate(-45)"/><rect class="cls-3" x="236.21" y="59.63" width="1.23" height="119.71" transform="translate(-15.12 202.45) rotate(-45)"/><rect class="cls-3" x="176.97" y="118.87" width="119.71" height="1.23" transform="translate(36.97 293.9) rotate(-67.88)"/><rect class="cls-3" x="236.21" y="59.63" width="1.23" height="119.71" transform="translate(36.86 293.77) rotate(-67.85)"/><rect class="cls-3" x="176.97" y="118.87" width="119.71" height="1.23" transform="translate(-27.81 101.37) rotate(-22.86)"/><rect class="cls-3" x="236.21" y="59.63" width="1.23" height="119.71" transform="translate(-27.81 101.33) rotate(-22.85)"/><path class="cls-3" d="M236.82,181.28a61.8,61.8,0,1,1,61.8-61.8A61.87,61.87,0,0,1,236.82,181.28Zm0-119.3a57.5,57.5,0,1,0,57.5,57.5A57.57,57.57,0,0,0,236.82,62Z"/><path class="cls-3" d="M245.63,119.48a8.81,8.81,0,1,1-8.81-8.81A8.81,8.81,0,0,1,245.63,119.48Z"/><path class="cls-4" d="M105.16,168.12c-2.63,2.81-7.08,4.67-14.2,3.53-1.93-.31-3.88-2.3-7.27-2.3-2,0-5.5,2-7.44,2.3-7.61,1.22-12.21-1-14.79-4.17-4.26,8.22-15.52,39.17,8.78,46.6,2,.62,13,0,13,0h.11s13,.75,15.65,0C120.77,207.93,109.87,177.48,105.16,168.12Z"/><path class="cls-5" d="M112,196.8a9.74,9.74,0,0,0-6.17,5.41,8.41,8.41,0,0,1-10.15,4.13c-3.78-1.21-5.22-14.45-1.89-20.35,4-7.11-25.69-7.8-20.39,0,3.8,5.6,1.89,19.14-1.9,20.35a8.39,8.39,0,0,1-10.14-4.13,9.84,9.84,0,0,0-5.94-5.34c1.08,7.53,5.11,14.24,14.82,17.21,2,.62,13,0,13,0h.1s13,.75,15.65,0C108.16,211.49,111.54,204.61,112,196.8Z"/><path class="cls-6" d="M100.7,215.3c1.67,0,2.43-1.18,1.68-2.62a6,6,0,0,0-6-4.06,6.12,6.12,0,0,0-6,4.06c-.74,1.44,0,2.62,1.69,2.62Z"/><path class="cls-7" d="M94.68,208.93c-.19.6-.37,1.14-.5,1.67a6.45,6.45,0,0,0-.23,1.52,4.7,4.7,0,0,0,.2,1.47,14.94,14.94,0,0,0,.6,1.61,2.8,2.8,0,0,1-1.35-1.15,3.59,3.59,0,0,1-.52-2,4.13,4.13,0,0,1,.54-1.91A3.09,3.09,0,0,1,94.68,208.93Z"/><path class="cls-7" d="M98.2,208.93c.2.6.37,1.14.51,1.67a7,7,0,0,1,.22,1.52,4.7,4.7,0,0,1-.2,1.47,14.94,14.94,0,0,1-.6,1.61,2.76,2.76,0,0,0,1.35-1.15,3.59,3.59,0,0,0,.52-2,3.9,3.9,0,0,0-.54-1.91A3.09,3.09,0,0,0,98.2,208.93Z"/><path class="cls-6" d="M75.18,215.3c1.67,0,2.43-1.18,1.69-2.62a6,6,0,0,0-6-4.06,6.12,6.12,0,0,0-6,4.06c-.74,1.44,0,2.62,1.69,2.62Z"/><path class="cls-7" d="M69.16,208.93c-.19.6-.37,1.14-.5,1.67a6.45,6.45,0,0,0-.23,1.52,5,5,0,0,0,.2,1.47,14.94,14.94,0,0,0,.6,1.61,2.8,2.8,0,0,1-1.35-1.15,3.59,3.59,0,0,1-.52-2,4.13,4.13,0,0,1,.54-1.91A3.09,3.09,0,0,1,69.16,208.93Z"/><path class="cls-7" d="M72.68,208.93c.2.6.37,1.14.51,1.67a7,7,0,0,1,.22,1.52,4.7,4.7,0,0,1-.2,1.47,13.08,13.08,0,0,1-.6,1.61A2.76,2.76,0,0,0,74,214.05a3.59,3.59,0,0,0,.52-2,3.9,3.9,0,0,0-.54-1.91A3.09,3.09,0,0,0,72.68,208.93Z"/><path class="cls-6" d="M91.23,183.08c-1-.54-2.32.79-2.92,3,0,0-2.28,5.81.65,7.4S95.52,190,95.52,190c1.5-1.69,1.9-3.52.9-4.06Z"/><path class="cls-6" d="M72.77,183.29c1-.53,2.26.78,2.85,2.9,0,0,2.23,5.68-.64,7.23s-6.4-3.41-6.4-3.41c-1.46-1.65-1.86-3.44-.88-4Z"/><path class="cls-7" d="M94.57,185.44l-.18-.45-.28.85c-.19.61-.38,1.19-.6,1.73a16.07,16.07,0,0,1-.85,1.83,20.79,20.79,0,0,1-1.12,1.77c-.4.57-.84,1.16-1.3,1.78l-.41.55.53-.18a4.5,4.5,0,0,0,1.58-1.2,11.45,11.45,0,0,0,1.58-2.2,10,10,0,0,0,1-2.59A3.43,3.43,0,0,0,94.57,185.44Z"/><path class="cls-7" d="M91.32,186.38c.34-.47.72-.95,1.12-1.44l.56-.7-.47.09a3.48,3.48,0,0,0-1.57,1,10,10,0,0,0-1.61,2.27,11.59,11.59,0,0,0-1,2.54,4.27,4.27,0,0,0-.14,2l.13.55.23-.61c.28-.78.53-1.44.8-2.1a19.37,19.37,0,0,1,.87-1.9A15.37,15.37,0,0,1,91.32,186.38Z"/><path class="cls-7" d="M72.45,191.17a20.79,20.79,0,0,1-1.12-1.77,14.51,14.51,0,0,1-.85-1.83c-.22-.54-.4-1.12-.6-1.73L69.6,185l-.18.45a3.43,3.43,0,0,0,0,1.89,10,10,0,0,0,1,2.59,11.45,11.45,0,0,0,1.58,2.2,4.41,4.41,0,0,0,1.58,1.2l.53.18-.41-.55C73.29,192.33,72.85,191.74,72.45,191.17Z"/><path class="cls-7" d="M74.64,187.66A9.82,9.82,0,0,0,73,185.38a3.45,3.45,0,0,0-1.58-1l-.46-.09.56.7c.4.49.78,1,1.12,1.44a15.37,15.37,0,0,1,1.07,1.72,19.37,19.37,0,0,1,.87,1.9c.27.66.52,1.32.8,2.1l.23.61.13-.55a4.41,4.41,0,0,0-.14-2A11.33,11.33,0,0,0,74.64,187.66Z"/><path class="cls-8" d="M108,156.72c.51.09,1.12-.94,1.12-.94-2.07-.26-3.7-2.93-3.7-2.93a3.7,3.7,0,0,0,2.15.43c-2.32-1-4.91-5.67-5.42-6.62-.3-1.08-.65-2.34-1.16-3.9-2.13-6.47-15.68-7.56-17.29-7.55-5.31,0-15.33,1.08-17.45,7.55-.49,1.47-.83,2.69-1.12,3.77-.24.47-3,5.68-5.48,6.75a3.7,3.7,0,0,0,2.15-.43s-1.63,2.67-3.7,2.93c0,0,.58,1,1.09.94,0,0,0,0,0,.05-.35.32-2.71,2.57-2.31,5.15,0,0,.69-1.67,1.37-2,0,0-.34,5.21,1.12,6.54a8.93,8.93,0,0,1,.18-2.4c1.76,4.67,6.56,9.2,16.73,7.57,1.94-.31,5.41-2.3,7.44-2.3,3.39,0,5.34,2,7.27,2.3,10.26,1.64,15-3,16.7-7.65a8.55,8.55,0,0,1,.2,2.48c1.46-1.33,1.12-6.54,1.12-6.54.69.31,1.37,2,1.37,2C110.78,159.13,108,156.72,108,156.72Z"/><path class="cls-9" d="M97.45,151.91c.45,1.81-.29,3.56-.59,3.64-.57.14-2.73,0-3.22-2.71A3.5,3.5,0,0,1,95.22,149C95.77,148.84,97,150.1,97.45,151.91Z"/><path class="cls-9" d="M69.75,151.91c-.45,1.81.29,3.56.6,3.64.56.14,2.72,0,3.2-2.71A3.48,3.48,0,0,0,72,149C71.44,148.84,70.2,150.1,69.75,151.91Z"/><path class="cls-10" d="M105.5,162.08c-2.16-1.47-9.63,3-17.4-4h-9c-7.77,7-15.24,2.49-17.4,4-3,2,3.23,11.91,9.37,11.91a19.44,19.44,0,0,0,8.19-1.35c1.15-.53,2.51-2.06,4.23-2.1h.22c1.72,0,3.13,1.44,4.23,2.1,1.81,1.1,7.39,1.35,8.19,1.35C102.26,174,108.51,164.13,105.5,162.08Z"/><path class="cls-11" d="M88.45,171.25a5,5,0,0,1-2.74-1.19c-.21-.15-.39-.28-.51-.35a2.37,2.37,0,0,0-1.44-.31.33.33,0,0,1-.29-.06.36.36,0,0,1-.12-.26v-7a.34.34,0,0,1,.67,0v6.65a3.27,3.27,0,0,1,1.49.4,4.41,4.41,0,0,1,.59.4c.69.5,1.73,1.25,2.74,1a3.14,3.14,0,0,0,1.89-1.76.34.34,0,0,1,.46-.13.33.33,0,0,1,.13.45A3.83,3.83,0,0,1,89,171.2,3.29,3.29,0,0,1,88.45,171.25Z"/><path class="cls-11" d="M78.92,171.25a3.29,3.29,0,0,1-.54-.05,3.83,3.83,0,0,1-2.33-2.1.33.33,0,0,1,.13-.45.34.34,0,0,1,.46.13,3.13,3.13,0,0,0,1.88,1.76c1,.23,2.06-.52,2.74-1a5.16,5.16,0,0,1,.6-.4,3.24,3.24,0,0,1,1.49-.4v-6.65a.34.34,0,0,1,.67,0v7a.33.33,0,0,1-.13.26.31.31,0,0,1-.28.06,2.37,2.37,0,0,0-1.44.31,5.93,5.93,0,0,0-.52.35A4.9,4.9,0,0,1,78.92,171.25Z"/><path class="cls-6" d="M78.93,158.36c.23,2.35,3.23,3.9,4.7,3.9,1.82,0,4.54-1.72,4.76-4.08a10,10,0,0,0-5.16-1.72A7.14,7.14,0,0,0,78.93,158.36Z"/><path class="cls-8" d="M98.17,147.69S99.25,132,108,135.54c1.43.57,2,7.57-2,10s-6.19,1.84-6.88,2.87C99.2,148.38,98,148.9,98.17,147.69Z"/><path class="cls-6" d="M108.82,136.77c-1.58.1-3.7,1.8-5.25,4.37-1.39,2.3-1.94,4.67-1.58,6.18a18.7,18.7,0,0,0,4.72-1.89C109.73,143.56,109.47,139,108.82,136.77Z"/><path class="cls-8" d="M69,147.69S68,132,59.17,135.54c-1.43.57-2,7.57,1.95,10s6.19,1.84,6.88,2.87C68,148.38,69.2,148.9,69,147.69Z"/><path class="cls-6" d="M58.38,136.77c1.58.1,3.7,1.8,5.25,4.37,1.39,2.3,1.94,4.67,1.58,6.18a18.7,18.7,0,0,1-4.72-1.89C57.47,143.56,57.73,139,58.38,136.77Z"/><path class="cls-1" d="M221.54,24.43H119.89V0H221.54ZM122.82,21.5H218.6V2.93H122.82Z"/><path class="cls-1" d="M328.63,220.5H6.87V25.14H328.63ZM7.75,219.62h320V26H7.75Z"/><rect class="cls-1" x="22.97" y="25.58" width="0.88" height="194.48"/><rect class="cls-1" x="38.16" y="25.58" width="0.88" height="194.48"/><rect class="cls-1" x="53.36" y="25.58" width="0.88" height="194.48"/><rect class="cls-1" x="68.55" y="25.58" width="0.88" height="194.48"/><rect class="cls-1" x="83.75" y="25.58" width="0.88" height="194.48"/><rect class="cls-1" x="98.94" y="25.58" width="0.88" height="194.48"/><rect class="cls-1" x="114.14" y="25.58" width="0.88" height="194.48"/><rect class="cls-1" x="129.33" y="25.58" width="0.88" height="194.48"/><rect class="cls-1" x="144.52" y="25.58" width="0.88" height="194.48"/><rect class="cls-1" x="159.72" y="25.58" width="0.88" height="194.48"/><rect class="cls-1" x="174.91" y="25.58" width="0.88" height="194.48"/><rect class="cls-1" x="190.11" y="25.58" width="0.88" height="194.48"/><rect class="cls-1" x="205.3" y="25.58" width="0.88" height="194.48"/><rect class="cls-1" x="220.49" y="25.58" width="0.88" height="194.48"/><rect class="cls-1" x="235.69" y="25.58" width="0.88" height="194.48"/><rect class="cls-1" x="250.88" y="25.58" width="0.88" height="194.48"/><rect class="cls-1" x="266.08" y="25.58" width="0.88" height="194.48"/><rect class="cls-1" x="281.27" y="25.58" width="0.88" height="194.48"/><rect class="cls-1" x="296.47" y="25.58" width="0.88" height="194.48"/><rect class="cls-1" x="311.66" y="25.58" width="0.88" height="194.48"/><rect class="cls-1" y="219.06" width="335.51" height="8.89"/><rect class="cls-1" y="17.83" width="335.51" height="8.89"/></g></g></svg>