<svg xmlns="http://www.w3.org/2000/svg" viewBox="0 0 512 479.99"><defs><style>.cls-1{fill:#ebaf4b;}.cls-2{fill:#ff8087;}.cls-3{fill:#ffc850;}.cls-4{fill:#faebc8;}.cls-5{fill:#ff96a0;}.cls-6{fill:#ebc9a0;}.cls-7{fill:#dcb996;}.cls-8{fill:#4b3f4e;}.cls-9{fill:#5d5360;}.cls-10{fill:#fff;}.cls-11{fill:#f5dcb4;}</style></defs><g id="Layer_2" data-name="Layer 2"><g id="Capa_1" data-name="Capa 1"><ellipse class="cls-1" cx="108.28" cy="85.77" rx="72.09" ry="88.81" transform="translate(-26.88 57.28) rotate(-26.48)"/><ellipse class="cls-2" cx="96.1" cy="92.1" rx="47.01" ry="69.99" transform="translate(-30.98 52.51) rotate(-26.48)"/><ellipse class="cls-1" cx="404.26" cy="85.78" rx="88.81" ry="72.09" transform="translate(147.22 409.38) rotate(-63.52)"/><ellipse class="cls-2" cx="416.44" cy="92.12" rx="69.99" ry="47.01" transform="translate(148.3 423.8) rotate(-63.52)"/><path class="cls-3" d="M256,476.63q27.79,0,55.49,2.59a177.28,177.28,0,0,0,30.42.23c86.81-6.72,156.82-78.19,161.79-165.12a175.23,175.23,0,0,0-36-117.31c-19.27-25.11-37.09-51.47-49.26-80.69a176,176,0,0,0-324.94,0c-12.17,29.22-30,55.58-49.25,80.69a175.29,175.29,0,0,0-36,117.31c5,86.93,75,158.4,161.8,165.12a177.29,177.29,0,0,0,30.42-.23Q228.16,476.64,256,476.63Z"/><path class="cls-1" d="M81.31,336.8a191.62,191.62,0,0,1,24.16-128.4c17-28.69,32.47-58.58,41.78-90.89,13-45.2,42.31-83.6,81.48-107.4A176.16,176.16,0,0,0,93.53,116.33c-12.17,29.22-30,55.58-49.25,80.69a175.29,175.29,0,0,0-36,117.31c5,86.93,75,158.4,161.8,165.13a179,179,0,0,0,20.29.28C134.46,454.77,91.61,401.67,81.31,336.8Z"/><path class="cls-4" d="M368,318c-57.84,15.57-89.68-21.1-85.67-56.66,4.67-41.34-41-45.67-49.33-11.67-12.79,52.2-32.92,71.93-107.5,65.83-68.42-5.59-97.89,64-60.81,117.27,28.28,26.25,65,43.56,105.4,46.69a178.41,178.41,0,0,0,30.43-.23q27.64-2.6,55.48-2.59t55.48,2.59a178.42,178.42,0,0,0,30.43.23c47.76-3.7,90.37-27.07,119.92-61.76C496.53,356,442.27,298,368,318Z"/><path class="cls-5" d="M256,336c26.51,0,48,14.33,48,32,0,17.05-20.17,26-34.73,32.66a32,32,0,0,1-26.54,0C228.17,394,208,385,208,368,208,350.32,229.49,336,256,336Z"/><path class="cls-6" d="M287,448a50.28,50.28,0,0,1-25.35-6.78,11.24,11.24,0,0,0-11.31,0A50.25,50.25,0,0,1,225,448c-15.78,0-30.51-7.19-39.42-19.23a8,8,0,1,1,12.87-9.52c5.9,8,15.83,12.75,26.55,12.75a34.26,34.26,0,0,0,17.28-4.6,27.25,27.25,0,0,1,27.46,0A34.29,34.29,0,0,0,287,432c10.73,0,20.66-4.77,26.56-12.75a8,8,0,1,1,12.87,9.51C317.52,440.8,302.79,448,287,448Z"/><path class="cls-7" d="M437.5,409a8,8,0,0,1-3.14-.65C402,394.56,360,392,359.54,392a8,8,0,1,1,.92-16c1.83.1,45.29,2.75,80.18,17.62A8,8,0,0,1,437.5,409Z"/><path class="cls-7" d="M504,376a8,8,0,0,1-2.82-.52c-54.69-20.64-151.67-14.36-152.64-14.3a8,8,0,0,1-1.08-16c4.1-.28,101.41-6.58,159.36,15.29A8,8,0,0,1,504,376Z"/><path class="cls-8" d="M172,288h0a28.08,28.08,0,0,1-28-28V244a28.08,28.08,0,0,1,28-28h0a28.08,28.08,0,0,1,28,28v16A28.08,28.08,0,0,1,172,288Z"/><path class="cls-9" d="M172,216a27.8,27.8,0,0,0-4,.41V256a16,16,0,0,0,32,0V244A28.08,28.08,0,0,0,172,216Z"/><circle class="cls-10" cx="172" cy="235.99" r="12"/><path class="cls-8" d="M340,288h0a28.08,28.08,0,0,1-28-28V244a28.08,28.08,0,0,1,28-28h0a28.08,28.08,0,0,1,28,28v16A28.08,28.08,0,0,1,340,288Z"/><path class="cls-9" d="M340,216a27.8,27.8,0,0,0-4,.41V256a16,16,0,0,0,32,0V244A28.08,28.08,0,0,0,340,216Z"/><circle class="cls-10" cx="340" cy="235.99" r="12"/><path class="cls-2" d="M266.73,396.58C252.17,388.72,232,378.09,232,357.9a32.06,32.06,0,0,1,7.16-19.84C221,342.61,208,354.28,208,368c0,17.05,20.17,26,34.73,32.66a32,32,0,0,0,26.54,0l3.61-1.66A28.54,28.54,0,0,1,266.73,396.58Z"/><path class="cls-11" d="M81.31,336.8c-.62-3.87-.94-7.71-1.32-11.56-33.75,20.43-42.57,68.33-15.3,107.52,28.28,26.25,65,43.56,105.4,46.69a179.15,179.15,0,0,0,20.3.29h0C134.46,454.77,91.61,401.67,81.31,336.8Z"/><path class="cls-7" d="M74.5,409a8,8,0,0,1-3.14-15.37c34.89-14.87,78.35-17.52,80.18-17.62a8,8,0,1,1,.92,16c-.42,0-42.55,2.61-74.82,16.37A8,8,0,0,1,74.5,409Z"/><path class="cls-7" d="M8,376a8,8,0,0,1-2.82-15.49c58-21.86,155.25-15.58,159.36-15.29a8,8,0,0,1-1.08,16c-1-.07-97.95-6.33-152.64,14.3A7.94,7.94,0,0,1,8,376Z"/></g></g></svg>