<svg xmlns="http://www.w3.org/2000/svg" viewBox="0 0 260.83 150.92"><defs><style>.cls-1{fill:#dd945e;}.cls-2{fill:#d38753;}.cls-3{fill:#f9b170;}.cls-4{fill:#ffb980;}.cls-5{fill:#f9e1cd;}.cls-6{fill:#ffeee1;}.cls-7{fill:#efd3bf;}.cls-8{fill:#efa66a;}.cls-9{fill:#e2e2e2;}.cls-10{fill:#232323;}.cls-11{fill:#383838;}.cls-12{fill:#c8d2dc;}.cls-13{fill:#e5965c;}.cls-14{fill:#e0c3af;}.cls-15{fill:#ffbf8a;}.cls-16{fill:#ffd1ae;}.cls-17{fill:#ffc1a9;}.cls-18{fill:#f7b19c;}.cls-19{fill:#f4a392;}</style></defs><g id="Layer_2" data-name="Layer 2"><g id="Ñëîé_1" data-name="Ñëîé 1"><path class="cls-1" d="M62.88,5.06a11.8,11.8,0,0,0-1-1.14A14,14,0,0,0,56.86.53c-3.39-1.3-7.9-.21-9.63,3.2a9.8,9.8,0,0,0-.91,3.44,31.62,31.62,0,0,0,0,3.51C53.19,8.29,58.54,6.54,59.8,6.07,60.82,5.7,61.84,5.36,62.88,5.06Z"/><path class="cls-2" d="M63.24,142.47a12.22,12.22,0,0,0,4.66-1,18.41,18.41,0,0,0,3.2-2.14,8.59,8.59,0,0,0-1.23-1l-.38-.25a13.85,13.85,0,0,1-1.48-.54,11.3,11.3,0,0,1-1.34-.7l-.33-.05a.38.38,0,0,1-.33-.37,22.08,22.08,0,0,1-3.41-3c-.52.13-1,.25-1.56.35-1.52.31-4.7,2.26-7.52,3.84-2.16,1.2-4.46,2-3.6,2.75,1.67,1.46,7,0,7.26.08a6.64,6.64,0,0,0-1.7,2.17c-.1.21,1.53.54,3.58.71l.25-.08A18.08,18.08,0,0,1,63.24,142.47Z"/><path class="cls-3" d="M107.61,59.16A24.82,24.82,0,0,1,112,53.89c3.51-3,7.92-4.21,12.47-4.54q1.08-.08,2.16-.09l.58-.06c2.7-.27,5.4-.46,8.11-.49,2.21,0,4.41.11,6.61.19a17.5,17.5,0,0,0,.6-4.18,26.61,26.61,0,0,1-5.42.43,34.18,34.18,0,0,1-6-.8,28.2,28.2,0,0,1-9.73-3.51C118.46,38.92,116.59,36,115,33c-1.48-2.92-2.7-6.07-5.26-8.24a7.9,7.9,0,0,0-5-1.86l-.07.06.08.15c.74,1.4,1.49,2.81,2.15,4.26a20.66,20.66,0,0,1,2.21,9,12.61,12.61,0,0,1-2.51,7.21,14.16,14.16,0,0,1-13.72,5.59,15.14,15.14,0,0,1-11.31-9.69.65.65,0,0,1,.06-.64,17.34,17.34,0,0,1-1.17-2.55c-.56-1.46-1.14-2.92-1.6-4.41a28.7,28.7,0,0,1-.92-4.77,8,8,0,0,0-1.21-3.4c-1.07-1.63-2.44-3-3.48-4.6-.24-.26-.48-.54-.72-.83a19.63,19.63,0,0,0-1.89-1.87,17.1,17.1,0,0,0-3.7-2.33,9.76,9.76,0,0,0-3.19.58c-2.38.91-4.46,2.59-6.71,3.77a43.2,43.2,0,0,1-7.24,3,48.5,48.5,0,0,1-7.46,1.48,15.29,15.29,0,0,0-3.36.75,9.52,9.52,0,0,0-2.88,2c-4.32,3.67-9.86,0-14.76,1.25a38,38,0,0,1-3.7,1.21,6.1,6.1,0,0,1-3.27-.4,9.58,9.58,0,0,1-2.94-2c-1.28.76-2.26,1.34-2.84,1.63l-.05,0-.94.25a8.86,8.86,0,0,1,2.46,4.19,6.61,6.61,0,0,1-.56,4.6,3.76,3.76,0,0,1-1.89,1.8A4.5,4.5,0,0,1,5,38c-.9-.23-1.81-.45-2.71-.71-.62-.18-1.24-.41-1.87-.57a16.57,16.57,0,0,0,2,6.06v.08a.78.78,0,0,1,1.16-.12,5.49,5.49,0,0,1,1.17,2.13c.31.75.62,1.49.87,2.26s.5,1.42.67,2.17.3,1.7.41,2.55c.3,2.28,0,4.94,1.8,6.61s4.45,2,6.77,2.44a26.17,26.17,0,0,1,3.9.88,9.69,9.69,0,0,1,3.48,2.12,21.63,21.63,0,0,1,2.33,2.8,11.68,11.68,0,0,1,1.49,2.47,23.58,23.58,0,0,0-5.88-1.86l-.66-.11a5.18,5.18,0,0,0-2,.29c-.49.21-1.09.48-1.09,1a2,2,0,0,0,.53,1.19c1.55,1.84,4.5,2.28,6.73,2.65,3.11.52,6.25.93,9.34,1.54,2.82.56,5.69,1,8.45,1.8a12.07,12.07,0,0,1,3.47,1.46,17.56,17.56,0,0,1,2.29,1.72c.33.21.64.41.92.62A10,10,0,0,1,51.33,82a36.34,36.34,0,0,0-5.73-2.4c-1.14-.35-2.29-.64-3.45-.88A15.31,15.31,0,0,1,44,79.82a29.39,29.39,0,0,1,5.41,4.86c6.57,7.51,9.31,17.21,13.2,26.2,3.38,7.79,8.49,15.85,17,18.62a1.7,1.7,0,0,1,1.22,1.61,8.38,8.38,0,0,1-2,5c-1.07,1.42-2.2,2.87-4,3.42a5.45,5.45,0,0,1-1.91.21c-.33.2-.66.39-1,.56a12.18,12.18,0,0,1-4.66,1,18.08,18.08,0,0,0-3.93.75l-.25.09a14.53,14.53,0,0,0-6.19,4.12l-.12.16a.13.13,0,0,1,.11.13c0,.71.18,1.38,1,1.27a4.36,4.36,0,0,0,1.54-.5l.68-.34c1.45-2.35,4.27-2.25,6.7-2.62a21.39,21.39,0,0,0,4-1l.51-.19a15.73,15.73,0,0,0,3.07-.72,13.39,13.39,0,0,1-2.85,1.71c-.34.16-.67.31-1,.45a7.15,7.15,0,0,0-2,2.67,1.59,1.59,0,0,0-.13.52,3.82,3.82,0,0,0,1.65,0c.67-.15,1.33-.34,2-.55a20.2,20.2,0,0,0,3.69-1.7l.39-.24a.61.61,0,0,0,.36-.13c2-1.43,4.11-2.58,6.15-3.9a17.11,17.11,0,0,1-3,3.22c-.16.15-.33.29-.5.43a.16.16,0,0,1,0,.21,8.35,8.35,0,0,0-1.26,1.11.23.23,0,0,1-.12.32l-.22.1a3.59,3.59,0,0,0-.47,1c-.07.26-.26,1.05,0,1.25.14.1.74-.08.9-.11.31-.06.61-.13.91-.21A35,35,0,0,0,85,146.19a21.24,21.24,0,0,0,5.12-3.48,19.25,19.25,0,0,0,2-2.2,9.64,9.64,0,0,0,.58-.84,6.65,6.65,0,0,1,2.93-3.84,9.38,9.38,0,0,1,5.46-1.37c2.24,0,4.43.51,6.66.68a41.56,41.56,0,0,0,6.41-.07c3.79-.29,7.56-.86,11.37-.85a28.9,28.9,0,0,1,5.86.58,35.28,35.28,0,0,1,5.4,1.71c1.16.45,2.31.88,3.47,1.28v0A65.22,65.22,0,0,1,137,130c-.83-3-1-6.11-2.42-8.89a16.3,16.3,0,0,0-4.85-5.27c-1.91-1.46-4-2.7-5.78-4.29a11,11,0,0,1-3.74-6.12,26.77,26.77,0,0,1,.07-8.14,34.07,34.07,0,0,0,.2-8.38c-.39-2.77-1.72-5.12-3.1-7.52-1.13-2-2.84-4.63-1.86-7a4.47,4.47,0,0,1,1-1.41,17.85,17.85,0,0,1-3.79.37c-4-.12-8.75-2.92-8.23-7.48C104.77,63.42,106.28,61.21,107.61,59.16Z"/><path class="cls-4" d="M5,38a4.5,4.5,0,0,0,2.66.22,3.76,3.76,0,0,0,1.89-1.8,6.61,6.61,0,0,0,.56-4.6A8.86,8.86,0,0,0,7.6,27.58a13.77,13.77,0,0,0-2.4.72A8.29,8.29,0,0,0,.89,32.94a8.23,8.23,0,0,0-.52,3.73c.63.16,1.25.39,1.87.57C3.14,37.5,4.05,37.72,5,38Z"/><path class="cls-3" d="M223.16,66.82l-1,.52c-2.13,1.18-4.21,2.45-6.27,3.76a26.27,26.27,0,0,1,3.85,9.5A21.88,21.88,0,0,1,217.55,95c-2.23,4-6.42,7.06-11.16,6.39a11.28,11.28,0,0,1-3.18-1.08,13.85,13.85,0,0,0-3.4-1.06,20.69,20.69,0,0,1-6.39-2,25.39,25.39,0,0,1-4.2-3c-.68,2.46-1.12,5-2,7.37a17.71,17.71,0,0,1-4.77,6.73,18.12,18.12,0,0,1-7.12,3.92c-1.48.42-3,.54-4.49.82a6.57,6.57,0,0,0-4.05,2.43,43.59,43.59,0,0,0-2.69,4c-.9,1.44-1.78,2.89-2.62,4.37a57.88,57.88,0,0,0-4.33,9.31,31.54,31.54,0,0,0-1.59,6.78c1.31,0,2.61,0,3.91,0a34.58,34.58,0,0,0,5.66-.47,41,41,0,0,0,5.55-1.51c3.74-1.26,7.43-2.61,11.22-3.7l1.44-.4c.29-.28.59-.55.89-.81,3.91-3.38,8.68-5.53,13.22-7.92a64.94,64.94,0,0,0,12.46-7.83,47.35,47.35,0,0,0,15.2-24A42.74,42.74,0,0,0,223.16,66.82Z"/><path class="cls-5" d="M143.27,49a39.6,39.6,0,0,0,7.84-.51,35.25,35.25,0,0,1,7.86-.86c2.66.1,5.31.47,7.95.75s5.36.58,8,.88c5.06.56,10.25.87,15.18,2.18s9.07,4.07,13.13,7a53,53,0,0,1,10.52,9.65c.76,1,1.47,2,2.14,3,2.06-1.31,4.14-2.58,6.27-3.76l1-.52c-.26-.65-.53-1.29-.82-1.93-4.2-9.32-10.88-17.32-18.6-23.93a85,85,0,0,0-7.22-5.57c-1.07-.18-2.13-.35-3.2-.5-6-.83-12.09-1.24-18.15-1.62l-.34.11c-7.12,2.33-13.91,5.55-21,8.08A70.31,70.31,0,0,1,143,44.62l-.54.1a17.5,17.5,0,0,1-.6,4.18Z"/><path class="cls-5" d="M161.44,123.87c.84-1.48,1.72-2.93,2.62-4.37a43.59,43.59,0,0,1,2.69-4A6.57,6.57,0,0,1,170.8,113c1.5-.28,3-.4,4.49-.82a18.12,18.12,0,0,0,7.12-3.92,17.71,17.71,0,0,0,4.77-6.73c.92-2.39,1.36-4.91,2-7.37-1.88-1.61-3.64-3.38-5.49-5a43.87,43.87,0,0,0-12.06-7A102.64,102.64,0,0,0,157.58,77a39.73,39.73,0,0,0-7.43-1.22c-2.62-.17-5.24-.15-7.85-.23a44.47,44.47,0,0,1-7.89-.82c-2.43-.5-4.77-1.33-7.18-1.93a17.51,17.51,0,0,0-6.87-.53c-1.28.19-2.56.49-3.85.73a4.47,4.47,0,0,0-1,1.41c-1,2.36.73,5,1.86,7,1.38,2.4,2.71,4.75,3.1,7.52a34.07,34.07,0,0,1-.2,8.38,26.77,26.77,0,0,0-.07,8.14,11,11,0,0,0,3.74,6.12c1.8,1.59,3.87,2.83,5.78,4.29a16.3,16.3,0,0,1,4.85,5.27c1.44,2.78,1.59,5.92,2.42,8.89.76,2.7,2.5,5,3.25,7.71v0l0,.05.16.06a33.9,33.9,0,0,0,7.19,1.68c2.6.27,5.25.39,7.89.42a31.54,31.54,0,0,1,1.59-6.78A57.88,57.88,0,0,1,161.44,123.87Z"/><path class="cls-4" d="M122.44,69c2.72-1.7,5.47-3.38,8.05-5.29,4.74-3.51,9-7.89,11-13.54.15-.41.27-.81.38-1.22-2.2-.08-4.4-.21-6.61-.19-2.71,0-5.41.22-8.11.49l-.58.06q-1.08,0-2.16.09c-4.55.33-9,1.49-12.47,4.54a24.82,24.82,0,0,0-4.36,5.27c-1.33,2.05-2.84,4.26-3.12,6.74-.52,4.56,4.24,7.36,8.23,7.48a17.85,17.85,0,0,0,3.79-.37,14.36,14.36,0,0,1,2-1.52C119.8,70.62,121.11,69.78,122.44,69Z"/><path class="cls-4" d="M203.93,78.79c-3,1.94-6,3.78-8.82,6a16.22,16.22,0,0,0-5.34,7.61c-.21.59-.39,1.2-.55,1.81a25.39,25.39,0,0,0,4.2,3,20.69,20.69,0,0,0,6.39,2,13.85,13.85,0,0,1,3.4,1.06,11.28,11.28,0,0,0,3.18,1.08c4.74.67,8.93-2.42,11.16-6.39a21.88,21.88,0,0,0,2.23-14.38,26.27,26.27,0,0,0-3.85-9.5c-.86.53-1.71,1.08-2.55,1.62C210.23,74.74,207.06,76.73,203.93,78.79Z"/><path class="cls-6" d="M203.27,58.44c-4.06-3-8.2-5.74-13.13-7S180,49.77,175,49.21c-2.68-.3-5.36-.6-8-.88s-5.29-.65-7.95-.75a35.25,35.25,0,0,0-7.86.86,39.6,39.6,0,0,1-7.84.51l-1.37-.05c-.11.41-.23.81-.38,1.22-2,5.65-6.29,10-11,13.54-2.58,1.91-5.33,3.59-8.05,5.29-1.33.83-2.64,1.67-3.94,2.54a14.36,14.36,0,0,0-2,1.52c1.29-.24,2.57-.54,3.85-.73a17.51,17.51,0,0,1,6.87.53c2.41.6,4.75,1.43,7.18,1.93a44.47,44.47,0,0,0,7.89.82c2.61.08,5.23.06,7.85.23A39.73,39.73,0,0,1,157.58,77a102.64,102.64,0,0,1,14.09,5.21,43.87,43.87,0,0,1,12.06,7c1.85,1.62,3.61,3.39,5.49,5,.16-.61.34-1.22.55-1.81a16.22,16.22,0,0,1,5.34-7.61c2.78-2.2,5.87-4,8.82-6,3.13-2.06,6.3-4.05,9.45-6.07.84-.54,1.69-1.09,2.55-1.62-.67-1-1.38-2-2.14-3A53,53,0,0,0,203.27,58.44Z"/><path class="cls-5" d="M17.64,28.08a38,38,0,0,0,3.7-1.21c4.9-1.25,10.44,2.42,14.76-1.25a9.52,9.52,0,0,1,2.88-2,15.29,15.29,0,0,1,3.36-.75,48.5,48.5,0,0,0,7.46-1.48,43.2,43.2,0,0,0,7.24-3c2.25-1.18,4.33-2.86,6.71-3.77a9.76,9.76,0,0,1,3.19-.58l-.75-.34c-7.11-3-14.95-1.71-22.3-.42-2.91.51-5.83,1-8.75,1.43-3.61,1.36-7.25,2.77-10.64,4.19a104.91,104.91,0,0,0-13.07,6.76,9.58,9.58,0,0,0,2.94,2A6.1,6.1,0,0,0,17.64,28.08Z"/><path class="cls-7" d="M58.78,9.14A25.84,25.84,0,0,1,69.12,11.8a19.46,19.46,0,0,1,2.66,1.62,1.66,1.66,0,0,1,0-.32c-.93-1.82.36-4,2.09-4.94a6.7,6.7,0,0,1,1.59-.56,10.31,10.31,0,0,1,2.25-3.24,38.77,38.77,0,0,0-5.14-.62,29.89,29.89,0,0,0-9.72,1.32c-1,.3-2.06.64-3.08,1S54.36,7.91,48.65,9.89A46.47,46.47,0,0,1,58.78,9.14Z"/><path class="cls-7" d="M66.19,13.72l.75.34a32.24,32.24,0,0,1,4.59.35l.22,0a8.58,8.58,0,0,1,0-1,19.46,19.46,0,0,0-2.66-1.62A25.84,25.84,0,0,0,58.78,9.14a46.47,46.47,0,0,0-10.13.75l-2.28.79c-3.48,1.22-7.34,2.6-11.23,4.05,2.92-.47,5.84-.92,8.75-1.43C51.24,12,59.08,10.71,66.19,13.72Z"/><path class="cls-3" d="M12.93,68.83l.05,0s0-.08,0-.12Z"/><path class="cls-3" d="M75.77,150a1.36,1.36,0,0,1,.28-.11c-.34-.24-.47-.67-.25-1.36l.09-.26a1.7,1.7,0,0,0-.31,1.7.8.8,0,0,0,.08.16A.18.18,0,0,1,75.77,150Z"/><path class="cls-3" d="M75.75,148.08l-.16,0-.13.1-.11.08.61-.19L76,148A1.11,1.11,0,0,1,75.75,148.08Z"/><path class="cls-3" d="M67.09,147.88h0Z"/><path class="cls-3" d="M56.53,146.76a.7.7,0,0,0,0,.55A2.55,2.55,0,0,1,56.53,146.76Z"/><path class="cls-3" d="M67.58,149.5a.79.79,0,0,0,.9.51A1.94,1.94,0,0,1,67.58,149.5Z"/><path class="cls-3" d="M140.26,137.79h0v0Z"/><path class="cls-3" d="M87.31,148.43a16.45,16.45,0,0,1-2.5.88A7.76,7.76,0,0,0,87.31,148.43Z"/><path class="cls-3" d="M136.61,140.68c.73.27,1.52.5,2.29.78l.18-.5c-1.31-.48-2.61-1-3.92-1.5a31.61,31.61,0,0,0-5.2-1.53,21.29,21.29,0,0,0-2.65-.31,21.09,21.09,0,0,1,5.3,1.49C133.94,139.65,135.27,140.19,136.61,140.68Z"/><path class="cls-3" d="M119.48,138.8c1.53-.34,3-.91,4.57-1.15l.62-.07h-.2c-3.76.09-7.49.67-11.25.91-1,.07-2.06.11-3.09.1a41.12,41.12,0,0,0,4.55.51A18.83,18.83,0,0,0,119.48,138.8Z"/><path class="cls-3" d="M137,130a65.22,65.22,0,0,0,3.24,7.73v0C139.51,135,137.77,132.72,137,130Z"/><path class="cls-7" d="M142.4,41.75a24.7,24.7,0,0,1,.1,3l.54-.1a70.31,70.31,0,0,0,10.83-3.16c7-2.53,13.84-5.75,21-8.08l.34-.11c-1.88-.11-3.77-.23-5.65-.36-4.57,1.66-9.06,3.51-13.47,5.13A64.1,64.1,0,0,1,142.4,41.75Z"/><path class="cls-7" d="M75.49,7.6a13.24,13.24,0,0,1,2.59-.27,15.15,15.15,0,0,1,4,.43A8.62,8.62,0,0,1,87.64,12c1,1.8,1.38,3.86,2.35,5.65.64.18,1.28.36,1.91.56a17.73,17.73,0,0,0,3.92,1,5.43,5.43,0,0,0,3.53-1A29.63,29.63,0,0,1,102,16.29c1.57-.84,3.41-1.19,4.63-2.52-.81-.17-1.62-.33-2.43-.47q-3.19-1.41-6.43-2.7c-4-1.6-8-3-12.16-4.26a79.63,79.63,0,0,0-7.88-2A10.31,10.31,0,0,0,75.49,7.6Z"/><path class="cls-8" d="M72.53,18.26c.24.29.48.57.72.83a10.86,10.86,0,0,1-.94-1.79,8.72,8.72,0,0,1-.56-2.87l-.22,0a32.24,32.24,0,0,0-4.59-.35,17.1,17.1,0,0,1,3.7,2.33A19.63,19.63,0,0,1,72.53,18.26Z"/><path class="cls-8" d="M47.07,41.49c2.71,0,5.73-.3,8-1.83s3.73-3.83,5.06-6.14a1.81,1.81,0,0,0-.28-2.18C57.9,29.5,56.46,27.25,54,26a11,11,0,0,0-7.9-.94,9.78,9.78,0,0,0-5.81,4.44,8.55,8.55,0,0,0-1.07,3.3,11.28,11.28,0,0,0-.36,1.63c-.23,1.52-.59,3.32.5,4.6C41.08,41.08,44.53,41.51,47.07,41.49Zm-4.82-4.81h0C41.93,36.56,42.22,36.48,42.25,36.68Z"/><path class="cls-9" d="M52.25,28.73a5.44,5.44,0,0,0-3.64-1.34A4.07,4.07,0,0,0,45,28.77a17.06,17.06,0,0,0-2.17,3.6c-.3.59-.52,1.27-.86,1.84-.25.4-.7.73-.76,1.23a.78.78,0,0,0,.62.8c.65.23,1.4,0,2.09.19s1.35.62,2,.87a9,9,0,0,0,2.28.51,7,7,0,0,0,3.95-.76,4.9,4.9,0,0,0,1.62-1.45,15.59,15.59,0,0,0,1.24-3C55.28,31.77,53,29.49,52.25,28.73Z"/><path class="cls-10" d="M48.92,38.19c-.24,0-.47,0-.71,0a9.68,9.68,0,0,1-2.37-.53c-.34-.12-.66-.28-1-.42a10.36,10.36,0,0,0-1-.45,2.88,2.88,0,0,0-.94-.07,3.09,3.09,0,0,1-1.16-.12,1.13,1.13,0,0,1-.85-1.16,2,2,0,0,1,.55-1,3.44,3.44,0,0,0,.26-.34,7.89,7.89,0,0,0,.5-1.05c.11-.25.22-.51.34-.76L42.6,32a16.32,16.32,0,0,1,2.13-3.49A4.43,4.43,0,0,1,48.64,27a5.88,5.88,0,0,1,3.86,1.44h0c2.23,2.23,3.09,3.49,2.89,4.22a15.62,15.62,0,0,1-1.29,3.09,5,5,0,0,1-1.73,1.56A7,7,0,0,1,48.92,38.19ZM43.18,36a2.8,2.8,0,0,1,.85.11,10.36,10.36,0,0,1,1.13.48c.32.15.61.29.92.4a8.68,8.68,0,0,0,2.19.49A6.53,6.53,0,0,0,52,36.74a4.42,4.42,0,0,0,1.49-1.33,14.62,14.62,0,0,0,1.2-2.9c0-.11,0-.78-2.71-3.53h0a5,5,0,0,0-3.42-1.23A3.67,3.67,0,0,0,45.27,29a15.47,15.47,0,0,0-2,3.35l-.09.17c-.11.23-.21.47-.32.72a8.09,8.09,0,0,1-.55,1.15,4.63,4.63,0,0,1-.32.42,1.44,1.44,0,0,0-.38.67c0,.26.25.39.37.43a2.68,2.68,0,0,0,.91.07Z"/><path class="cls-10" d="M53.66,32.26a4.88,4.88,0,1,1-4.88-4.89A4.88,4.88,0,0,1,53.66,32.26Z"/><path class="cls-11" d="M48.68,27.79h-.17a3.72,3.72,0,1,1-3.95,5.61,4.32,4.32,0,1,0,4.12-5.62Z"/><circle class="cls-12" cx="46.35" cy="30.98" r="1.55"/><path class="cls-13" d="M255.2,130c3.39-7.89,3.09-29.42,1.57-36a71.11,71.11,0,0,0-6-16.94c-1.12-2.15-3.59-7.7-8-12.5-.91-1-1.89-2-2.88-2.89a27.7,27.7,0,0,0-6.23.88c7.59,11.5,12.79,25,11.92,39-.74,11.87-6.82,23.72-16.61,30.65a32,32,0,0,1-7.7,4.06,43.41,43.41,0,0,1-10.36,2,93.88,93.88,0,0,0-11.43,1.63c-3.86.87-7.66,1.95-11.51,2.82A179.8,179.8,0,0,1,155.77,147c0,.21.09.42.14.63s.41,1.62.84,3.25a135.77,135.77,0,0,0,26-2.2c3.28-.65,6.54-1.44,9.86-1.87a45,45,0,0,1,9.77-.08c6.58.59,13.08,1.87,19.71,1.2,2-.2,4.06-.56,6.11-.67a30.79,30.79,0,0,0,3.6,1.16C241.23,145.79,250.35,141.32,255.2,130Z"/><path class="cls-13" d="M102,132.2c-.28-.28-.56-.56-.83-.85a10,10,0,0,0-2.56-3c-.57-.45.33,2.85,1.12,3.8a8.46,8.46,0,0,1-.84,8.33c-2.17,2.84-5.7,4.17-8.65,6.15l.12,0c3.13.61,6.23,1.34,9.38,1.85a57.94,57.94,0,0,0,9.47,1,89.46,89.46,0,0,0,9.4-.87,29.88,29.88,0,0,1,8.79.64,27.72,27.72,0,0,0,6.49.72c1.11.12,2.22.22,3.34.3.66-1.14,1.31-2.29,1.86-3.47C125.68,145.8,111.79,141.9,102,132.2Z"/><path class="cls-13" d="M19.85,76c-.25,2.85,1.26,5.36,2.83,7.61a40.73,40.73,0,0,1,2.26,3.44,42.28,42.28,0,0,1,1.84,4.33,44.38,44.38,0,0,0,4.94,8.48q2.79,4,5.74,7.9,6,7.89,12.58,15.3,3.28,3.69,6.74,7.25a32,32,0,0,0,7.59,6.22,52.75,52.75,0,0,0,5.09,2.29c.35.13.7.27,1.05.38a11.74,11.74,0,0,0,7.11-4.29,1.23,1.23,0,0,0-.73-1.8c-13.33-3.26-20.28-16.41-26-27.84a73.34,73.34,0,0,0,20-3.72c5-1.67,13.27-11.72,12.61-11.23a39,39,0,0,1-21,7.14c-7.32.45-15.24-1-21.47-5.06-3.14-2-6-5.08-6.27-8.91,2.85.75,5.67,1.53,8.47,2.46.27.09-1.86-2.31-5.27-4.67a41.9,41.9,0,0,0-11.26-5.52,33.93,33.93,0,0,0-4.57-.92c-.8-.1-1.6-.17-2.4-.22a9.53,9.53,0,0,0-2.56-.06,20.92,20.92,0,0,0,2.78,1A1.64,1.64,0,0,0,19.85,76Z"/><path class="cls-7" d="M140.62,141.49c0,.24-.05.48-.08.72-.06.43-.14.86-.24,1.28a15.07,15.07,0,0,1-.69,2.16c-.16.39-.33.78-.51,1.16l1.73.11c5,.29,9.95.32,14.94.12a22.89,22.89,0,0,1-.41-3.79c0-.13,0-.27,0-.41a25.29,25.29,0,0,1,.17-2.88c-2.64,0-5.29-.15-7.89-.42a33.51,33.51,0,0,1-7.35-1.74l.12.5A10.74,10.74,0,0,1,140.62,141.49Z"/><path class="cls-7" d="M233.62,62.6l-.66-1c-.61-.9-5.71-8.93-4.86-8.57,1.63.68,7,4.21,11.75,8.68h1.27a25.62,25.62,0,0,1,2.64.2,73.1,73.1,0,0,0-28.33-21.08,81.06,81.06,0,0,0-11.07-3.76c-2.58-.68-5.2-1.24-7.84-1.69A85,85,0,0,1,203.74,41c7.72,6.61,14.4,14.61,18.6,23.93.29.64.56,1.28.82,1.93,1-.52,2-1,3-1.5A41.26,41.26,0,0,1,233.62,62.6Z"/><path class="cls-8" d="M155.36,143.25a22.89,22.89,0,0,0,.41,3.79,179.8,179.8,0,0,0,32.16-4.28c3.85-.87,7.65-1.95,11.51-2.82a93.88,93.88,0,0,1,11.43-1.63,43.41,43.41,0,0,0,10.36-2,32,32,0,0,0,7.7-4.06c9.79-6.93,15.87-18.78,16.61-30.65.87-14-4.33-27.47-11.92-39a41.26,41.26,0,0,0-7.47,2.72c-1,.47-2,1-3,1.5a42.74,42.74,0,0,1,1.91,26.5,47.35,47.35,0,0,1-15.2,24,64.94,64.94,0,0,1-12.46,7.83c-4.54,2.39-9.31,4.54-13.22,7.92-.3.26-.6.53-.89.81l-1.44.4c-3.79,1.09-7.48,2.44-11.22,3.7a41,41,0,0,1-5.55,1.51,34.58,34.58,0,0,1-5.66.47c-1.3,0-2.6,0-3.91,0a25.29,25.29,0,0,0-.17,2.88C155.36,143,155.36,143.12,155.36,143.25Z"/><path class="cls-8" d="M259.53,95.42a55.91,55.91,0,0,0-3.4-11.53,44.1,44.1,0,0,0-2.24-4.58A64.3,64.3,0,0,0,248.13,68a68.87,68.87,0,0,0-4.37-6,25.62,25.62,0,0,0-2.64-.2h-1.27c1,.93,2,1.9,2.88,2.89,4.4,4.8,6.87,10.35,8,12.5a71.11,71.11,0,0,1,6,16.94c1.52,6.55,1.82,28.08-1.57,36-4.85,11.3-14,15.77-23.37,18.44a26.65,26.65,0,0,0,4.71.8,22,22,0,0,0,10-1.48,17.58,17.58,0,0,0,8.24-6.85,34.82,34.82,0,0,0,4.26-11.08,75,75,0,0,0,1.59-12.4A95,95,0,0,0,259.53,95.42Z"/><path class="cls-8" d="M19.72,74.65c.8,0,1.6.12,2.4.22a33.93,33.93,0,0,1,4.57.92A41.9,41.9,0,0,1,38,81.31c3.41,2.36,5.54,4.76,5.27,4.67-2.8-.93-5.62-1.71-8.47-2.46.28,3.83,3.13,6.87,6.27,8.91,6.23,4,14.15,5.51,21.47,5.06a39,39,0,0,0,21-7.14c.66-.49-7.62,9.56-12.61,11.23a73.34,73.34,0,0,1-20,3.72c5.71,11.43,12.66,24.58,26,27.84a1.23,1.23,0,0,1,.73,1.8,11.74,11.74,0,0,1-7.11,4.29,8.89,8.89,0,0,0,.88.26c-1.44.52-3,.89-4.39,1.34A64,64,0,0,0,60.85,143a11.14,11.14,0,0,0-2.42,1.38,7.51,7.51,0,0,0-1.77,2,.11.11,0,0,0-.08.09,2.38,2.38,0,0,0,0,.26,2.55,2.55,0,0,0,0,.55,1.32,1.32,0,0,0,.61,1.16c.89.57,2.12.13,3-.1a18.39,18.39,0,0,1,3.74-.76,8.36,8.36,0,0,1,1.66.08c.49.07,1.07.37,1.55.19h0a2,2,0,0,0,.48,1.61,1.94,1.94,0,0,0,.9.51l.26.05a9.62,9.62,0,0,0,4.68-.67,8.17,8.17,0,0,0,1.93-1.1l.11-.08.13-.1.16,0A1.11,1.11,0,0,0,76,148l-.06.15a1.34,1.34,0,0,0-.07.18l-.09.26c-.22.69-.09,1.12.25,1.36a1.36,1.36,0,0,0-.28.11.18.18,0,0,0-.11.13.3.3,0,0,0,.06.26c.75.76,2.29.46,3.24.31,1.32-.21,2.63-.55,3.92-.89l1.93-.51a16.45,16.45,0,0,0,2.5-.88,6.86,6.86,0,0,0,2.1-1.47c.18-.18.35-.36.52-.55a.78.78,0,0,0,.32.21c3-2,6.48-3.31,8.65-6.15a8.46,8.46,0,0,0,.84-8.33c-.79-.95-1.69-4.25-1.12-3.8a10,10,0,0,1,2.56,3c.27.29.55.57.83.85,9.78,9.7,23.67,13.6,37.09,14.61.18-.38.35-.77.51-1.16a15.07,15.07,0,0,0,.69-2.16c.1-.42.18-.85.24-1.28,0-.24.06-.48.08-.72a10.74,10.74,0,0,0-.22-3.19l-.12-.5h0v0a7.17,7.17,0,0,0,.43-1.86s0,0,0,0a7,7,0,0,1-.43,1.83l0,.06c-1.16-.4-2.31-.83-3.47-1.28a35.28,35.28,0,0,0-5.4-1.71,28.9,28.9,0,0,0-5.86-.58c-1.67,0-3.33.1-5,.24l-1.81-.46q-3-.78-6-1.76a42.28,42.28,0,0,1-5.2-2,8.16,8.16,0,0,1-2-1.28c-.62-.56-1.11-1.25-1.73-1.82a4.77,4.77,0,0,0-2.22-1.22,3.83,3.83,0,0,1-2.24-.84c-1.22-1.19-2-2.64-3.88-2.95-.63-.11-1.58-.06-1.94.57a3.78,3.78,0,0,0-.16,1c-.09.46-.21.91-.3,1.36a8.9,8.9,0,0,0,.85,5.37,11.23,11.23,0,0,0,2.41,3.24,3.67,3.67,0,0,0-.2.87,7.85,7.85,0,0,0,0,1c-.17.1-.34.2-.5.31a6.65,6.65,0,0,0-2.93,3.84,9.64,9.64,0,0,1-.58.84,19.25,19.25,0,0,1-2,2.2A21.24,21.24,0,0,1,85,146.19a35,35,0,0,1-6.16,2.41c-.3.08-.6.15-.91.21-.16,0-.76.21-.9.11-.29-.2-.1-1,0-1.25a3.59,3.59,0,0,1,.47-1l.22-.1a.23.23,0,0,0,.12-.32A8.35,8.35,0,0,1,79,145.13a.16.16,0,0,0,0-.21c.17-.14.34-.28.5-.43a17.11,17.11,0,0,0,3-3.22c-2,1.32-4.18,2.47-6.15,3.9a.61.61,0,0,1-.36.13l-.39.24a20.2,20.2,0,0,1-3.69,1.7c-.66.21-1.32.4-2,.55a3.82,3.82,0,0,1-1.65,0,1.59,1.59,0,0,1,.13-.52,7.15,7.15,0,0,1,2-2.67c.35-.14.68-.29,1-.45a13.39,13.39,0,0,0,2.85-1.71,15.73,15.73,0,0,1-3.07.72l-.51.19a21.39,21.39,0,0,1-4,1c-2.43.37-5.25.27-6.7,2.62l-.68.34a4.36,4.36,0,0,1-1.54.5c-.78.1-1-.48-1-1.14a.13.13,0,0,0,.07,0,13,13,0,0,1,5.45-2.77c2.28-.68,4.59-1.27,6.87-2s4.44-1.26,6.25-2.65l0,0a10,10,0,0,0,3.24-3.12,8.38,8.38,0,0,0,2-5,1.7,1.7,0,0,0-1.22-1.61c-8.47-2.77-13.58-10.83-17-18.62-.16-.37-.31-.74-.47-1.1h0a1.92,1.92,0,0,1,.5-1.85,5.64,5.64,0,0,1,1.72-1.39c.59-.23,1.44.17,2.06.27a13.37,13.37,0,0,0,5.66-.42c1.76-.48,3.46-1.17,5.2-1.71a19.9,19.9,0,0,1,2.53-.63c1-.15,1.92-.15,2.88-.24a10.63,10.63,0,0,0,5.46-1.91,18.88,18.88,0,0,0,3.83-4,35.67,35.67,0,0,0,5.34-10.09,19.36,19.36,0,0,0,1.17-6,24.34,24.34,0,0,0-1-6,39,39,0,0,1-.85-5.57A11.51,11.51,0,0,0,95,65a26.09,26.09,0,0,0-4.14-4.52,44.09,44.09,0,0,0-4.48-3.71c-3.21-2.3-12.67-3.51-11.61-2.85,1.53,1,1.9,3.1,2.55,4.65a9.73,9.73,0,0,0,1.77,2.75A14.54,14.54,0,0,1,81.17,64c2.42,4.44.69,9.76-1.19,14a8.67,8.67,0,0,1-1.66,3,5.09,5.09,0,0,1-2.64.9,7.6,7.6,0,0,0-3.23,1.36,13.45,13.45,0,0,1-2.64,1.93c-2.12.89-4.61.44-6.81,1.07-1.11.31-2.15,1-3.34.89a8.89,8.89,0,0,1-2.68-1A11.51,11.51,0,0,0,53.36,85a29.71,29.71,0,0,1-3.9-.26l0,0A29.39,29.39,0,0,0,44,79.82a15.31,15.31,0,0,0-1.88-1.09c1.16.24,2.31.53,3.45.88A36.34,36.34,0,0,1,51.33,82a10,10,0,0,0-2.77-2.55c-.28-.21-.59-.41-.92-.62a17.56,17.56,0,0,0-2.29-1.72,12.07,12.07,0,0,0-3.47-1.46c-2.76-.8-5.63-1.24-8.45-1.8-3.09-.61-6.23-1-9.34-1.54-2.23-.37-5.18-.81-6.73-2.65a2,2,0,0,1-.53-1.19c0-.56.6-.83,1.09-1a5.18,5.18,0,0,1,2-.29l.66.11a23.58,23.58,0,0,1,5.88,1.86,11.68,11.68,0,0,0-1.49-2.47,21.63,21.63,0,0,0-2.33-2.8,9.69,9.69,0,0,0-3.48-2.12,26.17,26.17,0,0,0-3.9-.88c-2.32-.41-5-.78-6.77-2.44S7,54.08,6.66,51.8c-.07-.52-.14-1-.23-1.57a25.53,25.53,0,0,0-.71-3.37,20.13,20.13,0,0,0-1.57-3.77c-.55-1.22-1.24-2.36-1.89-3.53A11,11,0,0,1,.7,33.47s0,.56-.06.55-.1-.12-.13,0l0,0h0v0c0,.09-.07.18-.11.28s0,0,0,0v0c-.94,2.71.23,5.54.94,8.18a30.27,30.27,0,0,1,.86,4.52c-.07,2.16-.07,4.31,0,6.44a10.39,10.39,0,0,0,1.19,5.2,7.84,7.84,0,0,0,4.06,3.12l.25.1A30.09,30.09,0,0,0,13,63.4h0l-.7.51A3.33,3.33,0,0,0,11,65.28a2,2,0,0,0,.49,2,16,16,0,0,0,1.43,1.54l.07-.07s0,.08,0,.12a5.27,5.27,0,0,0,.07,1.43,5.84,5.84,0,0,0,3.32,3.9c.26.14.52.26.79.38A9.53,9.53,0,0,1,19.72,74.65ZM3.11,50.19c.05.43.11.87.17,1.31C3.22,51.06,3.16,50.62,3.11,50.19Z"/><path class="cls-14" d="M140.83,146.92l-1.73-.11c-.55,1.18-1.2,2.33-1.86,3.47,1.83.14,3.67.24,5.51.31,4.65.19,9.32.33,14,.33-.43-1.63-.78-3-.84-3.25s-.09-.42-.14-.63C150.78,147.24,145.79,147.21,140.83,146.92Z"/><path class="cls-14" d="M233,61.61l.66,1a27.7,27.7,0,0,1,6.23-.88c-4.79-4.47-10.12-8-11.75-8.68C227.25,52.68,232.35,60.71,233,61.61Z"/><path class="cls-13" d="M118.69,19.94a46.81,46.81,0,0,1,3.74,5.33c2.48,3.85,5,7.86,9.43,9.66a24.9,24.9,0,0,0,7.62,1.33,29,29,0,0,0,3.08.09,33.64,33.64,0,0,0,1.5-4,6.36,6.36,0,0,0,0-2.54c-2.11-.44-4.2-.92-6.28-1.48l-1.91-1.14-2.55-1.57c-3.56-2.2-7.1-4.42-10.85-6.28A75.15,75.15,0,0,0,115,16.16,37.49,37.49,0,0,1,118.69,19.94Z"/><path class="cls-7" d="M169.52,32.91l-1.14-.07c-2.68-.19-5.37-.4-8.07-.67-1.33.32-2.67.62-4,.92s-3,.67-4.41,1.09-2.82,1-4.24,1.4a18.58,18.58,0,0,1-5.09.77c0,.08-.05.16-.07.24a13,13,0,0,0-.12,4.81l0,.35A64.1,64.1,0,0,0,156.05,38C160.46,36.42,165,34.57,169.52,32.91Z"/><path class="cls-8" d="M142.49,36.59c0-.08,0-.16.07-.24a29,29,0,0,1-3.08-.09,24.9,24.9,0,0,1-7.62-1.33c-4.42-1.8-7-5.81-9.43-9.66a46.81,46.81,0,0,0-3.74-5.33A37.49,37.49,0,0,0,115,16.16a61.51,61.51,0,0,0-6.33-1.93c-.68-.17-1.36-.32-2-.46-1.22,1.33-3.06,1.68-4.63,2.52a29.63,29.63,0,0,0-2.66,1.94,5.43,5.43,0,0,1-3.53,1,17.73,17.73,0,0,1-3.92-1c-.63-.2-1.27-.38-1.91-.56.13.23.26.46.41.68a13.82,13.82,0,0,0,2.5,2.51,21.68,21.68,0,0,1,2.53,2.63,15.24,15.24,0,0,1,3,6.22A12.13,12.13,0,0,1,94.56,41.9a7.88,7.88,0,0,1-6,1.81c-2.63-.37-5.58-3-4.93-2.64a6.17,6.17,0,0,1-1-.92,8.79,8.79,0,0,1-1-1.33.65.65,0,0,0-.06.64,15.14,15.14,0,0,0,11.31,9.69,14.16,14.16,0,0,0,13.72-5.59,12.61,12.61,0,0,0,2.51-7.21,20.66,20.66,0,0,0-2.21-9c-.66-1.45-1.41-2.86-2.15-4.26l-.08-.15.07-.06a7.9,7.9,0,0,1,5,1.86c2.56,2.17,3.78,5.32,5.26,8.24s3.43,6,6.37,7.87a28.2,28.2,0,0,0,9.73,3.51,34.18,34.18,0,0,0,6,.8,26.61,26.61,0,0,0,5.42-.43,24.7,24.7,0,0,0-.1-3l0-.35A13,13,0,0,1,142.49,36.59Zm-33.8-15.18h0l.4,0Z"/><path class="cls-14" d="M144.06,32.36a33.64,33.64,0,0,1-1.5,4,18.58,18.58,0,0,0,5.09-.77c1.42-.44,2.81-1,4.24-1.4s2.94-.76,4.41-1.09,2.68-.6,4-.92A159.54,159.54,0,0,1,144,29.82,6.36,6.36,0,0,1,144.06,32.36Z"/><path class="cls-15" d="M74.49,14.28l0,0,0,0Z"/><path class="cls-16" d="M99.55,29.06a11.89,11.89,0,0,0-1.65-4.73,29.47,29.47,0,0,0-3.25-4,33.38,33.38,0,0,1-3-3.69,28.8,28.8,0,0,1-2.49-4.52,13.88,13.88,0,0,0-6-6.79C80.17,3.77,76,3,72.91,4.58A6.15,6.15,0,0,0,69.85,8.8a7.48,7.48,0,0,0,1.42,5.41.5.5,0,0,0,.9-.39A12.21,12.21,0,0,1,72,11.56a8.84,8.84,0,0,1,.44-2,3.58,3.58,0,0,1,2-2.4,9,9,0,0,1,6.88.82,10.51,10.51,0,0,1,4.82,5.34,32.5,32.5,0,0,0,2,4.12A29.62,29.62,0,0,0,90.85,21c1.71,2,4.08,3.91,5,6.48a14.14,14.14,0,0,1,.68,4.24,14.42,14.42,0,0,1-.3,4.49,6.72,6.72,0,0,1-4.34,4.53,6.86,6.86,0,0,1-6.58-1.41c-2.27-2.08-3.24-5.27-4.06-8.14-.48-1.71-.84-3.44-1.2-5.17-.19-.87-.35-1.73-.49-2.6A11.64,11.64,0,0,0,79,20.77a.89.89,0,0,0-1.7,0,14.28,14.28,0,0,0-.07,5.53,32.17,32.17,0,0,0,1,5.33c.87,3.2,2,6.62,4.15,9.2a9.82,9.82,0,0,0,8.44,3.44,10,10,0,0,0,7.54-4.83C100.18,36.39,100,32.45,99.55,29.06Z"/><path class="cls-17" d="M93.49,40.2c3.64-2.91,4.38-7.77,3.38-12.2a15.47,15.47,0,0,0-3-6.23,23.18,23.18,0,0,0-2.53-2.62,13.81,13.81,0,0,1-2.5-2.51c-1.28-1.94-1.68-4.3-2.77-6.33a8.57,8.57,0,0,0-5.59-4.24,15,15,0,0,0-4-.43,9.5,9.5,0,0,0-4.18.83A4.22,4.22,0,0,0,70,10.59,20.89,20.89,0,0,1,70.21,13a8.88,8.88,0,0,0,.27,1.8A3.49,3.49,0,0,1,71.06,13c1-1.49,3.52-2,5.2-2.16a9.62,9.62,0,0,1,5.16.83,7.82,7.82,0,0,1,3.58,4c.79,1.77,1.21,3.69,1.86,5.51a17,17,0,0,0,3.26,5.57c.7.79,1.47,1.49,2.22,2.22a7.61,7.61,0,0,1,1.82,2.25C95,33,93.71,35,92.53,36.3a10.84,10.84,0,0,1-5.31,3.22,9.46,9.46,0,0,1-3,.3c-.67,0-1.31-.11-2-.14A10.91,10.91,0,0,0,87,42,8.94,8.94,0,0,0,93.49,40.2Z"/><path class="cls-18" d="M94.16,31.15a7.61,7.61,0,0,0-1.82-2.25c-.75-.73-1.52-1.43-2.22-2.22a17,17,0,0,1-3.26-5.57c-.65-1.82-1.07-3.74-1.86-5.51a7.82,7.82,0,0,0-3.58-4,9.62,9.62,0,0,0-5.16-.83c-1.68.15-4.18.67-5.2,2.16a3.49,3.49,0,0,0-.58,1.79,8.45,8.45,0,0,0,.28.85,10.74,10.74,0,0,0,.91,1.75q.14-.2.3-.39a4.24,4.24,0,0,1,2.51-1.27,7.79,7.79,0,0,1,3.08,0,6.32,6.32,0,0,1,2.55,1.62,12.05,12.05,0,0,1,1.8,1.91,5.87,5.87,0,0,1,1,2.53,7.51,7.51,0,0,0,.44,2.5,14,14,0,0,0,1.74,2,7,7,0,0,1,1.3,2.44,6.1,6.1,0,0,1,.43,3,5.17,5.17,0,0,1-1.35,2.21A6.31,6.31,0,0,1,83,35.74a5.82,5.82,0,0,1-2.93.13c-.24,0-.47-.09-.7-.15A10.24,10.24,0,0,0,81,38.46a6.74,6.74,0,0,0,1,.92c-.19-.1-.08,0,.23.3.65,0,1.29.11,2,.14a9.46,9.46,0,0,0,3-.3,10.84,10.84,0,0,0,5.31-3.22C93.71,35,95,33,94.16,31.15Z"/><path class="cls-19" d="M83,35.74a6.31,6.31,0,0,0,2.51-1.88,5.17,5.17,0,0,0,1.35-2.21,6.1,6.1,0,0,0-.43-3,7,7,0,0,0-1.3-2.44,14,14,0,0,1-1.74-2,7.51,7.51,0,0,1-.44-2.5,5.87,5.87,0,0,0-1-2.53,12.05,12.05,0,0,0-1.8-1.91,6.32,6.32,0,0,0-2.55-1.62,7.79,7.79,0,0,0-3.08,0A4.24,4.24,0,0,0,72,17q-.16.2-.3.39c1,1.63,2.43,3,3.51,4.63a8.08,8.08,0,0,1,1.21,3.4,28.5,28.5,0,0,0,.92,4.77c.46,1.5,1,3,1.6,4.42.15.38.3.77.46,1.14.23.06.46.11.7.15A5.82,5.82,0,0,0,83,35.74Z"/></g></g></svg>