<svg xmlns="http://www.w3.org/2000/svg" viewBox="0 0 2430.12 2346.49"><defs><style>.cls-1{fill:#fff;}.cls-2{fill:#ffa726;}.cls-3{fill:#6b184e;}.cls-4{opacity:0.6;}.cls-5{opacity:0.2;}.cls-6{fill:#ff6ca8;}.cls-7{fill:#62555c;}</style></defs><g id="Layer_2" data-name="Layer 2"><g id="Layer_1-2" data-name="Layer 1"><path class="cls-1" d="M2274.34,1407.13c0,2.75,0,5.54-.12,8.29-.17,6.84-.5,13.75-.92,20.84-19.29,312.13-288,850.84-1086.59,887.51C387.36,2360.47,15.86,2011.26,20,1615.43a605,605,0,0,1,5.58-76.5q3.57-26.19,9.38-51.13c72.16-313.38,391.25-479.17,635-478,0,0,595.84-281.92,966.68-206.92C2004.21,877.25,2277.59,1103,2274.34,1407.13Z"/><path class="cls-2" d="M2274.35,1407.13c0,2.75,0,5.54-.12,8.29-8.33,308.34-270.84,870.84-1087.51,908.34C387.38,2360.47,15.87,2011.26,20,1615.42a607.18,607.18,0,0,1,5.58-76.5c22.14,429,388.89,590,618.63,656.74C931.11,2279,1206.54,2188,1420,2131.77s297-3.72,488.89-144.44C2158.89,1804,2213.35,1558.92,2274.35,1407.13Z"/><path class="cls-2" d="M1445.08,1399.37c-143.12,159-351.07,78.72-644.53-34.27-144.33-55.57-492.79-25.36-486.12-84.78s440.29-140.66,779.58-85.61C1246.67,1219.48,1485.09,1354.94,1445.08,1399.37Z"/><path class="cls-3" d="M1071.28,2346.49c-484.53,0-743.94-148-878.22-277.65C65,1945.18-1.79,1788.33,0,1615.22c2.47-235.38,127-384,230.94-467.16,123.53-98.84,285.67-157.79,434.65-158.21,25.55-11.8,166.24-75.46,342.71-130.67,262.45-82.11,475.21-107.64,632.34-75.85,191.1,38.65,353.81,116,470.54,223.65,123.86,114.25,187.14,255.68,183,409-2,72.71-25.5,328.61-245.88,568.71-200.32,218.25-497.94,342.41-860.7,359.07Q1127.44,2346.52,1071.28,2346.49ZM667.35,1029.85c-261.29,0-623.29,202.73-627.31,585.79-1.71,161.84,60.81,308.59,180.8,424.42,139,134.15,419.21,288.8,965,263.74,767.23-35.23,1059.3-550.89,1068.44-888.9,7.62-282-236.32-514.47-621.48-592.37-360-72.8-948.26,202.61-954.15,205.4a22.31,22.31,0,0,1-8.66,1.92Z"/><path class="cls-2" d="M688.2,1523s-42.49-3.87-78.31-37.72-82.18-84.65-119.83-50.46-5.29,172.89,61.49,219C551.55,1653.84,672.16,1660.52,688.2,1523Z"/><g class="cls-4"><path class="cls-1" d="M493.32,1480.7c37.65-34.2,84,16.6,119.84,50.45,23.23,22,49.26,31.3,64.69,35.15a197.09,197.09,0,0,0,8.35-38.76s-42.49-3.87-78.31-37.72-82.18-84.65-119.83-50.46c-17.54,15.93-19.87,54.52-10.63,95.87C477,1511.11,481.9,1491.08,493.32,1480.7Z"/></g><path class="cls-3" d="M551.53,1673.84a19.9,19.9,0,0,1-11.34-3.54c-51.08-35.26-81.76-113-85.66-171.5-2.42-36.2,5.22-63.43,22.08-78.75,48.41-44,102.43,7.93,138.18,42.27,3,2.9,6,5.73,8.84,8.46,30,28.34,66.13,32.3,66.49,32.34a20,20,0,0,1-3.73,39.82c-2-.18-49.85-4.92-90.24-43.1-2.95-2.79-6-5.7-9.07-8.67-41.67-40-66-57.43-83.58-41.51-5.54,5-10.83,19.89-9.06,46.47,3.23,48.43,29.73,114.5,68.47,141.25a20,20,0,0,1-11.38,36.46Z"/><g class="cls-5"><path class="cls-3" d="M2273.3,1436.26c-19.29,312.13-288,850.84-1086.59,887.51C387.36,2360.47,15.86,2011.26,20,1615.43a605,605,0,0,1,5.58-76.5q3.57-26.19,9.38-51.13c46.54,257.84,269.79,452.09,512.79,536.67,333.34,116,608.34-82.67,847.59-120.17s381.59,8.34,564.93-79.16C2079.55,1768.22,2202.17,1568.72,2273.3,1436.26Z"/></g><path class="cls-2" d="M2407,536.92c-1.79,23.21-10.46,46.29-23.29,68.41C2330.37,697.5,2205,773.17,2205,773.17a362.29,362.29,0,0,1,11.58,35c3.63,13,6,24.08,7.33,31.88s1.92,12.29,1.92,12.29L2237,866.21s92.58,58.13,97.21,196.34c.91,26.25-1.38,55.37-8.09,87.54-1.67,8-3.58,16.13-5.79,24.46a299.48,299.48,0,0,1-13.21,38.92c-3.08,7.41-6.42,14.5-10,21.29a.55.55,0,0,0-.12.16c-56,107.42-165,139.76-229.05,149.42-30.25,4.59-50.45,4.13-50.45,4.13-50.21,6.54-96-15.81-138.92-15.31-294.84,3.42-402.41-145.57-561.12-197.32-64.17-20.91-145-1.26-199.08-15.26-135.54-35.08-241.23-37.49-277.44-42.45-9.91-1.33-15.12-1.92-15.12-1.92-88.34-25.79-142.42-70.58-173.13-122.08-49.75-83.38-38.21-184.46-11.37-251.34,3-7.45,6.2-14.45,9.5-21,1.41-2.83,2.91-5.62,4.45-8.33,72.25-130.67,228.88-147.25,228.88-147.25C925.82,513.46,1048,394,1048,394c-20.63-186.88-8.67-290.5,36.58-341a106.88,106.88,0,0,1,21.75-18.71c61.25-39.92,120.84,6.91,170.84,69.41s119.46,127.8,119.46,127.8c31.91-14.21,72.58-27.25,83.95-30.84l3.09-.95a53.05,53.05,0,0,1-5.42-5.3c-8-9-20.42-28.12-1.16-46.37,18.25-17.29,53,6.46,72.79,22.92,8.46,7,14.16,12.66,14.75,13.29-.34-.67-4.59-9-9.59-20.67-12.58-29.37-30-79.92-1.45-81.42,28-1.46,72.66,50.38,97.41,82.17,10.29,13.29,17.13,23.08,17.79,24-.37-1.08-3.7-11-6.7-24.41-6.17-27.5-11-69.63,13.71-79.67,37.5-15.29,75,55.54,102.79,105.54S1855,274.54,1855,274.54c82,27.79,152.8,119.46,152.8,119.46s51.37,19.46,176.37,18,183.75,14.5,210.51,65.09A107.36,107.36,0,0,1,2407,536.92Z"/><g class="cls-4"><path class="cls-1" d="M1253.93,273.76S962.42,499,964.83,580.14c-2.63,9.11,0,6.62,0,6.62l-67.68-32.61S1064.23,351.56,1253.93,273.76Z"/></g><g class="cls-4"><path class="cls-1" d="M964.83,586.77s-226.12,14.82-307,127.28C657.83,714.05,769.36,519.24,964.83,586.77Z"/></g><g class="cls-4"><path class="cls-1" d="M2328.63,1150.67l-8.62,9.92c0-317.34-277.76-307.84-277.76-307.84,25.84-17.29,109.42-16.75,184.22-12.12,1.41,7.75,1.91,12.29,1.91,12.29l11.13,13.87s92.58,58.13,97.21,196.34C2337.63,1089.38,2335.34,1118.5,2328.63,1150.67Z"/></g><g class="cls-5"><path class="cls-3" d="M2097.83,564s50,235-47.95,287.63c0,0,108.33-45.29,183.34,11C2233.22,862.63,2168.7,644.62,2097.83,564Z"/></g><g class="cls-4"><path class="cls-1" d="M1524.21,235.2l-168.29,39.92s-97-127.79-152.34-186.13C1173,56.79,1124.5,51.7,1087.16,53.58a107.19,107.19,0,0,1,21.75-18.71c61.25-39.92,120.84,6.92,170.84,69.42s119.46,127.79,119.46,127.79c31.91-14.21,72.58-27.25,84-30.83C1492.46,218.41,1524.21,235.2,1524.21,235.2Z"/><path class="cls-1" d="M1583.71,235c-4.42-3.67-86.33-70.46-100.67-50.21a12.81,12.81,0,0,0-2.21,10.17c-8-9-20.41-28.13-1.16-46.38,18.25-17.29,53,6.46,72.79,22.92C1544.67,193.37,1580.79,231.91,1583.71,235Z"/><path class="cls-1" d="M1653.58,164.91C1627.42,177.08,1643.5,214,1643.5,214c-9.83-16.67-62.37-69.42-85.87-49.84-12.59-29.37-30-79.92-1.46-81.42C1584.13,81.29,1628.83,133.12,1653.58,164.91Z"/><path class="cls-1" d="M2409.59,537.5c-58.17-118.84-335.29-82.09-377-82.75-56.92-.92-73.63-32.42-73.63-32.42-50-77.75-156.83-126.79-156.83-126.79s-98.55-118.92-137.42-131c-6.17-27.5-11-69.63,13.71-79.67,37.5-15.29,75,55.54,102.79,105.54s76.38,84.71,76.38,84.71c82,27.79,152.79,119.46,152.79,119.46s51.37,19.46,176.38,18,183.75,14.5,210.5,65.09A107.28,107.28,0,0,1,2409.59,537.5Z"/></g><path class="cls-6" d="M1253.93,273.76c-41.75,12.45-93.88,44.7-134.25,72.75-4.42-50.46-14.5-206.42,29.66-221.26C1202.13,107.55,1253.93,273.76,1253.93,273.76Z"/><path class="cls-6" d="M2182,702.28c-19.16-46.84-48.25-105.26-84.2-138.26,0,0,56.95-11.12,102.79-19.45S2320.05,505,2334,554.32C2346.92,600.27,2208.84,686.11,2182,702.28Z"/><path class="cls-3" d="M1567.22,204.87a19.83,19.83,0,0,1-13.69-5.45l0,0a20,20,0,1,1,13.74,5.49Z"/><path class="cls-1" d="M2309.64,1214.06c-75,179.88-289.59,175-289.59,175-323.65,18.07-557.88-110.5-734.76-168.1C970,1118.3,828.92,1122.41,828.92,1122.41,581.71,1050.2,602,823.76,653.37,722.39c1.42-2.84,2.92-5.63,4.46-8.34,53.46-48.58,130-100,203.88-86.12,133.33,25,171,166.67,285.5,152.79s214.5-169.46,300.63-136.12,94.42,205.54,244.42,280.54,375-38.88,494.46,11.13C2280.43,975.47,2331.64,1098.47,2309.64,1214.06Z"/><path class="cls-7" d="M1515.42,1046.25c-3.5,41.8-47.17,80.67-107.46,95.5-4,1-8.17,1.88-12.34,2.63-3.37.62-6.79,1.17-10.25,1.62a233.68,233.68,0,0,1-107-10.83c-.16,0-.33-.12-.5-.17-3.33-1.16-6.62-2.29-9.79-3.5s-6.5-2.5-9.67-3.79c-24.58-10.08-44.66-21.71-60.66-34.37-2.79-2.17-5.46-4.42-8-6.67-3.25-2.87-6.34-5.83-9.21-8.83-35-36.25-41.63-78.38-30-115.09,13.17-41.29,74.46-82.16,132.17-112.62a37.86,37.86,0,0,0,12.12,13.25,31.56,31.56,0,0,0,4.34,2.33,18.05,18.05,0,0,0,6.91,1.5,31.09,31.09,0,0,0,10.29-1.42c27.84-8,63.38-47.25,63.38-47.25s3.42,10.09,9.58,23.5v.05c1.38,3,2.88,6.08,4.55,9.33,1.75,3.5,3.7,7.08,5.79,10.67,7.62,13.29,17.25,26.79,28.5,35.83a55.62,55.62,0,0,0,8.58,5.87,40.53,40.53,0,0,0,10.38,4.17,35.17,35.17,0,0,0,4.12.79,41.41,41.41,0,0,0,17.92-1.75C1496.17,955.34,1518.46,1010.13,1515.42,1046.25Z"/><path class="cls-1" d="M1447.17,908c-1,55.58-7.55,154.92-39.21,233.79-4,1-8.17,1.88-12.34,2.63-3.37.62-6.79,1.17-10.25,1.62a10.08,10.08,0,0,1,.67-5.7c34.71-81.42,39.75-192.63,40.33-236.63a10.37,10.37,0,0,1,1.84-5.75,55.62,55.62,0,0,0,8.58,5.87A40.53,40.53,0,0,0,1447.17,908Z"/><path class="cls-1" d="M1399.71,862.09c-48.75,82.62-97,205.83-121.84,272.91-3.33-1.16-6.62-2.29-9.79-3.5s-6.5-2.5-9.67-3.79C1284,1058.5,1334.33,930,1385,846a10.17,10.17,0,0,1,4.37-3.95c1.38,3,2.88,6.08,4.55,9.33C1395.67,854.92,1397.62,858.5,1399.71,862.09Z"/><path class="cls-1" d="M1313.08,875c-43.5,39.13-98.46,107.88-113,213.13a10.57,10.57,0,0,1-2.33,5.25c-2.79-2.17-5.46-4.42-8-6.67-3.25-2.87-6.34-5.83-9.21-8.83,16.37-104,70-173.38,114.33-214.46a31.56,31.56,0,0,0,4.34,2.33,18.05,18.05,0,0,0,6.91,1.5,31.09,31.09,0,0,0,10.29-1.42A10.34,10.34,0,0,1,1313.08,875Z"/><path class="cls-3" d="M2227.75,883a10.32,10.32,0,0,1-2-.8l-2.48-1.11c-1.64-.81-3.45-1.52-5.22-2.31-3.45-1.63-7.23-3-10.82-4.54-7.41-2.76-14.82-5.73-22.56-8a328.35,328.35,0,0,0-47.66-11.43c-8.25-.69-16.59-2.38-25.05-2.46-4.22-.13-8.49-.52-12.76-.65l-12.89.1h-6.52l-6.5.42q-6.51.46-13.16.76c-8.78.77-17.58,2-26.69,2.64l-.27,0a2.89,2.89,0,0,1-1.58-5.42c8-4.34,16.19-8.79,24.69-12.49q6.43-2.61,13-5l6.58-2.47q3.34-1,6.74-2l13.63-3.7c4.59-1.13,9.27-1.83,13.95-2.65a128.75,128.75,0,0,1,14.15-2c4.76-.48,9.54-.92,14.34-1.16,19.2-.65,38.84.71,57.88,5.64,2.38.63,4.78,1.15,7.13,1.9l7,2.38a144.9,144.9,0,0,1,27.16,12.49c2.19,1.28,4.33,2.67,6.5,4.18,1.1.74,2.11,1.46,3.25,2.35s2.06,1.57,3.64,2.89a17.62,17.62,0,0,1-9.63,31.06Z"/><path class="cls-3" d="M885.65,546.83a54.31,54.31,0,0,1,13.69-1.69,70,70,0,0,1,13,1.16,95.34,95.34,0,0,1,25,8.46,98.46,98.46,0,0,1,22.27,15,63.44,63.44,0,0,1,15.55,21.7,3.13,3.13,0,0,1-3.7,4.21l-.24-.06A155.61,155.61,0,0,0,948.79,591c-7.18-.84-14.09-1.22-21-1.39s-13.75.17-20.49-.16c-3.38-.13-6.75-.36-10.08-.75s-7-.92-9.47-1.94l-5-2.08A20,20,0,0,1,872,558.56,20.2,20.2,0,0,1,885.65,546.83Z"/><ellipse class="cls-3" cx="1813.8" cy="774.81" rx="77.08" ry="104.17" transform="translate(-67.31 181.83) rotate(-5.63)"/><ellipse class="cls-3" cx="1173.97" cy="631.27" rx="92.28" ry="68.74" transform="translate(-77.19 1090.94) rotate(-48.44)"/><path class="cls-3" d="M2207.55,793.77a20,20,0,0,1-19.2-14.43c-.42-1.44-42.32-144-104-200.56a20,20,0,0,1,9.68-34.37c.57-.11,57.6-11.23,103-19.49,8.33-1.52,18-3.93,28.18-6.48,44.42-11.11,111.55-27.89,128,30.45,8.61,30.59-16,66.93-77.61,114.35-26.13,20.14-52.71,37.41-68.65,47.35,12.22,31.67,19.12,55.19,19.82,57.61a20,20,0,0,1-19.21,25.57ZM2136.41,577c22,28.45,40.52,63.68,55,96.12,15.51-9.83,38.18-24.87,60.05-41.74,67.75-52.26,63.31-71.43,63.25-71.61-5-17.83-29.71-15-79.78-2.49-10.86,2.71-21.11,5.27-30.72,7C2181.68,568.36,2156.29,573.17,2136.41,577Z"/><path class="cls-3" d="M1382.55,818.56s-38.54-59.91-22.92-70.06S1427.34,729,1443,754,1382.55,818.56,1382.55,818.56Z"/><path class="cls-3" d="M1456.24,922.14a56.68,56.68,0,0,1-7.19-.46c-36.5-4.71-62.23-47.65-75.59-76.55-22,20-55.36,43.46-81.24,32.18-36.37-15.86-38.2-70.08-38.29-76.21a17.5,17.5,0,0,1,35-.53c.23,11.74,4.9,39.25,17.27,44.65,7.21,2.92,36.56-16.35,60.62-42.87a17.49,17.49,0,0,1,29.55,6.18c8.19,24.23,32.94,75.31,57.17,78.44,23.55,3,53.54-36.25,64.41-55.74a17.5,17.5,0,0,1,30.6,17C1544.19,856.09,1506.06,922.14,1456.24,922.14Z"/><path class="cls-3" d="M1355.28,1165.43a256.64,256.64,0,0,1-82.55-13.68c-133.46-45.55-159.21-130.23-138.82-194.29,12.35-38.74,59.68-80.05,140.67-122.8a17.49,17.49,0,0,1,23.31,6.7c2.42,4.18,5.21,7,8.28,8.31,7.18,2.86,36.56-16.38,60.67-42.88a17.5,17.5,0,0,1,29.54,6.19c8.19,24.23,32.94,75.31,57.15,78.43a24.1,24.1,0,0,0,10.44-1.09,17.46,17.46,0,0,1,20.52,8.17c19.77,35.45,52.35,102,48.37,149.24h0c-2.65,31.33-23.59,62-57.45,84.11S1399.11,1165.43,1355.28,1165.43Zm-77.08-293c-63.11,34.82-102.31,68.54-110.94,95.6-15.37,48.26,7.24,113.16,116.77,150.54,71.52,24.39,135.87,7.69,172.24-16.07,24.77-16.19,40-37.24,41.72-57.76,2.17-25.88-11.65-68.59-38.11-118.32a56.82,56.82,0,0,1-10.84-.35c-36.49-4.7-62.22-47.64-75.57-76.54-22,19.95-55.37,43.45-81.25,32.19A48.24,48.24,0,0,1,1278.2,872.48Zm237.22,173.79h0Z"/><path class="cls-3" d="M2276.23,1303.72c-3.82,4.64-7.85,9.14-11.93,13.61l-6.21,6.63c-2.18,2.08-4.54,4-6.82,5.94-4.57,3.94-9.2,7.83-13.93,11.57-5,3.38-9.93,6.79-15,10-2.55,1.58-5,3.34-7.63,4.77l-7.92,4.23c-5.36,2.64-10.52,5.69-16.06,7.88s-11,4.46-16.53,6.64-11.22,3.71-16.8,5.57a336.14,336.14,0,0,1-68.54,13.29c-23.06,1.8-46.07,1.76-68.85-1.93a2.88,2.88,0,0,1,0-5.68l.18,0a523.07,523.07,0,0,0,64.2-15.74,450.18,450.18,0,0,0,60.07-23.54c19.3-8.9,37-20.19,54.09-31.7,4.13-3.08,8.39-6,12.64-8.88q5.9-5,12-9.66l6.08-4.73,5.67-5.17c3.84-3.41,7.73-6.78,11.83-10l1.8-1.42a20,20,0,0,1,27.76,28.36Z"/><path class="cls-3" d="M2265.6,1305.57a20,20,0,0,1-15.1-33.11,243.55,243.55,0,0,0,40.68-66.1,279.79,279.79,0,0,0,12.34-36.34c53.57-201.52-69.45-282.95-74.71-286.32a20.27,20.27,0,0,1-4.9-4.38l-11.12-13.88a20,20,0,0,1-4.28-10.31c0-.31-4-34-19.59-74.11a20,20,0,0,1,8.3-24.38c2.46-1.49,245.49-150.13,182.32-269.57-21.68-41-73.88-55.8-192.6-54.44-127.21,1.42-181.44-18.48-183.68-19.33a20,20,0,0,1-8.74-6.48c-.67-.86-68.25-87.27-143.39-112.75a19.52,19.52,0,0,1-5.2-2.66c-2.13-1.52-52.64-37.94-82.24-91.28l-3.14-5.65c-16.44-29.66-55-99.11-74.62-91.08-9.93,4-7.74,43.25,4.4,79.16a20,20,0,0,1-35.3,17.92c-.22-.31-.9-1.35-2-3-49.39-79.24-82-99.22-89.22-96.22-3.88,1.61-4.71,3.37-5.23,5-2.73,8.74,2,31.34,24.43,66.22,1.16,1.8,1.82,3,2,3.31a20,20,0,0,1-32.54,22.61c-16.54-16.57-47.48-37.49-57.14-36.22-2.68,2-2.87,3.32-3,4.06-.79,5.67,4.8,15.94,9.15,21.17a20.05,20.05,0,0,1-9.46,32c-.48.15-48.83,15-84.74,31a20,20,0,0,1-21.82-3.71c-2.88-2.7-71.07-67-121.38-129.87-75.05-93.8-118.3-82.1-144.3-65.15-56.13,36.59-71.36,141.68-49.37,340.76a20,20,0,0,1-5.9,16.49c-1.21,1.19-121.77,119.17-162.17,170.31a19.92,19.92,0,0,1-13.58,7.49c-1.44.16-147.33,17.39-213.48,137-1.5,2.63-2.83,5.11-4.09,7.63-34.84,68.75-47.67,179.86,6.42,261.5A20,20,0,1,1,644.32,1015c-63.26-95.49-50-220.28-8.79-301.6,1.55-3.08,3.21-6.19,4.93-9.2,67.27-121.66,200.45-150.46,235.67-156.06,39.72-48.21,127.91-135.74,153.53-161-22.52-212.58-2-323.17,68.34-369,60.4-39.35,126.79-14.55,197.37,73.69,37.8,47.25,87.66,96.82,108.15,116.69,18.65-7.69,38.35-14.67,53.14-19.66-3.18-8.27-5.26-17.94-3.91-27.92,1.76-13,8.89-24.18,20.62-32.17,13.59-9.25,30.11-7.69,46.12-1.47q-3.52-18.54,1-32.95c4.31-13.81,14-24.2,28-30,25.67-10.67,56.54,5.13,92.18,47.05,2.52-19.7,10.85-37.12,30.18-45,52.55-21.41,92.54,50.75,124.68,108.74l3.12,5.62c22,39.58,59.12,69.46,68.39,76.55,74.94,26.8,138.68,100,155.12,120.1,15,4.28,66.22,16.33,164.34,15.28,115.46-1.36,194.14,10.95,228.4,75.73C2486,602.8,2288,745.24,2231.85,782a376.35,376.35,0,0,1,15.6,62.7l5.75,7.17c22,15.31,146.28,112.84,89,328.38a319,319,0,0,1-14.08,41.51,283.7,283.7,0,0,1-47.37,76.88A20,20,0,0,1,2265.6,1305.57Z"/><path class="cls-3" d="M827.57,1119.55a265.88,265.88,0,0,1-99.65-27.18c-15.77-7.92-31.15-17.42-44.7-29.35s-25.73-25.69-34.48-41.62A20.13,20.13,0,0,1,681,997.83l.42.45c10.52,11.06,20.39,22.24,31.3,32.78a423,423,0,0,0,34.38,30.75,429,429,0,0,0,39.23,27.28c13.74,8.66,28.16,16.64,42.89,25h0a2.93,2.93,0,0,1-1.63,5.47Z"/><path class="cls-3" d="M1671.42,209.05A20,20,0,1,1,1686,175.26a20.23,20.23,0,0,1,5.47,13.79A20,20,0,0,1,1671.42,209.05Z"/><path class="cls-3" d="M1050.6,414.59a20,20,0,0,1-12.68-35.48c2.11-1.72,24.47-19.93,55.88-42.22a935.8,935.8,0,0,1-3.83-94.65c1.32-82.13,16.67-125.33,48.32-135.95,12-4,24.86-2.86,37.1,3.4,49.42,25.26,86.07,136.15,92.92,158.12a20,20,0,0,1-13.38,25.11c-75.4,22.53-190.52,116.21-191.68,117.15A19.93,19.93,0,0,1,1050.6,414.59Zm102-270.66a4.79,4.79,0,0,0-1.6.28c-.19.07-19.54,7.61-21,98.34-.41,25,.7,49.66,2,68.47,29.48-19,62.13-37.74,92.07-49.6-16.58-46.51-44.45-104.69-66.82-116.12A10.19,10.19,0,0,0,1152.61,143.93Z"/><ellipse class="cls-1" cx="1802.1" cy="748.21" rx="28.54" ry="38.56" transform="translate(-64.76 180.55) rotate(-5.63)"/><ellipse class="cls-1" cx="1192.98" cy="614.7" rx="32.3" ry="23.9" transform="translate(-106.36 950.53) rotate(-41.75)"/><g class="cls-5"><path class="cls-3" d="M2322.84,1175.13a298,298,0,0,1-13.21,38.92q-4.62,11.12-10,21.29a.5.5,0,0,0-.12.17c-44.38,64.62-115.38,123.29-229,149.41q-9.75,2.25-19.92,4.17a687.92,687.92,0,0,1-169.88,10.21c-266.5-16.17-492.79-172.25-626.8-204.59-36.66-8.83-85.33-14.16-139.91-20.71-83.55-10-181-22.79-270.51-55.29-71.41-25.91-137.83-64.41-188.25-124C605.49,911.34,617,810.25,643.87,743.38c3.12,132,71,296.37,406.71,247.21,0,0,191.71,152.08,473.63,50.25,0,0,549.63,521.21,812.51,22.29C2337.84,1095.88,2334,1133.09,2322.84,1175.13Z"/></g><g class="cls-5"><path class="cls-3" d="M2205,773.77a359.8,359.8,0,0,1,11.59,35l-2.8,1.54s-47.62-171.92-118.5-246.25c0,0,171.3-49.59,216.88-26.54,27.25,13.75,48.63,35.66,71.58,68.41C2330.37,698.1,2205,773.77,2205,773.77Z"/></g><path class="cls-1" d="M1607.55,1184.18S1578.38,987.31,1499.21,1055c0,0-43.75-28.13-62.5,35.41,0,0-71.87-15.62-26,102.09,0,0-9.37,93.75,63.54,87.5"/><path class="cls-3" d="M1467.53,1297.81c-24.9,0-40.62-10.32-49.66-19.49-25.67-26-25.73-68.8-24.94-83.18-19.25-51-20-85.81-2.42-106.44,9.61-11.25,22.79-15.43,34-16.3,8.14-19.52,20-32.27,35.27-38,14.42-5.37,28-2.92,37.17.32,21.43-14.38,39.45-12.69,51.37-8.23,54,20.18,73.21,132.73,76.52,155.09a17.5,17.5,0,0,1-34.62,5.14c-7-47.14-28.47-117.85-54.17-127.46-2.58-1-10.41-3.88-25.48,9a17.52,17.52,0,0,1-20.84,1.42h0s-9.55-5.67-17.91-2.44c-7.32,2.83-13.83,12.81-18.34,28.09a17.5,17.5,0,0,1-20.5,12.14h0s-11-1.88-16,4c-3.06,3.68-11.38,19.92,9.93,74.65a17.43,17.43,0,0,1,1.1,8.09c-1.07,11.3-.52,44.1,14.77,59.54,7,7,16.75,9.92,29.87,8.78a17.5,17.5,0,0,1,3,34.88C1472.88,1297.7,1470.15,1297.81,1467.53,1297.81Z"/><path class="cls-3" d="M1514.21,1048.48a42.07,42.07,0,0,1,9.32,14.27,74.1,74.1,0,0,1,4.44,16.32c1.76,11.22,2.19,23.2-1.64,34.66a2.39,2.39,0,0,1-4.18.7l-.05-.07-9.95-12.89-9.25-12.09a136.17,136.17,0,0,1-8.51-12c-2.43-4.07-4.79-8.56-5.66-13l-.37-1.92a15.38,15.38,0,0,1,12.16-18A15.55,15.55,0,0,1,1514.21,1048.48Z"/><path class="cls-3" d="M1446.5,1079.06c1.34.9,1.85,1.19,2.62,1.76s1.34,1,2,1.53a34.65,34.65,0,0,1,3.37,3.24,41.86,41.86,0,0,1,5.28,7.17,59.8,59.8,0,0,1,6.26,16,84.83,84.83,0,0,1,2.34,16.69,67.05,67.05,0,0,1-1.54,16.87,2.45,2.45,0,0,1-2.94,1.83,2.4,2.4,0,0,1-1.13-.61l-.06,0c-4.14-4-7.54-7.92-11-11.65s-6.61-7.37-9.81-10.79-6.34-6.61-9-9.87a61.1,61.1,0,0,1-3.71-4.88c-.55-.85-1.09-1.62-1.53-2.46-.22-.37-.44-.86-.61-1.19s-.48-.92-.08-.86a15,15,0,1,1,19.57-22.74Z"/><path class="cls-1" d="M1022.13,1019.93c50-66,186.61-123.71,191.37-32.4,0,0,44.35,10.85,15.24,61.19,0,0,53.39,36.29-49.22,78.28,0,0-105.84,77.16-145.93,27"/><path class="cls-3" d="M1072.26,1188.64c-19.85,0-38.46-6.37-52.35-23.74a17.5,17.5,0,1,1,27.35-21.85c24.11,30.18,98-12.77,122-30.2a17.15,17.15,0,0,1,3.67-2c48-19.65,51.91-34.4,52.2-37.15.55-5.22-6.12-10.41-6.19-10.46a17.5,17.5,0,0,1-5.31-23.23c6.65-11.5,9-21,6.67-26.74-2.54-6.22-11.06-8.72-11.15-8.75a17.19,17.19,0,0,1-13.08-16c-1.11-21.1-10.13-26.54-17.87-28.92-34.13-10.48-108.49,26.66-142.09,71a17.5,17.5,0,1,1-27.89-21.14c39.43-52,126.77-99.72,180.26-83.28,13.52,4.15,35.6,16,41.31,49.28,7.78,4.17,17.34,11.54,22.64,24,5.74,13.43,4.95,28.82-2.32,45.87,5.8,7.38,11.28,18.24,9.83,32.08-2.59,24.77-26.09,46.08-71.82,65.1C1175.06,1151.66,1120.09,1188.63,1072.26,1188.64Z"/><path class="cls-3" d="M1214.28,1001.63c-3.22,2.32-7.49,3.54-11.51,4.39a95.69,95.69,0,0,1-12.77,1.48l-13.38.85c-4.63.21-9.27.57-14.56.71h-.15a2.46,2.46,0,0,1-2.54-2.4,2.43,2.43,0,0,1,.23-1.11c4.62-9.94,12.45-17.33,20.62-23.32a60.3,60.3,0,0,1,13.09-7.4,33.84,33.84,0,0,1,14.92-2.58,15.45,15.45,0,0,1,8.07,27.93Z"/><path class="cls-3" d="M1227.24,1063.64c.4.26-.21.39-.45.54s-.71.29-1,.39c-.76.24-1.54.38-2.38.56a41.7,41.7,0,0,1-5.18.56c-3.58.22-7.48,0-11.56-.14l-12.85-.3c-4.53-.18-9.19-.2-14.37-.75h-.07a2.53,2.53,0,0,1-2.25-2.78,2.56,2.56,0,0,1,.32-1,56.46,56.46,0,0,1,9.51-12,71.33,71.33,0,0,1,12-9.18,50,50,0,0,1,14.13-6.07,35.41,35.41,0,0,1,7.92-1,30.49,30.49,0,0,1,4.21.24c.75.1,1.42.23,2.24.38s1.35.34,2.85.68a15,15,0,1,1-3,29.85Z"/><path class="cls-2" d="M1540.88,1491.83s-102.43-51.39-39.41-130.56,92.19-59.72,115.8-104.17,29.17-144.44,97.22-150,184.73,123.61-40.27,333.34C1674.22,1440.44,1610.38,1524.11,1540.88,1491.83Z"/><g class="cls-4"><path class="cls-1" d="M1524.22,1390.79c63-79.17,102-66,125.66-110.47s33.33-144.77,81-149.81c23.18-2.45,52.12,11.91,71.15,39.25-16.24-43-54.42-65.51-83.65-63.13-68,5.56-73.61,105.56-97.22,150s-52.78,25-115.8,104.17c-30.79,38.67-22.09,70.71-5.14,93.38C1494.25,1434.74,1503,1417.39,1524.22,1390.79Z"/></g><g class="cls-5"><path class="cls-3" d="M1762.91,1126c25.42,56.43,12.09,152.42-121.26,276.72,0,0-63.84,83.67-133.33,51.39a146.73,146.73,0,0,1-25-16.92c14,35.33,55.26,56,55.26,56,69.49,32.28,133.34-51.39,133.34-51.39C1844.27,1281.16,1816.11,1167.77,1762.91,1126Z"/></g><path class="cls-3" d="M1540.85,1511.83a19.88,19.88,0,0,1-8.75-2c-2.19-1.07-53.7-26.75-66.29-75.48-7.13-27.59-.65-56,19.27-84.5,22.78-32.57,48-50.14,70.17-65.63,16.89-11.78,32.83-22.91,46.51-39.71,8.75-10.74,15.37-31.67,21.76-51.9,14.17-44.87,31.8-100.7,89.35-105.4,33.81-2.77,79.56,20.12,101.25,69.23,17,38.55,38.79,144.82-126.27,298.67a20,20,0,0,1-27.27-29.26c146.28-136.35,130.52-222.53,117-253.25-14-31.68-42.09-47.09-61.41-45.53-28.61,2.34-40.14,32.24-54.46,77.59-7.87,24.91-15.3,48.44-28.88,65.11-17.22,21.14-36.24,34.42-54.64,47.25-21.38,14.91-41.57,29-60.28,55.75-13,18.67-17.42,35.48-13.37,51.41,7.86,30.83,44.87,49.56,45.24,49.75a20,20,0,0,1-8.88,37.94Z"/><path class="cls-2" d="M135.05,1381.33s-70-10.12-67.77-99.29c1.32-53.75,61.65-74.66,69.7-118.28s-13.8-129.16,41.93-151.89,188.08,54.9,54.58,290.89C233.49,1302.76,206,1394.79,135.05,1381.33Z"/><g class="cls-4"><path class="cls-1" d="M85.07,1320.5c1.32-53.75,61.65-74.66,69.71-118.29S141,1073.05,196.7,1050.33c25.87-10.55,68.23.54,92.87,39-14.75-70.9-75.62-93.33-109-79.71-55.73,22.72-33.87,108.26-41.92,151.88s-68.39,64.54-69.71,118.29c-.76,31,7.18,52.38,17.87,67.16A141.89,141.89,0,0,1,85.07,1320.5Z"/></g><g class="cls-5"><path class="cls-3" d="M279,1066.78c-2.38,43.2-18.71,98.25-57.39,166.61,0,0-27.48,92-98.44,78.57,0,0-36.67-5.33-56.08-42.11a68.61,68.61,0,0,0-1.27,11.52c-2.19,89.17,67.76,99.29,67.76,99.29,71,13.46,98.45-78.57,98.45-78.57C295.46,1190,298.86,1113.63,279,1066.78Z"/></g><path class="cls-3" d="M135.07,1401.34a20.54,20.54,0,0,1-2.81-.2c-1.95-.28-47.86-7.12-72.67-43.22-15.07-21.91-19-49-11.8-80.37,8.49-36.86,28.35-59.22,44.31-77.18,12.55-14.13,22.45-25.29,25.22-40.25,1.9-10.27,1.83-24.75,1.76-40.08-.21-44.38-.48-105.17,52.28-126.69,28.55-11.63,74.16-4.39,106.15,32,24.87,28.27,72.07,112.85-26.61,287.29a20,20,0,1,1-34.81-19.69c86-152.1,50.62-219.33,31.39-241.18-19.44-22.09-45.94-27.49-61-21.34-25.76,10.5-27.6,43.71-27.39,89.47.08,17.26.15,33.57-2.43,47.53-4.79,25.92-20,43-34.65,59.54-14.93,16.81-29,32.69-35.23,59.6-4.6,19.94-2.69,36.27,5.65,48.54,14.67,21.58,45.21,26.43,45.52,26.47a20,20,0,0,1-2.87,39.8Z"/></g></g></svg>