<svg xmlns="http://www.w3.org/2000/svg" viewBox="0 0 298.64 261.87"><defs><style>.cls-1{fill:#f9b170;}.cls-2{fill:#937352;}.cls-3{fill:#efa66a;}.cls-4{fill:#997a57;}.cls-5{fill:#8e6f50;}.cls-6{fill:#e5965c;}.cls-7{fill:#d38753;}.cls-8{fill:#846549;}.cls-9{fill:#ffd1ae;}.cls-10{fill:#bc8e75;}.cls-11{fill:#f7b19c;}.cls-12{fill:#f4a392;}.cls-13{fill:#ffb980;}.cls-14{fill:#a88663;}.cls-15{fill:#49321e;}.cls-16{fill:#ffc1a9;}.cls-17{fill:#efc8b1;}.cls-18{fill:#0c0505;}.cls-19{fill:#180a0a;}.cls-20{fill:#3f2f20;}.cls-21{fill:#3f2020;}.cls-22{fill:#afaeae;}</style></defs><g id="Layer_2" data-name="Layer 2"><g id="Ñëîé_1" data-name="Ñëîé 1"><path class="cls-1" d="M46.15,243l-1.14.62-.12,0,.26.07c.2.06.17.41-.06.39a17.38,17.38,0,0,0-3.74-.18,6.19,6.19,0,0,0-2.29.86,2.56,2.56,0,0,0,.11.24c.66,1.17,2.35.79,3.44.68,1.67-.16,3.32-.39,5-.7l.57-.11c.23,0,3.29-.78,3.52-.82a5.36,5.36,0,0,1,.59-.05h.07a25.86,25.86,0,0,1,5-.21,12.72,12.72,0,0,1,2.36.84l-.26,0h-.11l-.23,0h-.28l-.17,0H58.5l-.16,0h-.11l-.17,0H58l-.19,0h-.09l-.55.07h-.06l-.21,0-.09,0-.19,0-.09,0-.18,0-.1,0-.17,0-.1,0-.18,0-.09,0-.2.05-.06,0-.27.07a1.36,1.36,0,0,0-.07,1.1c.39,1.23,1.87,1.22,2.92,1.08a.53.53,0,0,0,.23-.09c.4,0,.77-.12,1-.18l7.09-1.62a88.27,88.27,0,0,0,12.29-3.26,23.79,23.79,0,0,0,5.09-2.68A17.59,17.59,0,0,0,88,235.41c1.22-1.68,2.27-3.47,3.47-5.15a27.39,27.39,0,0,1,4.4-4.79c1.66-1.43,3.38-2.78,4.94-4.33a41.43,41.43,0,0,0,4-4.73,65.93,65.93,0,0,0,6.48-11.22,85.12,85.12,0,0,0,7.33-25.62,63.36,63.36,0,0,0,.45-12.91,24.18,24.18,0,0,0-3.66-11.47.86.86,0,0,1,.3-1.15.87.87,0,0,1,1.15.3,29.46,29.46,0,0,1,2.07,3.15l.27.48.16.3.09.17.21.4,0,0,.22.45c1.2,1.21,2.39,2.44,3.58,3.67a25.38,25.38,0,0,0,3.31,3.08,12.27,12.27,0,0,0,8.64,1.88,54.74,54.74,0,0,0,9.1-2,41.19,41.19,0,0,0,8.71-3.46c5.46-3,9.31-8,14.16-11.78,5.05-4,11.11-6.15,17-8.44a67.13,67.13,0,0,0,12.46-5.93c4.17-3.4,7.59-6.07,8.2-6.27h0a18,18,0,0,0,3.66-5.85,5.71,5.71,0,0,0,.27-1.78c0-3.48-3.47-6-6.25-7.85a.45.45,0,0,1-.2-.41.41.41,0,0,1,.54-.39,72.76,72.76,0,0,1,31.51,19.8h.52a.26.26,0,0,1,0,.52h-.11a.17.17,0,0,1,0,.07.45.45,0,0,1-.76.37l-.39-.42c-.66,0-1.31.05-2,.11A74.28,74.28,0,0,0,218.86,137a30.86,30.86,0,0,0-6.23,2.17,27.79,27.79,0,0,0-4.94,3.4,48.11,48.11,0,0,0-13.06,18.22h0l-.36.88c0,.08-.07.17-.11.26s-.17.43-.25.65l-.1.27c-.11.27-.21.54-.31.82l0,.08-.32.9a2.41,2.41,0,0,1-.08.25l-.23.68-.09.27c-.08.27-.17.53-.25.8l0,.11c-.09.31-.19.62-.28.93l-.06.21-.21.74c0,.08,0,.16-.07.25-.07.27-.15.54-.22.81l0,.12c-.09.32-.17.64-.25,1l0,.15c-.07.27-.14.54-.2.8,0,.08,0,.15-.05.23-.07.28-.13.56-.19.84l0,.11-.21,1V174c-.07.29-.12.59-.18.88,0,.07,0,.13,0,.2-.06.29-.11.57-.16.86l0,.11-.18,1h0c-.28,2.64-.48,5.28-.54,7.94h0c0,.24,0,.49,0,.73,0,.06,0,.11,0,.17v.73c0,.26,0,.53,0,.79v0c0,.27,0,.53,0,.79h0a20,20,0,0,0,18.07,10.28A38,38,0,0,0,222.74,195a128.91,128.91,0,0,0,13.68-7c4-2.31,7.89-5,10.7-8.68,2.93-3.86,4.2-8.54,4.89-13.27.73-5,1-10,1.88-14.95,1-5.37,2.51-10.69,2.76-16.17a34.52,34.52,0,0,0-3-14.94l-.41-.21a.75.75,0,0,1-.21-1.21c-.87-1.92-1.85-3.8-2.87-5.66-.28-.5-.56-1-.85-1.51h0l-.52-.54-.08-.09-.49-.49-.12-.13-.47-.46-.16-.16-.45-.43-.18-.17-.44-.42-.2-.18-.43-.4-.21-.2-.43-.38-.23-.2-.41-.37-.25-.21-.41-.35-.26-.23-.39-.33-.29-.24-.38-.31-.31-.26-.36-.29-.34-.27-.33-.27-.38-.3-.3-.23-.45-.36-.23-.17-.68-.53a129.5,129.5,0,0,0-25.77-15.63,79.65,79.65,0,0,0-29-7.18,88.58,88.58,0,0,0-17.67,1.28h0c0,.05-2.94.71-4.39,1-6.76,1.47-13.37,3.52-19.95,5.6-2.23.7-4.46,1.4-6.69,2.08h0c-8.72,5.33-16.91,11.74-23.15,19.7a46.84,46.84,0,0,0-5.73,8.76,40.36,40.36,0,0,0-2.94,10.34c-1.19,6.89-1.52,14.48-5.71,20.38a33.57,33.57,0,0,1-7.06,7c-2.94,2.28-6,4.44-9,6.65-3.18,2.34-6.36,4.7-9.56,7a100,100,0,0,0-7.9,6.15,38.86,38.86,0,0,0-4,4c-.17.29-.33.58-.49.87a19.41,19.41,0,0,0-2.42,9.08,13.69,13.69,0,0,0,1.9,7.05c1.56,2.61,4.25,4.42,6.82,5.94l.65.38q.56.12,1.11.21l.13,0,.31.05.32,0,.28,0,.36,0h.17l.5,0h0a15.33,15.33,0,0,0,4.53-.37,4.07,4.07,0,0,0,3-2.18,8.7,8.7,0,0,0,.47-3.15c0-.65,0-1.29-.06-1.9a21,21,0,0,0-1.11-5,0,0,0,0,1,0,0c0-.29,1.5,1.22,1.74,2,.05.13.09.27.13.41A36.54,36.54,0,0,1,83.17,200a17.66,17.66,0,0,1,1.14,5.89q0,.7-.06,1.38a30.6,30.6,0,0,1-1.89,7.4c-.86,2.44-1.81,4.83-2.82,7.22-.49,1.16-1,2.32-1.52,3.47l-2.75,6.08h0c-.08.2-.17.4-.25.61a4.58,4.58,0,0,1-1.34,2.1,5.61,5.61,0,0,1-2.91.49c-1.06,0-2.12,0-3.18,0-13,.05-19.47,2.3-22.79,4.58a25,25,0,0,1,3,.56c1,.26,2.09.54,3.11.86l.77.25h0A19.74,19.74,0,0,0,46.15,243Z"/><path class="cls-2" d="M120.73,162.3Z"/><path class="cls-2" d="M120.74,162.31h0v0h0Z"/><polygon class="cls-2" points="120.72 162.29 120.72 162.29 120.72 162.29 120.72 162.29"/><path class="cls-2" d="M120.76,162.35h0l0,0h0Z"/><polygon class="cls-2" points="120.72 162.29 120.72 162.29 120.72 162.3 120.72 162.3 120.72 162.29"/><path class="cls-2" d="M121.22,163.11l0,0v0l0-.06Z"/><path class="cls-2" d="M120.78,162.38h0l0,0h0Z"/><path class="cls-2" d="M121,162.68l0,0h0l0-.07Z"/><path class="cls-2" d="M121,162.76l0,.05v0l0-.07Z"/><path class="cls-2" d="M121.07,162.86l.05.08h0l-.06-.1Z"/><path class="cls-2" d="M121.14,163v0l0,.05h0Z"/><path class="cls-2" d="M120.82,162.44l0,0h0l0-.05Z"/><path class="cls-2" d="M120.86,162.51l0,0h0l0-.06Z"/><path class="cls-2" d="M120.9,162.57l0,.07h0l0-.07Z"/><path class="cls-3" d="M167.44,150.74c-4.85,3.8-8.7,8.76-14.16,11.78a41.19,41.19,0,0,1-8.71,3.46,54.74,54.74,0,0,1-9.1,2,12.27,12.27,0,0,1-8.64-1.88,25.38,25.38,0,0,1-3.31-3.08c-1.19-1.23-2.38-2.46-3.58-3.67l-.22-.45,0,0-.21-.4-.09-.17-.16-.3-.27-.48a29.46,29.46,0,0,0-2.07-3.15.87.87,0,0,0-1.15-.3.86.86,0,0,0-.3,1.15,24.18,24.18,0,0,1,3.66,11.47,63.36,63.36,0,0,1-.45,12.91,85.12,85.12,0,0,1-7.33,25.62,65.93,65.93,0,0,1-6.48,11.22,41.43,41.43,0,0,1-4,4.73c-1.56,1.55-3.28,2.9-4.94,4.33a27.39,27.39,0,0,0-4.4,4.79c-1.2,1.68-2.25,3.47-3.47,5.15a17.59,17.59,0,0,1-4.25,4.27,23.79,23.79,0,0,1-5.09,2.68,88.27,88.27,0,0,1-12.29,3.26l-7.09,1.62c-.27.06-.64.13-1,.18a.53.53,0,0,1-.23.09c-1.05.14-2.53.15-2.92-1.08a1.36,1.36,0,0,1,.07-1.1l-.08,0-.14,0-.11,0-.12,0-.1,0-.12,0-.11,0-.12.05-.09,0-.13.06-.09,0-.13.07-.08,0-.2.1,0,0-.17.1-.07,0a.57.57,0,0,0-.13.08l-.08.05-.11.08-.08.06-.11.09-.08.06-.11.09-.06.06-.12.11-.06.06-.16.17A4.26,4.26,0,0,0,51,250c0,.14,0,.29-.06.43l.17.22a2.24,2.24,0,0,0,.27.59,4.9,4.9,0,0,0,3.54,2,8.07,8.07,0,0,0,1.22.31,16.8,16.8,0,0,0,7.44-.78c4.84-1.35,9.53-3.23,14.48-4.15a36.83,36.83,0,0,1,7-.54c2,0,4.13.06,5.88-1s2.57-3,3.29-4.75a27,27,0,0,1,3.05-5.89,24.32,24.32,0,0,1,4.84-4.93c1.86-1.46,3.81-2.8,5.54-4.43a41.83,41.83,0,0,0,8-11,62.42,62.42,0,0,0,7.31-26.5A52,52,0,0,0,121.79,176c-1.1-4.81-3.23-9.5-3-14.53a.79.79,0,0,1,1.34-.55,13.71,13.71,0,0,1,5,8.74q1.62,3.39,3,6.91c.72,1.89,1.43,3.78,2.07,5.7.58,1.76,1.21,3.49,1.71,5.27l.79.21a63.88,63.88,0,0,0,10.92,1.75c1.55.13,3.11.21,4.66.19a10.22,10.22,0,0,0,4.17-.75,9.51,9.51,0,0,0,3.2-2.82c1-1.17,1.91-2.35,2.77-3.6a20.66,20.66,0,0,0,2.12-3.75,28.23,28.23,0,0,0,1.22-4.34,13.77,13.77,0,0,1,1.76-4.27,32.83,32.83,0,0,1,2.64-3.48c2.19-2.62,4.4-5.22,6.6-7.83s4.11-5.13,6.43-7.42c1.44-1.42,10.7-9.28,17.78-15a67.13,67.13,0,0,1-12.46,5.93C178.55,144.59,172.49,146.77,167.44,150.74Z"/><path class="cls-3" d="M43.76,250.36a6.54,6.54,0,0,0,3.69-3.19,6.87,6.87,0,0,1,2-2.22l.16-.1.06,0,.1-.06.07,0,.1-.05.08,0,.09,0,.09,0,.08,0,.1,0,.08,0,.1,0,.07,0,.12,0,.06,0,.12,0H51l.13,0h.05l.14,0h0l.15,0h0l.15,0h0l.16,0h0l.17,0h0l.18,0a5.36,5.36,0,0,0-.59.05c-.23,0-3.29.8-3.52.82l-.57.11c-1.65.31-3.3.54-5,.7-1.09.11-2.78.49-3.44-.68a2.56,2.56,0,0,1-.11-.24,8.27,8.27,0,0,0-.83.59,7.7,7.7,0,0,0-2.85,4.6,30.87,30.87,0,0,0,3.22.61A12.3,12.3,0,0,0,43.76,250.36Z"/><path class="cls-1" d="M164.17,240.73a8.54,8.54,0,0,0-2.65,2.5,5.25,5.25,0,0,0-1,3,4.67,4.67,0,0,0,.48,2.3l.06-.07.06-.07.16-.17.06-.06.14-.13,0,0,.2-.17c.3-.25.65-.46.95-.72a2.54,2.54,0,0,0,.69-1,6.78,6.78,0,0,1,5.64-4.34l0,0h0l.1-.05h0l.09,0h0l.08,0h.13a3.68,3.68,0,0,1,.47-.15,2.7,2.7,0,0,1,1-.08,7.84,7.84,0,0,1,.79.23.22.22,0,0,1-.06.44,3.77,3.77,0,0,0-1.58.65l-.08.06h0l0,.06,0,0,0,0,0,0,0,0-.08.07-.24.18,0,0a2.09,2.09,0,0,0-.22.2,3.19,3.19,0,0,0-.32.43,6,6,0,0,0-.35.61s0,.05,0,.07v.08a.38.38,0,0,0,0,.1v.09a.28.28,0,0,0,0,.09.31.31,0,0,0,0,.1V245a.44.44,0,0,1,0,.1s0,.05,0,.08a.52.52,0,0,0,0,.11.14.14,0,0,1,0,.06s0,.08,0,.12l0,.05s0,.08,0,.12l0,.05.06.12,0,0c0,.05.05.09.07.13l0,0a.57.57,0,0,0,.08.13v0l.09.13h0l.1.14h0l.11.13h0a.8.8,0,0,0,.13.13,2.85,2.85,0,0,0,1.07.32,9.87,9.87,0,0,0,2.71-.17c1.32-.2,2.65-.41,4-.63,2.55-.43,5.09-.87,7.63-1.34q7.77-1.44,15.47-3.18T215.65,238c2.36-.63,10.07-1.94,7.86-6.06a4.26,4.26,0,0,0-2-1.85l-.22.06h0l-.21.06h0l-.37.11h0l-.16,0h0l-.13,0h0l-.12,0h0l-.1,0-8.35,2c-5,1.19-9.93,2.32-14.9,3.45l-1,.24-1.18.28h0l-.58.14-.67.15-.28.07-.54.11-.27.06-.78.16-.13,0-.68.12-.22,0-.81.13a21.54,21.54,0,0,1-7-.06,44,44,0,0,0-7-1.11h-2.87l-.17,0h-.34l-.18,0h0l-.21,0-.29,0h0l-.25,0h-.06l-.21,0h-.08l-.2,0h-.09l-.18,0-.1,0-.17,0-.1,0-.17,0-.1,0-.16,0-.11,0-.15,0-.11,0-.15,0-.1,0-.14,0-.11,0-.14,0-.1,0-.13,0-.1,0-.14.05-.08,0-.15.06-.07,0-.2.09h0a28.62,28.62,0,0,1-4.39,3.35l.87-.37C164.2,240.51,164.26,240.67,164.17,240.73Zm40-6.28a.26.26,0,0,1,0,.52A.26.26,0,0,1,204.2,234.45Z"/><path class="cls-4" d="M255.14,118.88h0c-.49-.81-1-1.59-1.56-2.36h0c.34.68.67,1.36,1,2Z"/><path class="cls-3" d="M173.1,248a85.4,85.4,0,0,0,16.84-.3c5.8-.57,11.55-1.61,17.26-2.74,11.07-2.17,22.27-4.21,33-7.68,1.82-.59,4.95-1.2,5.58-3.34a3.24,3.24,0,0,0,.11-.75c.05-1.75-1.35-3.58-1.65-5.24a4,4,0,0,1-.07-.9c0-2.06,1.49-3.69,2.69-5.34q2.52-3.48,5.05-7c3.26-4.48,6.74-8.88,9.71-13.56a26.28,26.28,0,0,0,3.27-6.87,23.24,23.24,0,0,0,.74-6.59c0-.52,0-1,0-1.54-.05-1.76-.15-3.51-.14-5.27a27.71,27.71,0,0,1,.17-3.15c.31-2.75,1.12-5.4,1.48-8.14a15.59,15.59,0,0,0,.13-2,17.36,17.36,0,0,0-1.09-5.87c-.86-2.42-2-4.74-2.72-7.2-3-10-1.77-20.9-5.76-30.67l-.32-.75-.12-.26-.21-.47-.15-.32-.2-.39c-.05-.12-.11-.24-.17-.36l-.12-.23c-.16-.3-.32-.6-.49-.9l-.08-.15c-.1-.17-.2-.34-.29-.51l-.08-.13-.32-.54h0l-.58-.32c-.31-.68-.64-1.36-1-2a49.54,49.54,0,0,0-4.25-5.14c.29.5.57,1,.85,1.51,1,1.86,2,3.74,2.87,5.66a.75.75,0,0,0,.21,1.21l.41.21a34.52,34.52,0,0,1,3,14.94c-.25,5.48-1.76,10.8-2.76,16.17-.93,4.95-1.15,10-1.88,14.95-.69,4.73-2,9.41-4.89,13.27-2.81,3.69-6.73,6.37-10.7,8.68a128.91,128.91,0,0,1-13.68,7,38,38,0,0,1-15.17,3.53,20,20,0,0,1-18.07-10.28h0l0,.91v0c0,.6.06,1.21.1,1.81v0c0,.3.05.59.07.89v0q.08.88.18,1.77v.09c0,.29.07.57.1.86v.06l.12.86v0c0,.29.09.57.13.85l0,.12.15.84v.06l.15.8,0,.1c.05.27.11.54.16.81l0,.15q.07.41.18.81v.05c.06.26.12.52.19.78l0,.14.21.78a.94.94,0,0,0,0,.16c.07.27.14.54.22.8a69.05,69.05,0,0,0,2.95,8.28,24.4,24.4,0,0,0,4.26,7.1c3.48,3.77,8.22,6,12.76,8.22a10.24,10.24,0,0,0,4.13,1.23,18.47,18.47,0,0,0,2.36-.19,19.12,19.12,0,0,1,2.14-.06c1.41,0,2.83.17,4.24.22a17.85,17.85,0,0,0,4.31-.41.27.27,0,0,1,.31.28.2.2,0,0,1-.12.18,6.76,6.76,0,0,1-2,.64c-1.5.48-3.89,1.23-5.48,1.71a4.26,4.26,0,0,1,2,1.85c2.21,4.12-5.5,5.43-7.86,6.06q-7.56,2-15.19,3.73T185,244.93c-2.54.47-5.08.91-7.63,1.34-1.32.22-2.65.43-4,.63a9.87,9.87,0,0,1-2.71.17,2.85,2.85,0,0,1-1.07-.32.3.3,0,0,0,.08.08A5.8,5.8,0,0,0,173.1,248Z"/><path class="cls-2" d="M81.62,158.37q1.69-.78,3.3-1.71l-.63.33Q83,157.71,81.62,158.37Z"/><path class="cls-3" d="M88.84,152.62a22,22,0,0,0,5.56-6.18,26.08,26.08,0,0,0,2.68-7A34,34,0,0,1,88.84,152.62Z"/><path class="cls-2" d="M48.09,159.25l-.05,0Z"/><path class="cls-2" d="M46,160.72c.68-.48,1.38-.94,2-1.42-.64.48-1.3.89-2,1.43Z"/><path class="cls-2" d="M65,127.33a13.5,13.5,0,0,0,2.78-1A13.5,13.5,0,0,1,65,127.33Z"/><path class="cls-3" d="M92.39,101.48c1.17,2.14,2.37,4.27,3.46,6.45a44.24,44.24,0,0,1,4.79,21.42q0,1.13-.15,2.25a42.7,42.7,0,0,1-1.07,8.8,27.53,27.53,0,0,1-7.15,12.84,35.29,35.29,0,0,1-12.81,8.18,48.76,48.76,0,0,1-15.8,3.06,34.7,34.7,0,0,1-7.88-.61c-2.18-.45-5.1-.79-7.08-2l-.57-.16a35.62,35.62,0,0,1-7.43,2.4,41.11,41.11,0,0,1-4.22.67l-.25,0a65.52,65.52,0,0,0,12.69,32.7,66.19,66.19,0,0,0,13.86,13.6,64.25,64.25,0,0,0,8.34,5.15q2.16,1.13,4.4,2.07c.74.32,1.48.62,2.23.9a7.89,7.89,0,0,0,1.51.51q-1.31,4.74-3.08,9.34c-.29.77-.6,1.54-.91,2.3L78,225.33c.53-1.15,1-2.31,1.52-3.47,1-2.39,2-4.78,2.82-7.22a30.6,30.6,0,0,0,1.89-7.4q.06-.68.06-1.38A17.66,17.66,0,0,0,83.17,200,36.54,36.54,0,0,0,79,193.13c0-.14-.08-.28-.13-.41-.24-.78-1.76-2.29-1.74-2a0,0,0,0,0,0,0,21,21,0,0,1,1.11,5c0,.61.06,1.25.06,1.9a8.7,8.7,0,0,1-.47,3.15,4.07,4.07,0,0,1-3,2.18,15.33,15.33,0,0,1-4.53.37h0l-.5,0h-.17l-.36,0-.28,0-.32,0-.31-.05-.13,0q-.55-.09-1.11-.21l-.65-.38c-2.57-1.52-5.26-3.33-6.82-5.94a13.69,13.69,0,0,1-1.9-7.05,19.41,19.41,0,0,1,2.42-9.08c.16-.29.32-.58.49-.87a38.86,38.86,0,0,1,4-4,100,100,0,0,1,7.9-6.15c3.2-2.32,6.38-4.68,9.56-7,3-2.21,6.05-4.37,9-6.65a33.57,33.57,0,0,0,7.06-7c4.19-5.9,4.52-13.49,5.71-20.38A40.36,40.36,0,0,1,106.77,118a46.84,46.84,0,0,1,5.73-8.76c6.24-8,14.43-14.37,23.15-19.7-4.47,1.37-9,2.69-13.47,3.88C112.24,96.07,102.18,98.36,92.39,101.48ZM67.1,202.91c-.37-.09-.74-.18-1.1-.29C66.36,202.73,66.73,202.82,67.1,202.91Zm-1.14-.3q-.52-.15-1-.33Q65.44,202.46,66,202.61Z"/><polygon class="cls-3" points="135.65 89.58 135.65 89.58 135.65 89.58 135.65 89.58"/><polygon class="cls-3" points="75.27 231.41 75.27 231.41 75.27 231.41 75.27 231.41"/><path class="cls-5" d="M186.25,219.14a1.84,1.84,0,0,0-.12-.3.54.54,0,0,0,0,.12Z"/><polygon class="cls-5" points="186.25 219.14 186.25 219.14 186.25 219.14 186.25 219.14"/><path class="cls-6" d="M167.81,237.48l.07,0,.15-.06.08,0,.14-.05.1,0,.13,0,.1,0,.14,0,.11,0,.14,0,.1,0,.15,0,.11,0,.15,0,.11,0,.16,0,.1,0,.17,0,.1,0,.17,0,.1,0,.18,0h.09l.2,0h.08l.21,0h.06l.25,0h0l.29,0a52.2,52.2,0,0,1-4.86-2.4,43.81,43.81,0,0,1-5.45-3.69,35,35,0,0,1-4.29-4.15,50.75,50.75,0,0,0-4.37-4.43,6,6,0,0,0-.68-.57c.08.06.33.25,0,0l-.32-.23c-.41-.29-.84-.57-1.28-.84-.92-.57-1.89-1.07-2.85-1.56-1.89-1-3.74-2.07-5.72-2.86a12.58,12.58,0,0,0-6.22-.81.63.63,0,0,1-.34,0c8.83-2.05,18.07,1.78,27-.06a12.08,12.08,0,0,0,9.5-8.17,26.41,26.41,0,0,0,1.7-7.63l.12-.45c.48-1.85.92-3.71,1.38-5.56l.15-.6c-.06-2.16,0-4.34.12-6.52a66.64,66.64,0,0,1,6.45-24.57,62.46,62.46,0,0,1,7.08-11.09c1.38-1.76,2.81-3.49,4.26-5.2.67-.8,1.36-1.58,2.06-2.33a9.35,9.35,0,0,0,1.13-1c0-.06.29-.35.66-.82l.71-.64a41.61,41.61,0,0,1,11-7.1c3.94-1.71,8.45-3.09,12.8-2.75.57,0-3.66,1.17-7.92,2.78a53.26,53.26,0,0,0-7.11,3.35,30,30,0,0,0-5,3.61,42.18,42.18,0,0,0-4.23,4.82,117.74,117.74,0,0,0-7.71,10.48,58.67,58.67,0,0,0-3.11,5.38c-.45.9-.87,1.8-1.28,2.72l-.18.42,0,.06-.27.63c-.18.45-.35.9-.52,1.35A62.11,62.11,0,0,0,181,177.82q-.13.77-.24,1.53l0,.23v.07l-.09.72c-.12,1-.21,2.06-.29,3.09-.14,2-.22,4-.21,6s.09,4,.25,6c.08,1.05.18,2.09.3,3.14,0,.28.08.56.11.84,0,.1,0,.19,0,.29.07.5.15,1,.23,1.51a74.48,74.48,0,0,0,3.1,12.29c.34,1,.7,2,1.07,3,.19.5.38,1,.59,1.52l.29.71,0,.05c0-.14.15.22.12.3.2.46.4.93.61,1.39,0,.12.11.23.16.35l.31.73-.16-.38a3.17,3.17,0,0,1,.31.7c.43,1,.87,1.91,1.32,2.86,1.85,3.83,3.69,7.66,5.7,11.4.05.09.1.19.14.28h0l1.18-.28,1-.24c5-1.13,9.94-2.26,14.9-3.45l8.35-2,.1,0h0l.12,0h0l.13,0h0l.16,0h0l.37-.11h0l.21-.06h0l.22-.06c1.59-.48,4-1.23,5.48-1.71a6.76,6.76,0,0,0,2-.64.2.2,0,0,0,.12-.18.27.27,0,0,0-.31-.28,17.85,17.85,0,0,1-4.31.41c-1.41-.05-2.83-.21-4.24-.22a19.12,19.12,0,0,0-2.14.06,18.47,18.47,0,0,1-2.36.19,10.24,10.24,0,0,1-4.13-1.23c-4.54-2.19-9.28-4.45-12.76-8.22a24.4,24.4,0,0,1-4.26-7.1,69.05,69.05,0,0,1-2.95-8.28c-.08-.26-.15-.53-.22-.8a.94.94,0,0,1,0-.16l-.21-.78,0-.14c-.07-.26-.13-.52-.19-.78v-.05q-.1-.4-.18-.81l0-.15c0-.27-.11-.54-.16-.81l0-.1-.15-.8v-.06l-.15-.84,0-.12c0-.28-.08-.56-.13-.85v0l-.12-.86v-.06c0-.29-.07-.57-.1-.86v-.09q-.1-.89-.18-1.77v0c0-.3,0-.59-.07-.89v0c0-.6-.07-1.21-.1-1.81v0l0-.91h0c0-.26,0-.52,0-.79v0c0-.26,0-.53,0-.79v-.73c0-.06,0-.11,0-.17,0-.24,0-.49,0-.73h0c.06-2.66.26-5.3.54-7.94h0l.18-1,0-.11c0-.29.1-.57.16-.86,0-.07,0-.13,0-.2.06-.29.11-.59.18-.88v-.08l.21-1,0-.11c.06-.28.12-.56.19-.84,0-.08,0-.15.05-.23.06-.26.13-.53.2-.8l0-.15c.08-.32.16-.64.25-1l0-.12c.07-.27.15-.54.22-.81,0-.09,0-.17.07-.25l.21-.74.06-.21c.09-.31.19-.62.28-.93l0-.11c.08-.27.17-.53.25-.8l.09-.27.23-.68a2.41,2.41,0,0,0,.08-.25l.32-.9,0-.08c.1-.28.2-.55.31-.82l.1-.27c.08-.22.17-.43.25-.65s.07-.18.11-.26l.36-.88h0a48.11,48.11,0,0,1,13.06-18.22,27.79,27.79,0,0,1,4.94-3.4,30.86,30.86,0,0,1,6.23-2.17A74.28,74.28,0,0,1,232,134.28c.65-.06,1.3-.09,2-.11l.39.42a.45.45,0,0,0,.76-.37.17.17,0,0,0,0-.07h.11a.26.26,0,0,0,0-.52h-.52a72.76,72.76,0,0,0-31.51-19.8.41.41,0,0,0-.54.39.45.45,0,0,0,.2.41c2.78,1.82,6.21,4.37,6.25,7.85a5.71,5.71,0,0,1-.27,1.78,18,18,0,0,1-3.66,5.85h0c-.61.2-4,2.87-8.2,6.27-7.08,5.77-16.34,13.63-17.78,15-2.32,2.29-4.33,4.93-6.43,7.42s-4.41,5.21-6.6,7.83a32.83,32.83,0,0,0-2.64,3.48,13.77,13.77,0,0,0-1.76,4.27,28.23,28.23,0,0,1-1.22,4.34,20.66,20.66,0,0,1-2.12,3.75c-.86,1.25-1.81,2.43-2.77,3.6a9.51,9.51,0,0,1-3.2,2.82,10.22,10.22,0,0,1-4.17.75c-1.55,0-3.11-.06-4.66-.19a63.88,63.88,0,0,1-10.92-1.75l-.79-.21.16.58a39.65,39.65,0,0,1-1.48,23.76,50.85,50.85,0,0,1-6.43,12,17.23,17.23,0,0,1,7.24-2.75,43.25,43.25,0,0,1,6.22-.43,21.39,21.39,0,0,1,6.28.62c3.8,1.11,6.82,3.93,9.77,6.44l5,4.26a48.68,48.68,0,0,0,4.7,3.76,13.11,13.11,0,0,0,4.25,1.83h0Z"/><path class="cls-7" d="M194.5,236.19c-2-3.74-3.85-7.57-5.7-11.4-.45-.95-.89-1.9-1.32-2.86a3.17,3.17,0,0,0-.31-.7l.16.38-.31-.73c-.05-.12-.11-.23-.16-.35-.21-.46-.41-.93-.61-1.39h0l-.08-.18a.54.54,0,0,1,0-.12l0-.05-.29-.71c-.21-.51-.4-1-.59-1.52-.37-1-.73-2-1.07-3a74.48,74.48,0,0,1-3.1-12.29c-.08-.51-.16-1-.23-1.51,0-.1,0-.19,0-.29,0-.28-.07-.56-.11-.84-.12-1.05-.22-2.09-.3-3.14q-.24-3-.25-6c0-2,.07-4,.21-6,.08-1,.17-2.06.29-3.09l.09-.72v-.07l0-.23q.1-.76.24-1.53a62.11,62.11,0,0,1,3.11-11.68c.17-.45.34-.9.52-1.35l.27-.63,0-.06.18-.42c.41-.92.83-1.82,1.28-2.72a58.67,58.67,0,0,1,3.11-5.38,117.74,117.74,0,0,1,7.71-10.48,42.18,42.18,0,0,1,4.23-4.82,30,30,0,0,1,5-3.61,53.26,53.26,0,0,1,7.11-3.35c4.26-1.61,8.49-2.74,7.92-2.78-4.35-.34-8.86,1-12.8,2.75a41.61,41.61,0,0,0-11,7.1L197,141c-.37.47-.61.76-.66.82a9.35,9.35,0,0,1-1.13,1c-.7.75-1.39,1.53-2.06,2.33-1.45,1.71-2.88,3.44-4.26,5.2a62.46,62.46,0,0,0-7.08,11.09A66.64,66.64,0,0,0,175.35,186c-.15,2.18-.18,4.36-.12,6.52l-.15.6c-.46,1.85-.9,3.71-1.38,5.56l-.12.45a26.41,26.41,0,0,1-1.7,7.63,12.08,12.08,0,0,1-9.5,8.17c-8.9,1.84-18.14-2-27,.06a.63.63,0,0,0,.34,0,12.58,12.58,0,0,1,6.22.81c2,.79,3.83,1.89,5.72,2.86,1,.49,1.93,1,2.85,1.56.44.27.87.55,1.28.84l.32.23c.32.23.07,0,0,0a6,6,0,0,1,.68.57,50.75,50.75,0,0,1,4.37,4.43,35,35,0,0,0,4.29,4.15,43.81,43.81,0,0,0,5.45,3.69,52.2,52.2,0,0,0,4.86,2.4l.21,0h0l.18,0h.34l.17,0h2.87a44,44,0,0,1,7,1.11,21.54,21.54,0,0,0,7,.06l.81-.13.22,0,.68-.12.13,0,.78-.16.27-.06.54-.11.28-.07.67-.15.58-.14h0C194.6,236.38,194.55,236.28,194.5,236.19Z"/><path class="cls-8" d="M186.25,219.14c0-.08-.17-.44-.12-.3a1.84,1.84,0,0,1,.12.3Z"/><path class="cls-5" d="M292.89,166.6c.4.91.84,1.8,1.31,2.68l-.1-.22C293.72,168.23,293.31,167.41,292.89,166.6Z"/><path class="cls-7" d="M298.48,180.73a37.87,37.87,0,0,0-2.52-10,55,55,0,0,0-5.11-9.62c-2.06-6.62-3-13.66-4.61-20.37a59.1,59.1,0,0,0-5.49-15,55.27,55.27,0,0,0-9.16-12.17,67.48,67.48,0,0,0-11.49-9.28,44.67,44.67,0,0,1,4.25,4.57c4.32,5.39,6.41,12.1,8.69,18.52l7.47,21.07c2.2,6.2,4.58,12.41,5.84,18.89,1.13,5.87,1.36,12.29-1.28,17.81-2.39,5-7.06,8.49-9.45,13.49a10.34,10.34,0,0,0-.84,7.3c.4,1.48,1.22,2.91,1.33,4.46a5.15,5.15,0,0,1-1.41,3.73c-2,2.27-4.88,3.63-7.42,5.14l-4.84,2.86a35.16,35.16,0,0,1-4.11,2.39c-.75.31-2.13.82-2.64-.08a1.18,1.18,0,0,0-1.29-.52c-2.87.53-2.56,4.43-1.14,6.17,1,1.26,2.65,2.28,3.05,3.94a4.83,4.83,0,0,1-1.91,4.54,13.26,13.26,0,0,1-5.05,2.22c-2,.55-4,1.06-6,1.55q-6.11,1.5-12.26,2.77-12.6,2.58-25.37,4.1c-8.5,1-17,1.61-25.55,2.3-2.33.19-4.71.54-7,.52h-.72l-.14,0-.15,0-.12,0-.16,0-.11,0-.17,0-.08,0-.18-.06h-.06l-.2-.07h0a3.93,3.93,0,0,1-1.66-1.16h0c-.09-.12-.19-.24-.28-.38s-.18-.27-.26-.41h0l-.11-.21,0-.08-.07-.13,0-.1-.05-.12,0-.1,0-.12a.49.49,0,0,1,0-.11s0-.08,0-.12l0-.11s0-.08,0-.12l0-.12s0-.07,0-.11l0-.12s0-.07,0-.11l0-.13s0-.07,0-.1,0-.09,0-.14,0-.06,0-.09,0-.1,0-.15v-.08a.92.92,0,0,1,0-.16V247a4.68,4.68,0,0,1,0-.65,3.08,3.08,0,0,1,.2-3.07.39.39,0,0,1,.67.4,2.35,2.35,0,0,0-.17.44,1.27,1.27,0,0,0-.06.28,6,6,0,0,1,.35-.61,3.19,3.19,0,0,1,.32-.43,2.09,2.09,0,0,1,.22-.2l0,0,.24-.18.08-.07,0,0,0,0,0,0,0,0,0-.06h0l.08-.06a3.77,3.77,0,0,1,1.58-.65.22.22,0,0,0,.06-.44,7.84,7.84,0,0,0-.79-.23,2.7,2.7,0,0,0-1,.08,3.68,3.68,0,0,0-.47.15h-.13l-.08,0h0l-.09,0h0l-.1.05h0l0,0a6.78,6.78,0,0,0-5.64,4.34,2.54,2.54,0,0,1-.69,1c-.3.26-.65.47-.95.72l-.2.17,0,0-.14.13-.06.06-.16.17-.06.07-.06.07h0a4.67,4.67,0,0,1-.48-2.3,5.25,5.25,0,0,1,1-3,8.54,8.54,0,0,1,2.65-2.5c.09-.06,0-.22-.08-.18l-.87.37a8.88,8.88,0,0,0-2.63,1.6,8.21,8.21,0,0,0-.58.6,6.58,6.58,0,0,0-1.06.72,9.56,9.56,0,0,0-.91,1.09,4,4,0,0,0-.86,2,8.68,8.68,0,0,0-.41,1.11l.18.24-.18-.24a6.19,6.19,0,0,0,.15,4.18,8.47,8.47,0,0,0,2.75,3.33c.6.47,1.24.89,1.86,1.3a.59.59,0,0,0,.2.09,2.74,2.74,0,0,0,.23.36,5.55,5.55,0,0,0,2.11,1.53,14.75,14.75,0,0,0,6.43,1.45,6.78,6.78,0,0,0,1,.1,13.87,13.87,0,0,0,5-1,24.5,24.5,0,0,0,4.12-2c3.66,1.39,8.2,1.23,11.81,1,6.9-.48,13.65-2.08,20.41-3.47,3.43-.71,6.88-1.38,10.36-1.81s7.15-.6,10.72-1c7.18-.78,14.32-2.1,21.38-3.57a7.61,7.61,0,0,0,3.94-1.86,10.28,10.28,0,0,0,2.21-3.74,15.46,15.46,0,0,0,1-6.32c.93-2.5,3.54-4,6-4.78,3.11-1.06,6.4-1.6,9.07-3.65a26.92,26.92,0,0,0,5.86-7.06q3.11-4.81,6.22-9.61l3.06-4.74a35.4,35.4,0,0,0,2.67-4.57,24,24,0,0,0,1.56-5.09c.37-1.82.72-3.65,1-5.49A39.85,39.85,0,0,0,298.48,180.73ZM159.41,251.91s0,.06,0,.1v0s0-.07,0-.1Zm-.13,1s0-.11,0-.16S159.28,252.9,159.28,253Zm0-.41c0,.05,0,.1,0,.14S159.31,252.59,159.31,252.54Zm0-.31s0,.08,0,.12S159.35,252.27,159.35,252.23Zm.16-.78v0Zm.06-.19Zm-2.39-2.68a2.11,2.11,0,0,1-.19-.23A2.11,2.11,0,0,0,157.18,248.58Zm135.71-82c.42.81.83,1.63,1.21,2.46l.1.22C293.73,168.4,293.29,167.51,292.89,166.6Z"/><path class="cls-6" d="M120.09,160.91a.79.79,0,0,0-1.34.55c-.19,5,1.94,9.72,3,14.53A52,52,0,0,1,123,189.61a62.42,62.42,0,0,1-7.31,26.5,41.83,41.83,0,0,1-8,11c-1.73,1.63-3.68,3-5.54,4.43a24.32,24.32,0,0,0-4.84,4.93,27,27,0,0,0-3.05,5.89c-.72,1.8-1.54,3.73-3.29,4.75s-3.91,1-5.88,1a36.83,36.83,0,0,0-7,.54c-5,.92-9.64,2.8-14.48,4.15a16.8,16.8,0,0,1-7.44.78,8.07,8.07,0,0,1-1.22-.31,4.9,4.9,0,0,1-3.54-2,2.24,2.24,0,0,1-.27-.59l-.17-.22c0-.14,0-.29.06-.43a4.26,4.26,0,0,1,1.17-2.95l.16-.17.06-.06.12-.11.06-.06.11-.09.08-.06.11-.09.08-.06.11-.08.08-.05a.57.57,0,0,1,.13-.08l.07,0,.17-.1,0,0,.2-.1.08,0,.13-.07.09,0,.13-.06.09,0,.12-.05.11,0,.12,0,.1,0,.12,0,.11,0,.14,0,.35-.1.06,0,.2-.05.09,0,.18,0,.1,0,.17,0,.1,0,.18,0,.09,0,.19,0,.09,0,.21,0h.06l.55-.07h.09l.19,0h.1l.17,0h.11l.16,0h.11l.17,0h.28l.23,0h.11l.26,0a12.72,12.72,0,0,0-2.36-.84,25.86,25.86,0,0,0-5,.21h-.07l-.18,0h0l-.17,0h0l-.16,0h0l-.15,0h0l-.15,0h0l-.14,0h-.05l-.13,0h-.06l-.12,0-.06,0-.12,0-.07,0-.1,0-.08,0-.1,0-.08,0-.09,0-.09,0-.08,0-.1.05-.07,0-.1.06-.06,0-.16.1a6.87,6.87,0,0,0-2,2.22,6.54,6.54,0,0,1-3.69,3.19,12.3,12.3,0,0,1-5.16.21,30.87,30.87,0,0,1-3.22-.61h0a5.28,5.28,0,0,0,1.9,4.88,10.66,10.66,0,0,0,5.54,2.07,28.78,28.78,0,0,0,5.08.17,6.07,6.07,0,0,1-1.15-2.45,9.38,9.38,0,0,1,0-3.3,9.49,9.49,0,0,1,2.49-5,6.49,6.49,0,0,1,4.41-2.11.16.16,0,0,1,0,.31A6.78,6.78,0,0,0,51.29,246a6.52,6.52,0,0,0-1.5,2.2,14.46,14.46,0,0,0-.79,2.88,7.37,7.37,0,0,0-.09,2.92c.38,1.6,1.85,2.86,3.14,3.77a11.69,11.69,0,0,0,4.92,2,24.93,24.93,0,0,0,2.73.24,15.54,15.54,0,0,0,3,0,18.34,18.34,0,0,0,4.74-1.46c1.57-.69,3.11-1.44,4.7-2.07a17,17,0,0,1,5.11-1.18,29.86,29.86,0,0,1,6.19.44l2.57.35c1.32-.07,2.48-.14,2.85-.21a11.53,11.53,0,0,0,5-1.76,19.45,19.45,0,0,0,3.35-2.93c2-2.29,3.51-5.1,5.26-7.64a56.68,56.68,0,0,1,7.36-8.27c2.67-2.61,5.3-5.24,7.71-8.09,4.73-5.61,8.81-11.85,11.07-18.92a36,36,0,0,0,1.73-11.09,51.38,51.38,0,0,0-1.64-11.5c-.23-1-.42-1.93-.71-2.89s-.59-2-.89-2.94c-.57-1.87-1.16-3.74-1.71-5.62s-1.15-3.76-1.8-5.61a38.49,38.49,0,0,0-2.41-5.37.21.21,0,0,1,.37-.21,29,29,0,0,1,1.5,2.59c.68,1.32,1.35,2.64,2,4A13.71,13.71,0,0,0,120.09,160.91Zm8.47,25.15h0c-.15-1-.34-1.95-.56-2.92C128.22,184.11,128.41,185.08,128.56,186.06Zm-.83-4.08c0,.14.07.29.1.43C127.8,182.27,127.76,182.12,127.73,182Zm.14.58.12.54ZM121.15,163v0l0,.07h0Zm0-.06-.05-.08h0l.06.1Zm-.08-.13,0-.05h0l0,.07Zm-.05-.09,0,0v0l0,.07Zm0-.08,0-.07h0l0,.07Zm-.06-.09,0,0h0l0,.06Zm0-.07,0,0h0l0,.05Zm-.07-.09h0l0,.05h0Zm0,0h0l0,0h0Zm0,0h0v0h0Zm0,0Zm3.07,7.26h0c-.5-1.22-1-2.44-1.56-3.65a14.5,14.5,0,0,0-1.89-2.6h0a14.5,14.5,0,0,1,1.89,2.6h0C122.77,167.12,123.3,168.34,123.8,169.56Zm-3.08-7.27Zm0,0Zm3.62,31.65a63.44,63.44,0,0,1-9.26,26.79,40.89,40.89,0,0,1-4.3,5.76,36.41,36.41,0,0,1-5.31,4.77A35.68,35.68,0,0,0,100,236a20.49,20.49,0,0,0-3.55,5.74c-.8,1.95-1.47,4-2.91,5.61a8.4,8.4,0,0,1-5.84,2.45c-2.3.16-4.6-.07-6.9.15a41.21,41.21,0,0,0-7.38,1.55c-2.51.73-5,1.58-7.48,2.35a28.08,28.08,0,0,1-7.63,1.51,10.34,10.34,0,0,1-6.27-1.8,7.5,7.5,0,0,1-1.31-1.2c-.08.7-.13,1.41-.14,2.12,0-.71.06-1.42.14-2.12a7.5,7.5,0,0,0,1.31,1.2,10.34,10.34,0,0,0,6.27,1.8,28.08,28.08,0,0,0,7.63-1.51c2.5-.77,5-1.62,7.48-2.35A41.21,41.21,0,0,1,80.76,250c2.3-.22,4.6,0,6.9-.15a8.4,8.4,0,0,0,5.84-2.45c1.44-1.6,2.11-3.66,2.91-5.61A20.49,20.49,0,0,1,100,236a35.68,35.68,0,0,1,5.51-4.75,36.41,36.41,0,0,0,5.31-4.77,40.89,40.89,0,0,0,4.3-5.76,63.44,63.44,0,0,0,9.26-26.79,59.19,59.19,0,0,0,.33-6.25A59.19,59.19,0,0,1,124.34,193.94Zm.25-22.32a2.83,2.83,0,0,0-.11-.31h0A2.83,2.83,0,0,1,124.59,171.62Zm-3.35-8.48,0,0h0l0,.06Z"/><path class="cls-6" d="M44.89,243.63l.12,0,1.14-.62a19.74,19.74,0,0,1,5.52-2.08h0l-.77-.25c-1-.32-2.07-.6-3.11-.86a25,25,0,0,0-3-.56,8.17,8.17,0,0,0-3.27,3.88A14.74,14.74,0,0,1,44.89,243.63Z"/><path class="cls-6" d="M184.35,79.6a79.65,79.65,0,0,1,29,7.18,129.5,129.5,0,0,1,25.77,15.63l.68.53.23.17.45.36.3.23.38.3.33.27.34.27.36.29.31.26.38.31.29.24.39.33.26.23.41.35.25.21.41.37.23.2.43.38.21.2.43.4.2.18.44.42.18.17.45.43.16.16.47.46.12.13.49.49.08.09.52.54h0a49.54,49.54,0,0,1,4.25,5.14h0c.54.77,1.07,1.55,1.56,2.36h0l.32.54.08.13c.09.17.19.34.29.51l.08.15c.17.3.33.6.49.9l.12.23c.06.12.12.24.17.36l.2.39.15.32.21.47.12.26.32.75c4,9.77,2.72,20.66,5.76,30.67.75,2.46,1.86,4.78,2.72,7.2a17.36,17.36,0,0,1,1.09,5.87,15.59,15.59,0,0,1-.13,2c-.36,2.74-1.17,5.39-1.48,8.14a27.71,27.71,0,0,0-.17,3.15c0,1.76.09,3.51.14,5.27,0,.51,0,1,0,1.54a23.24,23.24,0,0,1-.74,6.59,26.28,26.28,0,0,1-3.27,6.87c-3,4.68-6.45,9.08-9.71,13.56q-2.53,3.48-5.05,7c-1.2,1.65-2.65,3.28-2.69,5.34a4,4,0,0,0,.07.9c.3,1.66,1.7,3.49,1.65,5.24a3.24,3.24,0,0,1-.11.75c-.63,2.14-3.76,2.75-5.58,3.34-10.75,3.47-21.95,5.51-33,7.68-5.71,1.13-11.46,2.17-17.26,2.74a85.4,85.4,0,0,1-16.84.3,5.8,5.8,0,0,1-3.41-1.21l-.21-.21h0l-.11-.13h0l-.1-.14h0l-.09-.13v0a.57.57,0,0,1-.08-.13l0,0s0-.08-.07-.13l0,0-.06-.12,0-.05s0-.08,0-.12l0-.05s0-.08,0-.12a.14.14,0,0,0,0-.06.52.52,0,0,1,0-.11s0-.05,0-.08a.44.44,0,0,0,0-.1V245a.31.31,0,0,1,0-.1.28.28,0,0,1,0-.09v-.09a.38.38,0,0,1,0-.1v-.08s0-.05,0-.07a1.27,1.27,0,0,1,.06-.28,2.35,2.35,0,0,1,.17-.44.39.39,0,0,0-.67-.4,3.08,3.08,0,0,0-.2,3.07,4.68,4.68,0,0,0,0,.65v.06a.92.92,0,0,0,0,.16v.08c0,.05,0,.1,0,.15s0,.06,0,.09,0,.09,0,.14,0,.07,0,.1l0,.13s0,.07,0,.11l0,.12s0,.08,0,.11l0,.12s0,.08,0,.12l0,.11s0,.08,0,.12a.49.49,0,0,0,0,.11l0,.12,0,.1.05.12,0,.1.07.13,0,.08.11.21c.08.14.17.28.26.41s.19.26.28.38h0a3.93,3.93,0,0,0,1.66,1.16h0l.2.07h.06l.18.06.08,0,.17,0,.11,0,.16,0,.12,0,.15,0,.14,0h.72c2.33,0,4.71-.33,7-.52,8.52-.69,17-1.29,25.55-2.3s17-2.38,25.37-4.1q6.15-1.26,12.26-2.77c2-.49,4-1,6-1.55a13.26,13.26,0,0,0,5.05-2.22,4.83,4.83,0,0,0,1.91-4.54c-.4-1.66-2-2.68-3.05-3.94-1.42-1.74-1.73-5.64,1.14-6.17a1.18,1.18,0,0,1,1.29.52c.51.9,1.89.39,2.64.08a35.16,35.16,0,0,0,4.11-2.39l4.84-2.86c2.54-1.51,5.45-2.87,7.42-5.14a5.15,5.15,0,0,0,1.41-3.73c-.11-1.55-.93-3-1.33-4.46a10.34,10.34,0,0,1,.84-7.3c2.39-5,7.06-8.48,9.45-13.49,2.64-5.52,2.41-11.94,1.28-17.81-1.26-6.48-3.64-12.69-5.84-18.89L273,127.35c-2.28-6.42-4.37-13.13-8.69-18.52a44.67,44.67,0,0,0-4.25-4.57l-.62-.4a88.56,88.56,0,0,0-15.05-7.38c-6.06-2.38-12.16-4.61-18.16-7.15a146.4,146.4,0,0,0-17.87-6.65c-1.06-.29-2.13-.57-3.2-.83A95.29,95.29,0,0,0,175,79.54a72.75,72.75,0,0,0-8.32,1.34h0A88.58,88.58,0,0,1,184.35,79.6Z"/><path class="cls-5" d="M106.07,243.09v0l-.06.08Z"/><path class="cls-7" d="M130.56,211.87A39.65,39.65,0,0,0,132,188.11l-.16-.58c-.5-1.78-1.13-3.51-1.71-5.27-.64-1.92-1.35-3.81-2.07-5.7q-1.35-3.52-3-6.91c-.63-1.34-1.3-2.66-2-4a29,29,0,0,0-1.5-2.59.21.21,0,0,0-.37.21,38.49,38.49,0,0,1,2.41,5.37c.65,1.85,1.26,3.72,1.8,5.61s1.14,3.75,1.71,5.62c.3,1,.6,2,.89,2.94s.48,1.93.71,2.89a51.38,51.38,0,0,1,1.64,11.5,36,36,0,0,1-1.73,11.09c-2.26,7.07-6.34,13.31-11.07,18.92-2.41,2.85-5,5.48-7.71,8.09a56.68,56.68,0,0,0-7.36,8.27c-1.75,2.54-3.24,5.35-5.26,7.64A19.45,19.45,0,0,1,94,254.16a11.53,11.53,0,0,1-5,1.76c-.37.07-1.53.14-2.85.21l-2.57-.35a29.86,29.86,0,0,0-6.19-.44,17,17,0,0,0-5.11,1.18c-1.59.63-3.13,1.38-4.7,2.07a18.34,18.34,0,0,1-4.74,1.46,15.54,15.54,0,0,1-3,0,24.93,24.93,0,0,1-2.73-.24,11.69,11.69,0,0,1-4.92-2c-1.29-.91-2.76-2.17-3.14-3.77a7.37,7.37,0,0,1,.09-2.92,14.46,14.46,0,0,1,.79-2.88,6.52,6.52,0,0,1,1.5-2.2,6.78,6.78,0,0,1,2.46-1.54.16.16,0,0,0,0-.31,6.49,6.49,0,0,0-4.41,2.11,9.49,9.49,0,0,0-2.49,5,9.38,9.38,0,0,0,0,3.3,6.07,6.07,0,0,0,1.15,2.45,28.78,28.78,0,0,1-5.08-.17,10.66,10.66,0,0,1-5.54-2.07,5.28,5.28,0,0,1-1.9-4.88h0a7.7,7.7,0,0,1,2.85-4.6,8.27,8.27,0,0,1,.83-.59,6.19,6.19,0,0,1,2.29-.86,17.38,17.38,0,0,1,3.74.18c.23,0,.26-.33.06-.39l-.26-.07a14.74,14.74,0,0,0-3.36-.53,7.21,7.21,0,0,0-3.37.61,8.75,8.75,0,0,0-4.36,4.88,7.22,7.22,0,0,0,1,6.74,10.18,10.18,0,0,0,6.11,3.51,21.85,21.85,0,0,0,8.82.21,11.75,11.75,0,0,0,3,1.91,15.34,15.34,0,0,0,6.16.91,21.75,21.75,0,0,0,6-.63c3.48-1,6.57-3,10-4.06a18.24,18.24,0,0,1,7.1-.31l3.71.34a25,25,0,0,0,4.19.12,7.61,7.61,0,0,0,1.91-.53c.45-.08.91-.12,1.36-.23s.92-.29,1.37-.43a7.62,7.62,0,0,0,2.21-1.1c2.68-2,4.54-4.76,6.3-7.53.88-1.39,1.76-2.8,2.76-4.1l.21-.26.06-.08a45.76,45.76,0,0,1,3.51-3.86c2.72-2.71,5.68-5.16,8.34-7.93a66.08,66.08,0,0,0,6.2-7.44A50.85,50.85,0,0,0,130.56,211.87Z"/><path class="cls-1" d="M.43,141.1a24.23,24.23,0,0,1,1-3.93l.06-.23a5.2,5.2,0,0,1,.24-.92,4.88,4.88,0,0,0,1.86,4.66,7.61,7.61,0,0,0,5,.9,15.45,15.45,0,0,0,5.33-1.47,7.53,7.53,0,0,0,3-2.54,7.15,7.15,0,0,0,1.13-3.32v-.05A5.22,5.22,0,0,1,19,136a5.27,5.27,0,0,1,.31,1.55,14.7,14.7,0,0,1,.74,2.9,8.53,8.53,0,0,1-.16,4.17,7.06,7.06,0,0,1-2.58,3.32c-.93.69-2.11,1.3-2.91,2l-.35.31a13.18,13.18,0,0,0,3.4,4.17,15.34,15.34,0,0,0,6,2.8,28.17,28.17,0,0,0,6.54.69,29.19,29.19,0,0,0,6.45-.66,19.46,19.46,0,0,0,10.13-5.57,13.94,13.94,0,0,0,3.86-10.83,27.1,27.1,0,0,0-.48-4.11A27.53,27.53,0,0,0,40.64,127s0,0,0-.08c0-.3,1.81-.81,2.46-.73l.54.07.13,0,.42.06.13,0,.43.07.11,0,.45.08.08,0,.48.1h.06l.5.12h0l.52.13h0l.54.15a13.91,13.91,0,0,1,.26-5.1,3.14,3.14,0,0,1,1.32-3.12,1.2,1.2,0,0,1,.23-.11c1.14-1.16,3.19-1.2,4.78-1,2.72.34,5.41,1.17,8.16,1.22a9.82,9.82,0,0,0,6.47-2.21,13.92,13.92,0,0,0,4-5.65A31.4,31.4,0,0,0,74,107.29a24.33,24.33,0,0,0,.6-4.24.3.3,0,0,1,.51-.21c2.77,2.65,3.4,6.82,2.67,10.45a19.11,19.11,0,0,1-5.07,9.43l-.21.22-.08.07-.14.15-.09.08-.13.13-.1.09-.13.12-.11.09-.12.11-.11.1-.12.1-.12.1-.11.09-.13.11-.1.08-.14.11-.09.07-.15.12-.08.06-.17.12,0,0q-.45.33-.93.63h0l-.23.14,0,0-.22.13,0,0-.22.12,0,0-.22.12h0c-.08,0-.16.08-.24.12l0,0-.25.12h0a13.5,13.5,0,0,1-2.78,1l-.25,0h0c-.51.3-1,.61-1.52.94l-.14.15,0,0a3.63,3.63,0,0,0-.47.64l-.06.1-.06.11-.06.14a.56.56,0,0,0-.05.08l-.09.24c-1.42,3.62,1.8,6.75,4.9,8a16.52,16.52,0,0,0,12.19-.39,12.3,12.3,0,0,0,5-3.27,10.35,10.35,0,0,0,1.53-2.76c.45-1.07.88-2.15,1.26-3.24a19.5,19.5,0,0,0,.9-3.35,14.29,14.29,0,0,0,0-3.52,19.8,19.8,0,0,1-.07-3.61c.1-1.17.29-2.34.28-3.51a6.11,6.11,0,0,0-.75-3c-.49-.9-1.12-1.71-1.69-2.56a18.15,18.15,0,0,1-2.44-5.89,48.31,48.31,0,0,0-1.9-6.46,52.89,52.89,0,0,0-3.09-6.16,48.63,48.63,0,0,0-3.46-5.66,15,15,0,0,0-4.91-4,43.68,43.68,0,0,0-11.93-4.35,45.12,45.12,0,0,0-24.87,1.71c-.33.12-2,.56-3.12.92l.77-.39-.16.07-.41.21c-4.23,2.34-8.91,3.86-13,6.55a17.84,17.84,0,0,0-5.79,5.93,31.43,31.43,0,0,0-3.14,9.47Q7.2,106.18,6,111.84a97.88,97.88,0,0,1-2.73,11.08A51.32,51.32,0,0,0,.78,133.66q-.08.68-.12,1.35a.42.42,0,0,0-.23.33A26,26,0,0,0,.3,144,17.72,17.72,0,0,1,.43,141.1Zm63.08-23.63a13.6,13.6,0,0,1-6.57-.66A38.93,38.93,0,0,0,52,115.22a10.18,10.18,0,0,0-1.83,0A3,3,0,0,1,47.66,114a3.26,3.26,0,0,1-.58-2.8c.06-.28.11-.57.15-.86.26-2.22.32-4.46.68-6.67a11.84,11.84,0,0,1,.65-2.36,9.81,9.81,0,0,1,.53-1.82,8.71,8.71,0,0,1,2.51-3.59,10,10,0,0,1,3.86-2,13.17,13.17,0,0,1,8.12.75,24.91,24.91,0,0,1,3.85,1.79,4.43,4.43,0,0,1,2,2.64,5.71,5.71,0,0,1-.16,2.6,8.35,8.35,0,0,0,0,1.12,51.34,51.34,0,0,1,1.11,5.76A8.67,8.67,0,0,1,63.51,117.47ZM35.08,97.84A17.58,17.58,0,0,1,40.41,87a19.1,19.1,0,0,1,10.45-5.11,25.24,25.24,0,0,1,7.61.29,29,29,0,0,1,6.08,1.7,17.38,17.38,0,0,1,6.08,4,5,5,0,0,1,2.88,2.89,3.32,3.32,0,0,1-2.05,4.1c-2,.57-3.47-1.38-5-2.19a13.07,13.07,0,0,0-5.81-1.41,17.84,17.84,0,0,0-6.19,1.07,11.88,11.88,0,0,0-5,2.76,17.87,17.87,0,0,0-3.54,5.64q-1,3.19-2.24,6.28c-1.32,3.19-1.41,7.06-5.18,8.28a4.36,4.36,0,0,1-2.19-.4c-2.34-3.09-1-5.74-1.19-8.64A42.11,42.11,0,0,1,35.08,97.84ZM4.61,132.07c.18-2.15.47-4.3.81-6.42.68-4.29,1.68-8.53,2.64-12.76S10,104.42,11,100.19A62.84,62.84,0,0,1,12.56,94a8.77,8.77,0,0,1,3.3-4.27A26.49,26.49,0,0,1,26.37,85.2a11.87,11.87,0,0,1,1.86-1,.75.75,0,0,1,1,.26.73.73,0,0,1-.26,1,10,10,0,0,0-2.2,1.3c-3,2.31-4.56,5.82-5.47,9.38A115.16,115.16,0,0,0,19,108.73c-.61,4.31-1.05,8.65-1.27,13-.11,2.09-.12,4.2-.33,6.28a9.12,9.12,0,0,1-2.11,5.23,18.81,18.81,0,0,1-4.16,3.54,4.83,4.83,0,0,1-5,.52C4.2,136.2,4.45,134,4.61,132.07Z"/><path class="cls-1" d="M43.53,46.39a4.39,4.39,0,0,0,4,.3,7.47,7.47,0,0,0,3.21-3.16v-.15c0-.4,0-.8,0-1.2v0c0-.47,0-.94,0-1.41s0-.77,0-1.16v-.16c0-.44,0-.88,0-1.33A22.41,22.41,0,0,1,52,29.35a20,20,0,0,1,4.45-6.22,63,63,0,0,0,5.23-5.49,16.93,16.93,0,0,0,3.14-7.85c.26-1.55.43-3.13.56-4.69A17.75,17.75,0,0,0,65.31.73L65,.49,64.69.33a3.93,3.93,0,0,0-3.27,0,20.59,20.59,0,0,0-2.88,2A85.88,85.88,0,0,0,48,11a33.45,33.45,0,0,0-7.58,10.88,36,36,0,0,0-2.17,15.3q0,1,.12,2.07C39.46,41.94,41,44.9,43.53,46.39Z"/><path class="cls-9" d="M140.17,9.24a3.94,3.94,0,0,1,1.15.87c1,1.3.67,3.08.34,4.56-.4,1.82-.69,3.66-1.06,5.48s-.77,3.71-1.18,5.56q-2.49,11-5.92,21.74a84.92,84.92,0,0,1-3.92,10.39,88.17,88.17,0,0,1-5.37,9.46,55.31,55.31,0,0,1-6.09,8.61,30.87,30.87,0,0,1-7.67,5.65c-3,1.62-6.11,3-9.2,4.42-1.57.72-5.26,4.18-10.5,3.62-.14,0-.2,0-.18,0l0-.08h0c.19-.37.38-.74.56-1.12a.36.36,0,0,1,0-.09l.23-.48c.09-.19.17-.38.26-.58A49.17,49.17,0,0,0,95,77.4c.21-1,.4-2,.57-3-1,3.22-2.17,6.41-3.51,9.53-.88,2.06-1.91,4-3,6A15.86,15.86,0,0,0,88,92.45a48.47,48.47,0,0,0,2.43,5.36c.62,1.21,1.27,2.4,1.92,3.59a8.94,8.94,0,0,1,.3-1.84,7.3,7.3,0,0,1,1-2.1c.16-.24,3.06-4.31,5.1-5.68,5.92-4,13.19-5.27,19.12-9.24s9.52-10.08,12.24-16.41c1.44-3.35,2.66-6.78,3.89-10.2,1.45-4,2.88-8,4.22-12.09a152.92,152.92,0,0,0,6.35-24.91c.32-2,.61-4.08.74-6.14A15,15,0,0,0,145,8.11,48.82,48.82,0,0,0,140,9.23.31.31,0,0,1,140.17,9.24Z"/><path class="cls-10" d="M131.82,12.41c1.46-.65,3.6-1.59,5.36-2.28A42.9,42.9,0,0,0,131.82,12.41Z"/><path class="cls-1" d="M119.33,15.84C115.7,19,112,22.1,108.42,25.26a46.4,46.4,0,0,0-8.78,9.52,51,51,0,0,0-5.17,11.13c-1.41,4.12-2.54,8.33-3.74,12.52-1.34,4.68-2.62,9.37-3.89,14.07-.31,1.13-.63,2.26-.92,3.4a9,9,0,0,0-.32,3.65l0,.2h0a10.78,10.78,0,0,1,.28,2.77c0,.06,0,.13,0,.19h0a5.45,5.45,0,0,1,.37.77,8.33,8.33,0,0,1,.3,3.65l0,.18A26.07,26.07,0,0,0,88,92.45,15.86,15.86,0,0,1,89.08,90c1.06-2,2.09-3.94,3-6,1.34-3.12,2.46-6.31,3.51-9.53.44-2.56.78-5.14,1.2-7.71A108.33,108.33,0,0,1,102.44,47a85.46,85.46,0,0,1,7.8-16.21,46.27,46.27,0,0,1,11.84-12.9,50.48,50.48,0,0,1,8.66-5l1.08-.49a42.9,42.9,0,0,1,5.36-2.28c.65-.26,1.26-.48,1.75-.64a4.49,4.49,0,0,1,1.1-.26A48.82,48.82,0,0,1,145,8.11,8.3,8.3,0,0,0,144.62,7c-.29-.76-.69-1.6-1.58-1.74a7.09,7.09,0,0,0-2.71.51c-1.86.51-3.68,1.09-5.48,1.76a82.58,82.58,0,0,0-14.21,7l-.59.63Z"/><path class="cls-5" d="M35,75.23l-.06,0c-.06,0-.11.11-.16.16l-.45.4h0C34.58,75.63,34.8,75.43,35,75.23Z"/><path class="cls-11" d="M113.73,44.39c-.74,3.84-1.53,7.68-2.29,11.51s-1.38,7.57-2.34,11.28a31.8,31.8,0,0,1-4.52,9.76c-1.09,1.62-2.2,3.23-3.38,4.81,2.21-1.63,4.43-3.23,6.55-5a16.6,16.6,0,0,0,4.72-5.9,37,37,0,0,0,2.18-7,52.29,52.29,0,0,1,2-7c1-2.51,2.62-4.64,3.82-7,1.3-2.6,1.37-5.45,1.69-8.28a35.39,35.39,0,0,1,1.87-7.92A79.71,79.71,0,0,1,131,19.94a22.15,22.15,0,0,0-10.77,5.11,34.75,34.75,0,0,0-4,8.74A98.69,98.69,0,0,0,113.73,44.39Z"/><path class="cls-12" d="M93.94,87.19l2.44-1.84,3.36-2.51,1.46-1.09c1.18-1.58,2.29-3.19,3.38-4.81a31.8,31.8,0,0,0,4.52-9.76c1-3.71,1.59-7.52,2.34-11.28s1.55-7.67,2.29-11.51a98.69,98.69,0,0,1,2.46-10.6,34.75,34.75,0,0,1,4-8.74c-.75.62-1.47,1.27-2.16,1.94a61.28,61.28,0,0,0-9.54,12.54l-.45.76a42.73,42.73,0,0,0-3.33,7.16,62,62,0,0,0-2.18,8.4c-1.14,5.79-1.85,11.65-3.37,17.36l-.24.9c-.06.19-.11.38-.17.57l-.09.32c-.06.22-.13.43-.19.64l-.08.26c-.07.25-.15.49-.22.74a.88.88,0,0,0,0,.15c-.09.26-.17.52-.26.78l0,.11c-.09.28-.19.55-.28.83l0,0A68.05,68.05,0,0,1,94,87.15h0l0,0Z"/><path class="cls-7" d="M70.82,72.16c.77.76,1.56,1.49,2.38,2.19A17.33,17.33,0,0,0,79.56,78a.69.69,0,0,0,.85-.65c.51-4.34,1-8.69,1.59-13a116.43,116.43,0,0,1,2.06-12,48.53,48.53,0,0,1,4.07-11.15c.27-.54.56-1.07.85-1.59a81.85,81.85,0,0,0-8.4,9.63,56.2,56.2,0,0,0-5.73,9.61c-.89,1.93-1.68,3.9-2.56,5.83-.43,1-.89,1.88-1.39,2.8a8.51,8.51,0,0,1-1.31,1.89.13.13,0,0,0,0,.06A3.17,3.17,0,0,0,70.82,72.16Z"/><path class="cls-7" d="M37.29,74.94a38.82,38.82,0,0,1,5.79-2.66c4.14-1.31,8.63-.2,12.77-1.53a12.37,12.37,0,0,0,1.42-.57A1.25,1.25,0,0,0,58.06,69a5.08,5.08,0,0,0-.68-3c-1-1.82-2.82-3.08-3.61-5-.19-.45-.27-.94-.45-1.39a6.88,6.88,0,0,0-.75-1.42,9.63,9.63,0,0,0-2-2.12,38.4,38.4,0,0,0-5.87-3.3,19.33,19.33,0,0,1-5.28-4.15c.22,1.69.44,3.39.61,5.09a54.6,54.6,0,0,1-.23,14.45,20.11,20.11,0,0,1-1.46,3c-.32.52-.65,1-1,1.5A19.2,19.2,0,0,1,35,75.23c-.22.2-.44.4-.67.59h0L34.1,76h0l-.25.2,0,0-.22.17-.12.09-.16.12h0A21.2,21.2,0,0,0,37.29,74.94Z"/><path class="cls-13" d="M36.3,114.88a4.36,4.36,0,0,0,2.19.4c3.77-1.22,3.86-5.09,5.18-8.28q1.28-3.09,2.24-6.28a17.87,17.87,0,0,1,3.54-5.64,11.88,11.88,0,0,1,5-2.76,17.84,17.84,0,0,1,6.19-1.07,13.07,13.07,0,0,1,5.81,1.41c1.55.81,3,2.76,5,2.19a3.32,3.32,0,0,0,2.05-4.1,5,5,0,0,0-2.88-2.89,17.38,17.38,0,0,0-6.08-4,29,29,0,0,0-6.08-1.7,25.24,25.24,0,0,0-7.61-.29A19.1,19.1,0,0,0,40.41,87a17.58,17.58,0,0,0-5.33,10.81,42.11,42.11,0,0,0,0,8.4C35.34,109.14,34,111.79,36.3,114.88Z"/><path class="cls-3" d="M70.44,108.58a51.34,51.34,0,0,0-1.11-5.76,8.35,8.35,0,0,1,0-1.12,5.71,5.71,0,0,0,.16-2.6,4.43,4.43,0,0,0-2-2.64,24.91,24.91,0,0,0-3.85-1.79,13.17,13.17,0,0,0-8.12-.75,10,10,0,0,0-3.86,2,8.71,8.71,0,0,0-2.51,3.59,9.81,9.81,0,0,0-.53,1.82,11.84,11.84,0,0,0-.65,2.36c-.36,2.21-.42,4.45-.68,6.67,0,.29-.09.58-.15.86a3.26,3.26,0,0,0,.58,2.8,3,3,0,0,0,2.51,1.26,10.18,10.18,0,0,1,1.83,0,38.93,38.93,0,0,1,4.94,1.59,13.6,13.6,0,0,0,6.57.66A8.67,8.67,0,0,0,70.44,108.58Zm-13.63,6.3-.73-.13a13.11,13.11,0,0,0-2.15-.23H53.5l-.27,0a3.43,3.43,0,0,1-.68.08,1.59,1.59,0,0,1-.94-.29,1.33,1.33,0,0,1-.67-.87,32,32,0,0,1-1.07-6.26,11.35,11.35,0,0,1,4-9.37,7.8,7.8,0,0,1,4.65-1.26,12,12,0,0,1,1.22.06,15.84,15.84,0,0,1,1.8.32,7.75,7.75,0,0,0,1.93.27h.39a1.33,1.33,0,0,1,1,.45,1.27,1.27,0,0,1,.36,1,4.17,4.17,0,0,0,.81,2.77A8.36,8.36,0,0,1,67.34,105a11.48,11.48,0,0,1-.81,6,6.71,6.71,0,0,1-4.66,4.08,7.6,7.6,0,0,1-1.76.19A17.94,17.94,0,0,1,56.81,114.88Z"/><path class="cls-13" d="M6.14,137.29a4.83,4.83,0,0,0,5-.52,18.81,18.81,0,0,0,4.16-3.54A9.12,9.12,0,0,0,17.44,128c.21-2.08.22-4.19.33-6.28.22-4.34.66-8.68,1.27-13A115.16,115.16,0,0,1,21.29,96.1c.91-3.56,2.5-7.07,5.47-9.38a10,10,0,0,1,2.2-1.3.73.73,0,0,0,.26-1,.75.75,0,0,0-1-.26,11.87,11.87,0,0,0-1.86,1,26.49,26.49,0,0,0-10.51,4.55A8.77,8.77,0,0,0,12.56,94,62.84,62.84,0,0,0,11,100.19c-1,4.23-1.93,8.47-2.89,12.7s-2,8.47-2.64,12.76c-.34,2.12-.63,4.27-.81,6.42C4.45,134,4.2,136.2,6.14,137.29Z"/><path class="cls-6" d="M7.42,154a9.55,9.55,0,0,1-.27-2,5.15,5.15,0,0,0-.61-.53c-.53-.37-1-.75-1.55-1.14A14.33,14.33,0,0,1,2.63,148a9.19,9.19,0,0,1-1.57-2.82A5.74,5.74,0,0,1,1,142.16c.05-.22.42-.17.4.05a4.79,4.79,0,0,0,.95,3.29,8.93,8.93,0,0,1-.62-2v0h0v-.15c1.81,4,3.82,5,5.35,5.25A5.47,5.47,0,0,1,8.07,147a6.61,6.61,0,0,1,2.12-1.69,11.27,11.27,0,0,1,1.77-.89,35.19,35.19,0,0,0,4.29-1.39,5.87,5.87,0,0,0,1.53-1.23A4.72,4.72,0,0,0,18.7,140h0a.65.65,0,0,1,.11.27,1.44,1.44,0,0,1,.06.65c-.07.32-.14.65-.23,1a4.9,4.9,0,0,1-.26.67c.1,1.72-1.37,3.29-2.63,4.39-.9.78-1.88,1.46-2.76,2.26a3.67,3.67,0,0,0-.93,1.14,3.34,3.34,0,0,0-.2,1.87A5.81,5.81,0,0,0,13,154.47a23.57,23.57,0,0,0,4.1,3.76c6,4.2,13.48,5.46,20.62,4.51a40.54,40.54,0,0,0,5.77-1.22c.84-.24,1.69-.5,2.52-.79.73-.54,1.39-.95,2-1.43h0l.05,0c.22-.17.43-.34.65-.53a18.63,18.63,0,0,0,4.1-5.68,23.2,23.2,0,0,0,2.41-7.31,11.88,11.88,0,0,0-.07-3.81,15.77,15.77,0,0,0-1.24-3.51A37.88,37.88,0,0,1,51.3,132a.25.25,0,0,1,.42-.24,59.93,59.93,0,0,1,5.34,5.11,19.62,19.62,0,0,1,3.85,5.54,17.12,17.12,0,0,1,1,2.94c.21.95.33,1.92.52,2.88A1.93,1.93,0,0,0,63.77,150a28.35,28.35,0,0,0,3.12.76,20.64,20.64,0,0,0,6.56.21,45.64,45.64,0,0,0,6.46-1.2,20.58,20.58,0,0,0,5.55-2.81,34.68,34.68,0,0,0,4.75-3.6c2.78-2.6,5-6,5.29-9.93,0-.72.5-.83.5-.1a20.62,20.62,0,0,1-5.35,14.26c-3.34,3.62-6,6.33-10.18,8.84a24.9,24.9,0,0,1-4,1.83,45.45,45.45,0,0,0,6-1.57,44.57,44.57,0,0,0,5.09-3.06c.45-.31.9-.64,1.34-1a34,34,0,0,0,8.24-13.21c.26-1,.46-2.09.64-3.13a46.65,46.65,0,0,0,.48-10.56,45,45,0,0,0-1.9-10.36,59.6,59.6,0,0,0-4.32-9.9,62.54,62.54,0,0,1-4.63-10.21A26.57,26.57,0,0,1,86,84.46a.19.19,0,1,1,.38,0,18.59,18.59,0,0,0,.2,2.68,8.33,8.33,0,0,0-.3-3.65,5.45,5.45,0,0,0-.37-.77h0c0-.06,0-.13,0-.19a10.78,10.78,0,0,0-.28-2.77h0l0-.2a9,9,0,0,1,.32-3.65c.29-1.14.61-2.27.92-3.4,1.27-4.7,2.55-9.39,3.89-14.07,1.2-4.19,2.33-8.4,3.74-12.52a51,51,0,0,1,5.17-11.13,46.4,46.4,0,0,1,8.78-9.52C112,22.1,115.7,19,119.33,15.84l.72-.64.59-.63c-2.11,1.28-4.17,2.64-6.2,4-6.31,4.4-12.35,9.23-18.19,14.24C93.76,35,91.32,37.2,89,39.52c-.29.52-.58,1-.85,1.59a48.53,48.53,0,0,0-4.07,11.15A116.43,116.43,0,0,0,82,64.3c-.56,4.34-1.08,8.69-1.59,13a.69.69,0,0,1-.85.65,17.33,17.33,0,0,1-6.36-3.63c-.82-.7-1.61-1.43-2.38-2.19a3.17,3.17,0,0,1-1.24-2.82.13.13,0,0,1,0-.06l-.17.17a2.17,2.17,0,0,1-1.79.66l-.22-.06a2.1,2.1,0,0,1-.3-.15,3.39,3.39,0,0,1-1.66.52c-2.37.13-4-2.07-4.45-4.18a19.7,19.7,0,0,1-.25-3.76c0-1.36,0-2.72,0-4.08a46.3,46.3,0,0,0-.62-8,32,32,0,0,1-.58-4A19.39,19.39,0,0,1,60,42.48c.21-1.32.12-2.67.29-4a12.4,12.4,0,0,1,1.08-3.62c1-2.24,2.46-4.3,3.64-6.47,2.33-4.28,4.35-9,4.58-13.91a47.77,47.77,0,0,0-.6-8c-.12-1-.27-2-.48-3A10,10,0,0,0,65,.49l.28.24a17.75,17.75,0,0,1,.07,4.37c-.13,1.56-.3,3.14-.56,4.69a16.93,16.93,0,0,1-3.14,7.85,63,63,0,0,1-5.23,5.49A20,20,0,0,0,52,29.35a22.41,22.41,0,0,0-1.3,8.75c0,.45,0,.89,0,1.33v.16c0,.39,0,.77,0,1.16s0,.94,0,1.41v0c0,.4,0,.8,0,1.2v.15a7.47,7.47,0,0,1-3.21,3.16,4.39,4.39,0,0,1-4-.3c-2.57-1.49-4.07-4.45-5.2-7.17.12,1.57.29,3.14.48,4.71s.4,3.12.6,4.68a19.33,19.33,0,0,0,5.28,4.15,38.4,38.4,0,0,1,5.87,3.3,9.63,9.63,0,0,1,2,2.12,6.88,6.88,0,0,1,.75,1.42c.18.45.26.94.45,1.39.79,1.93,2.63,3.19,3.61,5a5.08,5.08,0,0,1,.68,3,1.25,1.25,0,0,1-.79,1.21,12.37,12.37,0,0,1-1.42.57c-4.14,1.33-8.63.22-12.77,1.53a38.82,38.82,0,0,0-5.79,2.66,21.2,21.2,0,0,1-4,1.73h0c-.31.22-.62.44-.94.65h0l-.31.21q-.87.55-1.77,1l.41-.21.17-.08h0l-.77.39c1.09-.36,2.79-.8,3.12-.92a45.12,45.12,0,0,1,24.87-1.71A43.68,43.68,0,0,1,70,80.42a15,15,0,0,1,4.91,4,48.63,48.63,0,0,1,3.46,5.66,52.89,52.89,0,0,1,3.09,6.16,48.31,48.31,0,0,1,1.9,6.46,18.15,18.15,0,0,0,2.44,5.89c.57.85,1.2,1.66,1.69,2.56a6.11,6.11,0,0,1,.75,3c0,1.17-.18,2.34-.28,3.51a19.8,19.8,0,0,0,.07,3.61,14.29,14.29,0,0,1,0,3.52,19.5,19.5,0,0,1-.9,3.35c-.38,1.09-.81,2.17-1.26,3.24a10.35,10.35,0,0,1-1.53,2.76,12.3,12.3,0,0,1-5,3.27,16.52,16.52,0,0,1-12.19.39c-3.1-1.25-6.32-4.38-4.9-8l.09-.24a.56.56,0,0,1,.05-.08l.06-.14.06-.11.06-.1a3.63,3.63,0,0,1,.47-.64l0,0,.14-.15c.5-.33,1-.64,1.52-.94h0l.25,0a13.5,13.5,0,0,0,2.78-1h0l.25-.12,0,0c.08,0,.16-.07.24-.12h0l.22-.12,0,0,.22-.12,0,0,.22-.13,0,0,.23-.14h0q.48-.3.93-.63l0,0,.17-.12.08-.06.15-.12.09-.07.14-.11.1-.08.13-.11.11-.09.12-.1.12-.1.11-.1.12-.11.11-.09.13-.12.1-.09.13-.13.09-.08.14-.15.08-.07.21-.22a19.11,19.11,0,0,0,5.07-9.43c.73-3.63.1-7.8-2.67-10.45a.3.3,0,0,0-.51.21,24.33,24.33,0,0,1-.6,4.24,31.4,31.4,0,0,1-1.22,3.78,13.92,13.92,0,0,1-4,5.65,9.82,9.82,0,0,1-6.47,2.21c-2.75-.05-5.44-.88-8.16-1.22-1.59-.2-3.64-.16-4.78,1a1.2,1.2,0,0,0-.23.11,3.14,3.14,0,0,0-1.32,3.12,13.91,13.91,0,0,0-.26,5.1l-.54-.15h0l-.52-.13h0l-.5-.12h-.06l-.48-.1-.08,0-.45-.08-.11,0-.43-.07-.13,0-.42-.06-.13,0-.54-.07c-.65-.08-2.44.43-2.46.73,0,0,0,0,0,.08A27.53,27.53,0,0,1,50,136.68a27.1,27.1,0,0,1,.48,4.11,13.94,13.94,0,0,1-3.86,10.83,19.46,19.46,0,0,1-10.13,5.57,29.19,29.19,0,0,1-6.45.66,28.17,28.17,0,0,1-6.54-.69,15.34,15.34,0,0,1-6-2.8,13.18,13.18,0,0,1-3.4-4.17l.35-.31c.8-.68,2-1.29,2.91-2a7.06,7.06,0,0,0,2.58-3.32,8.53,8.53,0,0,0,.16-4.17,14.7,14.7,0,0,0-.74-2.9A5.27,5.27,0,0,0,19,136a5.22,5.22,0,0,0-1-1.76v.05a7.15,7.15,0,0,1-1.13,3.32,7.53,7.53,0,0,1-3,2.54,15.45,15.45,0,0,1-5.33,1.47,7.61,7.61,0,0,1-5-.9A4.88,4.88,0,0,1,1.69,136a5.2,5.2,0,0,0-.24.92l-.06.23a24.23,24.23,0,0,0-1,3.93A17.72,17.72,0,0,0,.3,144a26.25,26.25,0,0,0,5.44,12.51c.14.18.29.36.44.53a10.09,10.09,0,0,0,3.24,3.13,9.72,9.72,0,0,0,1.43.66,4.89,4.89,0,0,0,.54,0,13.8,13.8,0,0,1-1.66-2.1A16.25,16.25,0,0,1,7.42,154ZM85.74,86a0,0,0,0,1,0,.09A0,0,0,1,1,85.74,86Z"/><path class="cls-7" d="M69.55,14.48c-.23,4.94-2.25,9.63-4.58,13.91-1.18,2.17-2.61,4.23-3.64,6.47a12.4,12.4,0,0,0-1.08,3.62c-.17,1.33-.08,2.68-.29,4a19.39,19.39,0,0,0-.42,3.94,32,32,0,0,0,.58,4,46.3,46.3,0,0,1,.62,8c0,1.36,0,2.72,0,4.08A19.7,19.7,0,0,0,61,66.24c.42,2.11,2.08,4.31,4.45,4.18a3.39,3.39,0,0,0,1.66-.52,1.59,1.59,0,0,1-.66-.65A88.22,88.22,0,0,0,68.64,60a26.51,26.51,0,0,0,.11-8.48c-.48-3-1.44-5.84-2-8.79l-.09-.45a14.55,14.55,0,0,1,.87-8.17v0c3.65-8.9,7.53-20.18,2-29.16-.3-.49-.64-1-1-1.47.21,1,.36,2,.48,3A47.77,47.77,0,0,1,69.55,14.48Z"/><path class="cls-14" d="M102.15,206.26h0S102.16,206.26,102.15,206.26Z"/><path class="cls-8" d="M85.74,86a0,0,0,0,0,0-.09A0,0,0,1,0,85.74,86Z"/><path class="cls-7" d="M40.7,164.14a35.62,35.62,0,0,0,7.43-2.4l.57.16c2,1.18,4.9,1.52,7.08,2a34.7,34.7,0,0,0,7.88.61,48.76,48.76,0,0,0,15.8-3.06,35.29,35.29,0,0,0,12.81-8.18,27.53,27.53,0,0,0,7.15-12.84,42.7,42.7,0,0,0,1.07-8.8q.11-1.12.15-2.25a44.24,44.24,0,0,0-4.79-21.42c-1.09-2.18-2.29-4.31-3.46-6.45l0-.08c-.65-1.19-1.3-2.38-1.92-3.59A48.47,48.47,0,0,1,88,92.45a26.07,26.07,0,0,1-1.39-5.13l0-.18a18.59,18.59,0,0,1-.2-2.68.19.19,0,1,0-.38,0,26.57,26.57,0,0,0,1.36,10.79A62.54,62.54,0,0,0,92,105.46a59.6,59.6,0,0,1,4.32,9.9,45,45,0,0,1,1.9,10.36,46.65,46.65,0,0,1-.48,10.56c-.18,1-.38,2.09-.64,3.13a26.08,26.08,0,0,1-2.68,7,22,22,0,0,1-5.56,6.18c-.44.35-.89.68-1.34,1a44.57,44.57,0,0,1-5.09,3.06,45.45,45.45,0,0,1-6,1.57,24.9,24.9,0,0,0,4-1.83c4.2-2.51,6.84-5.22,10.18-8.84A20.62,20.62,0,0,0,96,133.31c0-.73-.45-.62-.5.1-.25,3.89-2.51,7.33-5.29,9.93a34.68,34.68,0,0,1-4.75,3.6,20.58,20.58,0,0,1-5.55,2.81,45.64,45.64,0,0,1-6.46,1.2,20.64,20.64,0,0,1-6.56-.21,28.35,28.35,0,0,1-3.12-.76,1.93,1.93,0,0,1-1.38-1.73c-.19-1-.31-1.93-.52-2.88a17.12,17.12,0,0,0-1-2.94,19.62,19.62,0,0,0-3.85-5.54,59.93,59.93,0,0,0-5.34-5.11.25.25,0,0,0-.42.24,37.88,37.88,0,0,0,2.64,6.39,15.77,15.77,0,0,1,1.24,3.51,11.88,11.88,0,0,1,.07,3.81A23.2,23.2,0,0,1,52.84,153a18.63,18.63,0,0,1-4.1,5.68c-.22.19-.43.36-.65.53l-.05,0h0c-.63.48-1.33.94-2,1.42h0c-.83.29-1.68.55-2.52.79a40.54,40.54,0,0,1-5.77,1.22c-7.14.95-14.65-.31-20.62-4.51a23.57,23.57,0,0,1-4.1-3.76,5.81,5.81,0,0,1-1.11-2.26,3.34,3.34,0,0,1,.2-1.87A3.67,3.67,0,0,1,13,149.2c.88-.8,1.86-1.48,2.76-2.26,1.26-1.1,2.73-2.67,2.63-4.39a4.3,4.3,0,0,1-.69,1A8.86,8.86,0,0,1,15,145.27c-.09.09-.17.19-.26.3-.33.45-.66.9-1,1.33a15,15,0,0,1-2.27,2.17,13.52,13.52,0,0,1-1.32.92l-.21.13a10.26,10.26,0,0,0,.27,1.8,12.11,12.11,0,0,0,2.29,4,12.57,12.57,0,0,0,6,4.22l0,0h0l-.58-.05a6.91,6.91,0,0,1-2.57-.78l.11.08c-6.94-2.86-7.48-8.68-7.48-8.68A9.35,9.35,0,0,1,2.3,145.5a4.79,4.79,0,0,1-.95-3.29c0-.22-.35-.27-.4-.05a5.74,5.74,0,0,0,.11,3.05A9.19,9.19,0,0,0,2.63,148,14.33,14.33,0,0,0,5,150.34c.5.39,1,.77,1.55,1.14a5.15,5.15,0,0,1,.61.53,9.55,9.55,0,0,0,.27,2,16.25,16.25,0,0,0,2.31,4.8,13.8,13.8,0,0,0,1.66,2.1,8.56,8.56,0,0,0,1.9-.16,19.1,19.1,0,0,0,3-.65,26.52,26.52,0,0,0,8,3.83,31.28,31.28,0,0,0,11.95,1l.25,0A41.11,41.11,0,0,0,40.7,164.14Zm40.92-5.77q1.36-.66,2.67-1.38l.63-.33Q83.32,157.59,81.62,158.37Z"/><path class="cls-15" d="M18.88,140.91a1.44,1.44,0,0,0-.06-.65.65.65,0,0,0-.11-.27h0a4.72,4.72,0,0,1-.92,1.83,5.87,5.87,0,0,1-1.53,1.23A35.19,35.19,0,0,1,12,144.45a11.27,11.27,0,0,0-1.77.89A10.86,10.86,0,0,0,8.07,147,5.47,5.47,0,0,0,7,148.55c-1.53-.27-3.54-1.29-5.35-5.25v.15h0v0a8.93,8.93,0,0,0,.62,2,9.35,9.35,0,0,0,5.61,5.25s.54,5.82,7.48,8.68l-.11-.08a6.91,6.91,0,0,0,2.57.78l.58.05h0l0,0a12.57,12.57,0,0,1-6-4.22,12.11,12.11,0,0,1-2.29-4,10.26,10.26,0,0,1-.27-1.8l.21-.13a13.52,13.52,0,0,0,1.32-.92,15,15,0,0,0,2.27-2.17c.36-.43.69-.88,1-1.33.09-.11.17-.21.26-.3a8.86,8.86,0,0,0,2.69-1.75,4.3,4.3,0,0,0,.69-1,4.9,4.9,0,0,0,.26-.67C18.74,141.56,18.81,141.23,18.88,140.91Z"/><path class="cls-16" d="M131.57,13.79c-1.22.79-2.43,1.59-3.61,2.44s-2.12,1.56-3.31,2.56a68.19,68.19,0,0,0-6.39,6c-1,1.06-1.93,2.16-2.84,3.29l-.4.51,0,.07,0,.07-.63.83c-.44.6-.87,1.22-1.29,1.84a57.58,57.58,0,0,0-4.34,7.6l-.54,1.17-.06.14.45-.76A61.28,61.28,0,0,1,118.05,27c.69-.67,1.41-1.32,2.16-1.94A22.15,22.15,0,0,1,131,19.94a79.71,79.71,0,0,0-6.93,13.78,35.39,35.39,0,0,0-1.87,7.92c-.32,2.83-.39,5.68-1.69,8.28-1.2,2.4-2.81,4.53-3.82,7a52.29,52.29,0,0,0-2,7,37,37,0,0,1-2.18,7,16.6,16.6,0,0,1-4.72,5.9c-2.12,1.74-4.34,3.34-6.55,5l-1.46,1.09-5.8,4.35h0a1.3,1.3,0,0,1-.16.15l-.13.16c-.26.22-.54.32-.82.53-.54.39-1.09.77-1.66,1.13l-.42.25a.9.9,0,0,0-.17.16l.18,0c5.24.56,8.93-2.9,10.5-3.62,3.09-1.43,6.21-2.8,9.2-4.42a30.87,30.87,0,0,0,7.67-5.65,55.31,55.31,0,0,0,6.09-8.61,88.17,88.17,0,0,0,5.37-9.46,84.92,84.92,0,0,0,3.92-10.39q3.44-10.73,5.92-21.74c.41-1.85.81-3.7,1.18-5.56s.66-3.66,1.06-5.48c.33-1.48.66-3.26-.34-4.56a3.94,3.94,0,0,0-1.15-.87.31.31,0,0,0-.14,0,4.49,4.49,0,0,0-1.1.26c-1.24.64-2.41,1.41-3.63,2.08S132.79,13,131.57,13.79Z"/><path class="cls-17" d="M91.7,87.23c-.09.2-.17.39-.26.58l-.23.48a.36.36,0,0,0,0,.09c-.18.38-.37.75-.56,1.12h0l.13-.08.42-.25c.57-.36,1.12-.74,1.66-1.13.28-.21.56-.31.82-.53l.13-.16a.81.81,0,0,1,.18-.19h0a68.05,68.05,0,0,0,3.6-8.59l0,0c.09-.28.19-.55.28-.83l0-.11c.09-.26.17-.52.26-.78a.88.88,0,0,1,0-.15c.07-.25.15-.49.22-.74l.08-.26c.06-.21.13-.42.19-.64l.09-.32c.06-.19.11-.38.17-.57l.24-.9c1.52-5.71,2.23-11.57,3.37-17.36a62,62,0,0,1,2.18-8.4,42.73,42.73,0,0,1,3.33-7.16l.06-.14.54-1.17a57.58,57.58,0,0,1,4.34-7.6c.42-.62.85-1.24,1.29-1.84l.63-.83,0-.07,0-.07.4-.51c.91-1.13,1.85-2.23,2.84-3.29a68.19,68.19,0,0,1,6.39-6c1.19-1,2-1.67,3.31-2.56s2.39-1.65,3.61-2.44,2.46-1.53,3.73-2.22,2.39-1.44,3.63-2.08c-.49.16-1.1.38-1.75.64-1.76.69-3.9,1.63-5.36,2.28l-1.08.49a50.48,50.48,0,0,0-8.66,5,46.27,46.27,0,0,0-11.84,12.9A85.46,85.46,0,0,0,102.44,47a108.33,108.33,0,0,0-5.68,19.77c-.42,2.57-.76,5.15-1.2,7.71-.17,1-.36,2-.57,3A49.17,49.17,0,0,1,91.7,87.23Z"/><path class="cls-18" d="M1.67,143.45v0Z"/><path class="cls-19" d="M53.45,113.7a3.85,3.85,0,0,1,.48,0,13.7,13.7,0,0,1,2.3.24,23,23,0,0,0,3.88.52,6.93,6.93,0,0,0,1.57-.17c4-.92,5.31-5.61,4.83-9.19a7.64,7.64,0,0,0-1.22-3.18,5.07,5.07,0,0,1-.94-3.28.54.54,0,0,0-.51-.53h-.39a35.24,35.24,0,0,1-3.82-.59,10,10,0,0,0-1.13-.06,6.92,6.92,0,0,0-4.12,1.07,10.5,10.5,0,0,0-3.67,8.69,30.68,30.68,0,0,0,1,6.09.47.47,0,0,0,.3.35l0,0a.67.67,0,0,0,.45.14C52.85,113.82,53.18,113.71,53.45,113.7Zm1.22-12.2a4.74,4.74,0,0,1,3.78-2.19A5,5,0,0,1,62,101a9.15,9.15,0,0,1,1.59,3.27,7.2,7.2,0,0,1,.16.75,6.71,6.71,0,0,1-.58,4.52,5.11,5.11,0,0,1-2.26,1.93,4.4,4.4,0,0,0,2.61-2.53,8.63,8.63,0,0,0,.53-4.25,8.42,8.42,0,0,0-.8-2.84,10.61,10.61,0,0,1,1.4,2.54,8.33,8.33,0,0,1,.25,5.55,5.41,5.41,0,0,1-4.1,3.66,9.18,9.18,0,0,1-3.14.08c-.24,0-.47-.11-.71-.18a5.54,5.54,0,0,1-3.66-3.58A5.48,5.48,0,0,1,53,108a.38.38,0,0,1,.2.21A4.78,4.78,0,0,0,55,110.51a1,1,0,0,0,.13.09A4.89,4.89,0,0,1,54,108.84a9.54,9.54,0,0,1-.53-3.56,2.49,2.49,0,0,1-.45-1.45A2.4,2.4,0,0,1,54.67,101.5Z"/><path class="cls-20" d="M61.87,115.09A6.71,6.71,0,0,0,66.53,111a11.48,11.48,0,0,0,.81-6A8.36,8.36,0,0,0,66,101.45a4.17,4.17,0,0,1-.81-2.77,1.27,1.27,0,0,0-.36-1,1.33,1.33,0,0,0-1-.45h-.39A7.75,7.75,0,0,1,61.52,97a15.84,15.84,0,0,0-1.8-.32,12,12,0,0,0-1.22-.06,7.8,7.8,0,0,0-4.65,1.26,11.35,11.35,0,0,0-4,9.37,32,32,0,0,0,1.07,6.26,1.33,1.33,0,0,0,.67.87,1.59,1.59,0,0,0,.94.29,3.43,3.43,0,0,0,.68-.08l.27,0h.43a13.11,13.11,0,0,1,2.15.23l.73.13a17.94,17.94,0,0,0,3.3.4A7.6,7.6,0,0,0,61.87,115.09Zm-9.81-1.44a.47.47,0,0,1-.3-.35,30.68,30.68,0,0,1-1-6.09,10.5,10.5,0,0,1,3.67-8.69,6.92,6.92,0,0,1,4.12-1.07,10,10,0,0,1,1.13.06,35.24,35.24,0,0,0,3.82.59h.39a.54.54,0,0,1,.51.53,5.07,5.07,0,0,0,.94,3.28,7.64,7.64,0,0,1,1.22,3.18c.48,3.58-.86,8.27-4.83,9.19a6.93,6.93,0,0,1-1.57.17,23,23,0,0,1-3.88-.52,13.7,13.7,0,0,0-2.3-.24,3.85,3.85,0,0,0-.48,0c-.27,0-.6.12-.9.12a.67.67,0,0,1-.45-.14Z"/><path class="cls-21" d="M56.94,111.7a4.38,4.38,0,0,1-1.84-1.1,1,1,0,0,1-.13-.09,4.78,4.78,0,0,1-1.76-2.26A.38.38,0,0,0,53,108a5.48,5.48,0,0,0,.26,1.83,5.54,5.54,0,0,0,3.66,3.58c.24.07.47.13.71.18a9.18,9.18,0,0,0,3.14-.08,5.41,5.41,0,0,0,4.1-3.66,8.33,8.33,0,0,0-.25-5.55,10.61,10.61,0,0,0-1.4-2.54,8.42,8.42,0,0,1,.8,2.84,8.63,8.63,0,0,1-.53,4.25,4.4,4.4,0,0,1-2.61,2.53A5.61,5.61,0,0,1,56.94,111.7Z"/><path class="cls-18" d="M55.27,101.42a2.42,2.42,0,0,1,0,4.83,2.23,2.23,0,0,1-1.81-1,9.54,9.54,0,0,0,.53,3.56,4.89,4.89,0,0,0,1.11,1.76,4.38,4.38,0,0,0,1.84,1.1,5.61,5.61,0,0,0,4-.28,5.11,5.11,0,0,0,2.26-1.93,6.71,6.71,0,0,0,.58-4.52,7.2,7.2,0,0,0-.16-.75A9.15,9.15,0,0,0,62,101a5,5,0,0,0-3.53-1.64,4.74,4.74,0,0,0-3.78,2.19A2.35,2.35,0,0,1,55.27,101.42Z"/><path class="cls-22" d="M55.27,106.25a2.42,2.42,0,1,0-.6-4.75A2.4,2.4,0,0,0,53,103.83a2.49,2.49,0,0,0,.45,1.45A2.23,2.23,0,0,0,55.27,106.25Z"/></g></g></svg>